<svg width="219" height="35" viewBox="0 0 219 35" fill="none" xmlns="http://www.w3.org/2000/svg">
<g clip-path="url(#clip0_159_5081)">
<g clip-path="url(#clip1_159_5081)">
<g clip-path="url(#clip2_159_5081)">
<g clip-path="url(#clip3_159_5081)">
<path d="M218.06 17.6161C217.94 16.3015 217.534 15.0289 216.871 13.8875C216.208 12.746 215.304 11.7632 214.221 11.0078C212.069 9.3928 209.38 8.664 206.706 8.97133C205.242 9.14638 203.845 9.68164 202.638 10.5292C201.431 11.3768 200.454 12.5103 199.793 13.8283C199.14 15.0975 198.756 16.4878 198.665 17.9122C198.574 19.3365 198.777 20.7644 199.263 22.1065C200.05 24.2951 201.626 26.1109 203.682 27.1976C205.664 28.2371 207.933 28.595 210.138 28.2158C212.326 27.7678 214.294 26.5816 215.712 24.8559C217.13 23.1301 217.912 20.9697 217.927 18.7361C217.927 18.2067 217.632 18.1048 217.571 18.5019C217.324 20.3415 216.625 22.091 215.535 23.5931C214.425 25.1937 212.834 26.3992 210.993 27.0347C209.07 27.6148 207.009 27.5468 205.128 26.8412C203.305 26.1878 201.775 24.9063 200.811 23.2265C200.188 22.1012 199.803 20.86 199.678 19.5798C199.554 18.2996 199.693 17.0075 200.088 15.7833C200.477 14.5584 201.15 13.4429 202.053 12.528C202.955 11.613 204.061 10.9246 205.281 10.519C206.533 10.1709 207.841 10.076 209.13 10.24C210.419 10.404 211.662 10.8235 212.787 11.474C213.911 12.1246 214.895 12.993 215.68 14.0284C216.465 15.0638 217.035 16.2455 217.357 17.5041C217.581 18.3798 218.121 18.6954 218.06 17.6161Z" fill="#FF71A8"/>
<path d="M151.376 25.8332C152.238 26.8255 153.306 27.6183 154.505 28.1564C155.704 28.6945 157.006 28.9649 158.32 28.9489C161.004 28.9951 163.604 28.0154 165.591 26.2099C166.672 25.224 167.496 23.9887 167.991 22.6116C168.486 21.2345 168.638 19.7573 168.431 18.3085C168.221 16.8961 167.724 15.5419 166.969 14.3298C166.214 13.1178 165.218 12.0737 164.043 11.2623C162.127 9.92552 159.782 9.35182 157.465 9.65352C155.243 9.94442 153.183 10.9694 151.61 12.5656C150.093 14.1991 149.183 16.3044 149.033 18.5289C148.883 20.7533 149.501 22.9618 150.786 24.7844C151.101 25.212 151.397 25.1204 151.213 24.7844C150.346 23.1547 149.894 21.3358 149.9 19.4896C149.878 17.5431 150.481 15.641 151.621 14.0624C152.836 12.4611 154.553 11.3137 156.498 10.8041C158.359 10.2757 160.348 10.4273 162.108 11.2318C163.267 11.7879 164.3 12.5739 165.146 13.5419C165.991 14.5099 166.631 15.6396 167.026 16.8626C167.427 18.0847 167.532 19.3843 167.334 20.655C167.136 21.9257 166.64 23.1314 165.886 24.1734C165.075 25.1853 164.07 26.0246 162.93 26.6419C161.79 27.2593 160.537 27.6421 159.247 27.7678C157.95 27.9097 156.639 27.7851 155.392 27.4016C154.145 27.0182 152.99 26.3839 151.997 25.5379C151.315 24.9371 150.663 25.0186 151.376 25.8332Z" fill="#FF71A8"/>
<path d="M160.673 9.98954C158.544 10.3459 156.345 12.81 154.757 14.1439C152.854 15.5972 151.038 17.1611 149.319 18.8278V20.4569C152.954 17.1171 156.875 13.4413 161.1 11.0078C161.742 10.7023 161.304 9.85717 160.673 9.98954Z" fill="#FF71A8"/>
<path d="M164.236 12.1381C161.34 13.7997 158.588 15.7002 156.009 17.8198C154.054 19.3471 151.844 20.8745 149.899 22.6462C149.899 22.7276 149.971 22.8091 150.011 22.9007L150.409 23.5524C152.15 22.0963 154.084 20.7726 155.795 19.4795C158.85 17.1274 161.904 15.04 165.142 12.973C164.819 12.7188 164.516 12.4397 164.236 12.1381Z" fill="#FF71A8"/>
<path d="M167.423 15.2945L167.209 14.8872C164.104 16.9237 161.181 19.3369 158.29 21.6482C156.313 23.1572 154.413 24.7647 152.598 26.4645C152.675 26.4972 152.747 26.5419 152.811 26.5968C153.025 26.7801 153.229 26.9736 153.433 27.167C157.923 23.0941 163.096 19.8969 167.749 16.0785C167.637 15.8138 167.515 15.5491 167.423 15.2945Z" fill="#FF71A8"/>
<path d="M168.227 19.5201C164.176 22.2357 160.277 25.1726 156.548 28.3176C157.065 28.306 157.582 28.3298 158.096 28.3889C161.293 25.7822 164.735 23.5116 168.105 21.1188C168.205 20.5921 168.246 20.0559 168.227 19.5201Z" fill="#FF71A8"/>
<path d="M184.112 9.20549C182.798 9.10639 181.478 9.29767 180.246 9.76575C179.015 10.2338 177.901 10.9672 176.984 11.914C175.046 13.7937 173.902 16.3443 173.787 19.0416C173.727 20.4993 174.023 21.9498 174.652 23.2666C175.28 24.5834 176.22 25.7267 177.392 26.5968C178.537 27.4492 179.847 28.0556 181.238 28.378C182.629 28.7004 184.072 28.7318 185.476 28.4704C187.768 28.0521 189.825 26.8008 191.25 24.9575C192.582 23.1654 193.296 20.9894 193.286 18.7565C193.208 16.5296 192.367 14.3972 190.905 12.7161C189.442 11.035 187.447 9.90707 185.252 9.52114C184.733 9.43968 184.58 9.70442 184.967 9.83679C186.724 10.3782 188.32 11.3473 189.61 12.6573C191.014 14.0239 191.933 15.8116 192.227 17.7484C192.494 19.7427 192.093 21.7694 191.087 23.5116C190.141 25.1993 188.625 26.4951 186.81 27.167C185.599 27.5956 184.313 27.7715 183.031 27.684C181.749 27.5964 180.498 27.2472 179.357 26.6579C178.212 26.075 177.221 25.2297 176.466 24.1909C175.71 23.1522 175.211 21.9494 175.009 20.6809C174.862 19.3933 174.976 18.0892 175.345 16.8469C175.714 15.6046 176.331 14.4497 177.157 13.4515C177.969 12.4188 178.986 11.566 180.145 10.9473C181.304 10.3285 182.578 9.9573 183.888 9.85715C184.794 9.79606 185.201 9.27676 184.112 9.20549Z" fill="#FF71A8"/>
<path d="M184.743 23.6236C185.385 23.5849 186.008 23.3949 186.562 23.0693C187.116 22.7437 187.585 22.2916 187.93 21.7501C188.647 20.6641 188.92 19.3452 188.694 18.0641C188.569 17.354 188.272 16.6854 187.828 16.1172C187.384 15.549 186.807 15.0987 186.149 14.8058C185.521 14.5289 184.843 14.3859 184.158 14.3859C183.472 14.3859 182.794 14.5289 182.167 14.8058C181.165 15.2471 180.363 16.0456 179.917 17.0459C179.501 18.0094 179.415 19.0832 179.673 20.1006C179.954 21.075 180.544 21.9321 181.353 22.5433C182.163 23.1546 183.149 23.4871 184.163 23.4913C184.21 23.4972 184.258 23.4845 184.296 23.456C184.334 23.4275 184.359 23.3854 184.367 23.3385C184.376 23.2954 184.369 23.2503 184.346 23.2125C184.323 23.1746 184.287 23.1469 184.244 23.1349C183.506 22.8823 182.817 22.5033 182.208 22.0148C181.607 21.5649 181.13 20.9691 180.823 20.2839C180.511 19.5471 180.455 18.7266 180.666 17.9546C180.876 17.1825 181.341 16.5037 181.984 16.0277C182.441 15.7343 182.954 15.5393 183.49 15.4552C184.027 15.3711 184.575 15.3996 185.1 15.5389C185.622 15.6689 186.106 15.9214 186.512 16.2755C186.917 16.6296 187.232 17.0752 187.431 17.5754C187.773 18.6478 187.684 19.8113 187.182 20.8188C186.68 21.8264 185.805 22.5987 184.743 22.972C184.336 23.0942 184.214 23.644 184.743 23.6236Z" fill="#FF71A8"/>
<path d="M69.2659 17.6161C69.1419 16.2979 68.7302 15.023 68.0599 13.8812C67.3896 12.7394 66.477 11.7585 65.3864 11.0078C63.2343 9.3928 60.545 8.664 57.8719 8.97133C56.4169 9.13706 55.0253 9.65972 53.8209 10.4928C52.6165 11.326 51.6366 12.4437 50.9683 13.7468C50.3114 15.0145 49.9243 16.4046 49.8315 17.8294C49.7386 19.2542 49.9419 20.6827 50.4287 22.025C51.218 24.2122 52.7934 26.0271 54.8478 27.1161C56.8108 28.2208 59.0847 28.6433 61.3135 28.3177C63.5019 27.8681 65.4699 26.6819 66.8893 24.9567C68.3087 23.2316 69.0936 21.0719 69.1132 18.838C69.1132 18.3085 68.8077 18.2067 68.7466 18.6038C68.5001 20.4433 67.8003 22.1928 66.7101 23.6949C65.5932 25.2859 63.9992 26.4805 62.1587 27.106C60.2353 27.6861 58.1746 27.6181 56.2937 26.9125C54.4819 26.2288 52.973 24.922 52.0375 23.2265C51.4146 22.1012 51.0291 20.86 50.9047 19.5798C50.7804 18.2996 50.9198 17.0075 51.3145 15.7833C51.7035 14.5584 52.3767 13.4429 53.2793 12.528C54.1818 11.613 55.288 10.9246 56.5075 10.519C57.7541 10.166 59.0589 10.067 60.3445 10.2279C61.6302 10.3889 62.8703 10.8064 63.9915 11.4558C65.1298 12.0964 66.1247 12.9636 66.9145 14.0039C67.7044 15.0442 68.2725 16.2355 68.5837 17.5041C68.7873 18.3798 69.3677 18.6954 69.2659 17.6161Z" fill="#FF71A8"/>
<path d="M2.58228 25.8332C3.44415 26.8256 4.51181 27.6184 5.71104 28.1564C6.91026 28.6945 8.21228 28.965 9.52659 28.949C12.2104 28.9951 14.8106 28.0155 16.7967 26.2099C17.8811 25.2262 18.7072 23.9912 19.2025 22.6135C19.6979 21.2358 19.8473 19.7575 19.6376 18.3085C19.4302 16.8925 18.9335 15.5344 18.1785 14.3187C17.4235 13.1029 16.4263 12.0556 15.249 11.242C13.3349 9.9112 10.9922 9.34458 8.68146 9.65356C6.45687 9.94456 4.39292 10.9694 2.81647 12.5657C1.30062 14.2004 0.392498 16.3063 0.244203 18.5307C0.0959084 20.7552 0.716447 22.963 2.00189 24.7844C2.30735 25.2121 2.60264 25.1204 2.41936 24.7844C1.55537 23.1538 1.10766 21.335 1.11603 19.4896C1.09459 17.5431 1.6977 15.641 2.83683 14.0625C4.0521 12.4611 5.76952 11.3138 7.71414 10.8042C9.57572 10.2758 11.5646 10.4274 13.3246 11.2318C14.4836 11.7901 15.5171 12.578 16.3625 13.5476C17.2079 14.5173 17.8475 15.6485 18.2426 16.8728C18.64 18.0942 18.7429 19.3923 18.543 20.6611C18.343 21.93 17.8458 23.1335 17.092 24.1735C16.2813 25.1854 15.2762 26.0247 14.1361 26.642C12.9959 27.2593 11.7436 27.6421 10.4532 27.7678C9.15658 27.9097 7.84466 27.7851 6.59797 27.4017C5.35127 27.0182 4.19611 26.384 3.20339 25.5379C2.52118 24.9372 1.86952 25.0186 2.58228 25.8332Z" fill="#FF71A8"/>
<path d="M11.8787 9.98954C9.75061 10.3459 7.56142 12.81 5.9628 14.1439C4.06146 15.5877 2.24911 17.145 0.535645 18.8074V20.4366C4.16054 17.1171 8.09089 13.4413 12.3369 11.0078C12.958 10.7023 12.51 9.85717 11.8787 9.98954Z" fill="#FF71A8"/>
<path d="M15.4935 12.1381C12.626 13.8039 9.90145 15.7043 7.34765 17.8198C5.40283 19.3471 3.1831 20.8745 1.23828 22.6462C1.23828 22.7276 1.30956 22.8091 1.35029 22.9007L1.7474 23.5524C3.48856 22.0963 5.4232 20.7726 7.13382 19.4795C10.1885 17.1274 13.2432 15.0095 16.5117 12.973C16.1538 12.718 15.8136 12.4391 15.4935 12.1381Z" fill="#FF71A8"/>
<path d="M18.6296 15.2945L18.4158 14.8872C15.3611 16.9237 12.3879 19.3369 9.49609 21.6482C7.51927 23.1572 5.61957 24.7647 3.8042 26.4645C3.88306 26.4949 3.95557 26.5398 4.01803 26.5968C4.23185 26.7801 4.4355 26.9736 4.63915 27.167C9.13971 23.0941 14.3021 19.8969 18.9554 16.0785C18.8434 15.8138 18.7212 15.5491 18.6296 15.2945Z" fill="#FF71A8"/>
<path d="M19.4748 19.5201C15.413 22.2355 11.5039 25.1724 7.76514 28.3176C8.27867 28.3061 8.79239 28.3299 9.30266 28.3889C12.4999 25.7822 15.9415 23.5116 19.3118 21.1188C19.3831 20.5587 19.434 20.0394 19.4748 19.5201Z" fill="#FF71A8"/>
<path d="M35.3181 9.20549C34.0041 9.10639 32.6844 9.29767 31.4526 9.76575C30.2208 10.2338 29.1071 10.9672 28.1905 11.914C26.2528 13.7937 25.1087 16.3443 24.9933 19.0416C24.9245 20.5027 25.2153 21.9584 25.8402 23.281C26.4651 24.6036 27.405 25.7526 28.5774 26.6274C29.7233 27.4797 31.0329 28.0861 32.4241 28.4086C33.8154 28.731 35.2582 28.7624 36.6622 28.5009C38.9542 28.0826 41.0106 26.8314 42.4355 24.988C43.7717 23.198 44.4867 21.0207 44.472 18.787C44.4015 16.5578 43.5668 14.4205 42.1078 12.7335C40.6488 11.0466 38.6543 9.91238 36.4585 9.52114C35.9392 9.43968 35.7865 9.70442 36.1734 9.83679C37.9396 10.3716 39.5432 11.3414 40.8369 12.6573C42.2406 14.0239 43.1594 15.8116 43.4538 17.7484C43.721 19.7427 43.32 21.7694 42.3133 23.5116C41.3672 25.1993 39.8512 26.4951 38.0368 27.167C36.8255 27.5956 35.5393 27.7715 34.2574 27.684C32.9755 27.5964 31.7251 27.2472 30.5834 26.6579C29.4387 26.075 28.4481 25.2297 27.6925 24.1909C26.9369 23.1522 26.4376 21.9494 26.2355 20.6809C26.0883 19.3933 26.2028 18.0892 26.5719 16.8469C26.9411 15.6046 27.5575 14.4497 28.384 13.4515C29.1916 12.4194 30.2054 11.5667 31.3606 10.9479C32.5159 10.3291 33.7874 9.9576 35.0941 9.85715C36.0003 9.79606 36.4076 9.27676 35.3181 9.20549Z" fill="#FF71A8"/>
<path d="M35.9496 23.6237C36.591 23.5849 37.2141 23.3949 37.768 23.0693C38.3219 22.7437 38.7909 22.2917 39.1367 21.7501C39.8693 20.6709 40.1541 19.3493 39.9309 18.0641C39.8061 17.354 39.5087 16.6854 39.0648 16.1172C38.6209 15.549 38.0442 15.0987 37.3853 14.8058C36.7599 14.5291 36.0836 14.3862 35.3998 14.3862C34.7159 14.3862 34.0396 14.5291 33.4142 14.8058C32.4076 15.2442 31.6013 16.0433 31.1538 17.0459C30.7382 18.0095 30.6523 19.0832 30.9094 20.1006C31.191 21.0751 31.7807 21.9321 32.5902 22.5433C33.3997 23.1546 34.3854 23.4872 35.3998 23.4913C35.4469 23.4972 35.4945 23.4845 35.5324 23.456C35.5704 23.4276 35.5959 23.3854 35.6034 23.3386C35.6129 23.2954 35.6055 23.2503 35.5828 23.2125C35.5601 23.1746 35.5237 23.1469 35.4812 23.1349C34.7464 22.874 34.0587 22.4957 33.4448 22.0149C32.8436 21.5649 32.367 20.9692 32.06 20.2839C31.7475 19.5471 31.6921 18.7266 31.9026 17.9546C32.1132 17.1825 32.5775 16.5038 33.2208 16.0277C33.6669 15.7358 34.1681 15.5383 34.6934 15.4472C35.2187 15.3562 35.7571 15.3735 36.2755 15.4982C36.7979 15.6282 37.2818 15.8807 37.6873 16.2348C38.0928 16.5889 38.4081 17.0345 38.6072 17.5347C38.949 18.6071 38.8594 19.7706 38.3576 20.7781C37.8557 21.7857 36.981 22.558 35.9191 22.9313C35.5423 23.0942 35.4303 23.644 35.9496 23.6237Z" fill="#FF71A8"/>
<path d="M143.658 17.6161C143.543 16.3014 143.14 15.0282 142.478 13.8863C141.817 12.7444 140.913 11.7617 139.829 11.0078C137.674 9.39213 134.981 8.66341 132.305 8.97131C130.851 9.14224 129.462 9.66696 128.258 10.4995C127.055 11.3321 126.074 12.4471 125.401 13.7468C124.748 15.016 124.364 16.4063 124.273 17.8307C124.182 19.2551 124.386 20.6829 124.872 22.025C125.66 24.2094 127.231 26.0236 129.281 27.1161C131.266 28.1543 133.538 28.512 135.746 28.1344C137.934 27.6863 139.902 26.5001 141.32 24.7744C142.738 23.0487 143.52 20.8882 143.536 18.6547C143.536 18.1252 143.24 18.0234 143.179 18.4205C142.933 20.26 142.233 22.0095 141.143 23.5116C140.062 25.1323 138.493 26.3664 136.663 27.0347C134.736 27.6171 132.672 27.5491 130.788 26.8412C128.968 26.1857 127.442 24.9044 126.48 23.2265C125.863 22.0993 125.48 20.8584 125.356 19.579C125.231 18.2996 125.368 17.0083 125.757 15.7833C126.146 14.5584 126.82 13.4429 127.722 12.5279C128.625 11.613 129.731 10.9246 130.95 10.519C132.197 10.166 133.502 10.067 134.787 10.2279C136.073 10.3888 137.313 10.8064 138.434 11.4558C139.573 12.0963 140.568 12.9636 141.357 14.0039C142.147 15.0442 142.715 16.2355 143.027 17.5041C143.179 18.3797 143.79 18.6954 143.658 17.6161Z" fill="#FF71A8"/>
<path d="M77.7889 11.8325C76.7949 12.6931 76.001 13.7605 75.4628 14.96C74.9246 16.1595 74.655 17.4622 74.6731 18.7768C74.6325 21.4634 75.6195 24.064 77.4325 26.047C78.4178 27.1292 79.653 27.9538 81.0303 28.449C82.4076 28.9441 83.8851 29.0948 85.3339 28.8878C86.7458 28.6761 88.0993 28.1774 89.3111 27.4227C90.5229 26.6679 91.5674 25.673 92.3801 24.4993C93.7063 22.5831 94.2725 20.2422 93.9685 17.9317C93.6787 15.6949 92.6544 13.6177 91.0564 12.026C89.4229 10.5086 87.3176 9.59863 85.0931 9.44848C82.8687 9.29833 80.6602 9.91713 78.8376 11.2012C78.41 11.5169 78.5016 11.8122 78.8376 11.6289C80.4682 10.7649 82.2871 10.3172 84.1324 10.3255C86.0758 10.3041 87.9747 10.9073 89.5494 12.0464C91.1479 13.2643 92.2945 14.9807 92.8077 16.9237C93.3361 18.7852 93.1845 20.7741 92.3801 22.5341C91.8291 23.6973 91.0478 24.7365 90.0834 25.5889C89.119 26.4412 87.9917 27.089 86.7696 27.4929C85.5482 27.8903 84.2501 27.9932 82.9813 27.7932C81.7125 27.5933 80.5089 27.0961 79.4689 26.3423C78.4554 25.5331 77.6148 24.5285 76.9974 23.388C76.3799 22.2475 75.9981 20.9945 75.8746 19.7034C75.7278 18.4066 75.8501 17.0935 76.2337 15.8461C76.6174 14.5986 77.2543 13.4438 78.1045 12.4536C78.6849 11.7714 78.6238 11.1198 77.7889 11.8325Z" fill="#FF71A8"/>
<path d="M93.6524 21.1188C93.2961 19.0009 90.8421 16.8015 89.4981 15.2131C88.0418 13.3127 86.478 11.4973 84.8142 9.77576H83.1851C86.4841 13.4006 90.1803 17.3208 92.5731 21.577C92.8786 22.2083 93.7644 21.7603 93.6524 21.1188Z" fill="#FF71A8"/>
<path d="M91.4837 24.6928C89.8142 21.8277 87.914 19.1034 85.802 16.547C84.2746 14.6022 82.7473 12.3824 80.9756 10.4376L80.721 10.5496L80.0693 10.9366C81.5254 12.6777 82.8491 14.6124 84.1422 16.323C86.4944 19.3777 88.5817 22.4323 90.6487 25.6703C90.8966 25.3196 91.1761 24.9924 91.4837 24.6928Z" fill="#FF71A8"/>
<path d="M88.3271 27.8798L88.7344 27.666C86.698 24.6113 84.2848 21.6381 81.9734 18.7463C80.4644 16.7695 78.857 14.8698 77.1572 13.0544C77.1205 13.1301 77.0762 13.2017 77.0248 13.2683C76.8415 13.4821 76.6481 13.6857 76.4546 13.8894C80.4766 18.3798 83.7146 23.5524 87.5431 28.2464C87.7875 28.0937 88.0726 27.9715 88.3271 27.8798Z" fill="#FF71A8"/>
<path d="M84.1015 28.725C81.393 24.6785 78.4699 20.7799 75.3447 17.0459C75.3563 17.5628 75.3325 18.0799 75.2734 18.5936C77.8801 21.7908 80.1507 25.2325 82.5436 28.6028C83.0629 28.6333 83.5822 28.6842 84.1015 28.725Z" fill="#FF71A8"/>
<path d="M102.582 11.8733C101.599 12.7395 100.817 13.8095 100.29 15.0087C99.762 16.2079 99.502 17.5077 99.5276 18.8176C99.4891 21.5037 100.476 24.1036 102.287 26.0877C103.273 27.1688 104.508 27.992 105.886 28.4854C107.263 28.9788 108.74 29.1275 110.188 28.9184C111.599 28.7065 112.951 28.2077 114.161 27.4529C115.371 26.6981 116.414 25.7033 117.224 24.5298C118.549 22.6126 119.118 20.2737 118.823 17.9623C118.525 15.7399 117.501 13.6783 115.911 12.0973C114.275 10.5831 112.17 9.67618 109.946 9.52792C107.722 9.37966 105.514 9.99908 103.692 11.2827C103.265 11.5983 103.346 11.8936 103.692 11.7103C105.319 10.8452 107.135 10.3974 108.977 10.407C110.92 10.379 112.819 10.979 114.394 12.1176C115.998 13.354 117.147 15.0871 117.662 17.0459C118.183 18.9091 118.028 20.8964 117.224 22.6563C116.668 23.8149 115.882 24.8484 114.914 25.6938C113.946 26.5393 112.817 27.1791 111.594 27.5743C110.371 27.9703 109.073 28.0715 107.804 27.8698C106.535 27.6681 105.332 27.1691 104.293 26.4136C103.281 25.6048 102.442 24.6015 101.825 23.463C101.207 22.3245 100.824 21.0739 100.699 19.7849C100.553 18.4873 100.676 17.1736 101.062 15.9261C101.447 14.6785 102.086 13.5241 102.939 12.5351C103.489 11.8122 103.407 11.1503 102.582 11.8733Z" fill="#FF71A8"/>
<path d="M113.244 21.6178C113.672 21.1433 113.98 20.5727 114.141 19.9542C114.302 19.3357 114.312 18.6874 114.17 18.0642C113.923 16.7834 113.194 15.6463 112.134 14.8873C111.546 14.4801 110.869 14.2211 110.16 14.1325C109.451 14.0438 108.73 14.1281 108.061 14.3782C107.422 14.6264 106.841 15.0056 106.357 15.4913C105.873 15.977 105.496 16.5586 105.25 17.1987C104.853 18.2274 104.853 19.3671 105.25 20.3959C105.622 21.3357 106.282 22.1339 107.134 22.6767C108.023 23.1672 109.047 23.3568 110.053 23.2174C111.058 23.0779 111.992 22.6168 112.714 21.9029C112.748 21.867 112.766 21.8197 112.766 21.7705C112.766 21.7213 112.748 21.674 112.714 21.6381C112.684 21.618 112.648 21.6073 112.612 21.6073C112.576 21.6073 112.541 21.618 112.51 21.6381C111.795 21.9827 111.028 22.2096 110.24 22.3102C109.498 22.4135 108.742 22.3295 108.04 22.0658C107.299 21.766 106.68 21.2253 106.282 20.5308C105.885 19.8364 105.733 19.0285 105.851 18.2373C105.969 17.7073 106.196 17.2074 106.516 16.7693C106.837 16.3312 107.245 15.9643 107.715 15.6917C108.173 15.4223 108.689 15.2652 109.22 15.2334C109.751 15.2015 110.282 15.2958 110.769 15.5084C111.78 16.0162 112.55 16.9001 112.916 17.9702C113.282 19.0402 113.213 20.211 112.724 21.2309C112.561 21.5363 112.877 22.0047 113.244 21.6178Z" fill="#FF71A8"/>
</g>
</g>
</g>
</g>
<defs>
<clipPath id="clip0_159_5081">
<rect width="218" height="33.61" fill="white" transform="translate(0.140137 0.800049)"/>
</clipPath>
<clipPath id="clip1_159_5081">
<rect width="218" height="20.11" fill="white" transform="translate(0.140137 8.90002)"/>
</clipPath>
<clipPath id="clip2_159_5081">
<rect width="218" height="20.11" fill="white" transform="translate(0.140137 8.90002)"/>
</clipPath>
<clipPath id="clip3_159_5081">
<rect width="217.84" height="20.11" fill="white" transform="translate(0.220215 8.90002)"/>
</clipPath>
</defs>
</svg>
