<svg xmlns="http://www.w3.org/2000/svg" viewBox="0 0 150.19 151.79"><defs><style>.cls-1{fill:#ff71a8;}.cls-2{fill:#af73ea;}.cls-3{fill:#513a47;}</style></defs><g id="Layer_2" data-name="Layer 2"><g id="OBJECTS"><path class="cls-1" d="M84.85,2.05c-.68,1.15-1.39,2.3-2.1,3.43s-1.87,2.18-2,3.36c-.12.81.52,1.83,1.48,1.48,1.35-.5,2.2-2.05,3-3.21a20.09,20.09,0,0,0,2-4.07c.52-1.38-1.62-2.2-2.34-1Z"/><path class="cls-1" d="M79.61,2.78a7.61,7.61,0,0,0-.72,4.11c0,1.59,0,3.18,0,4.76,0,2.14,3.38,2.15,3.32,0-.06-2.76.26-6-.68-8.61a1.09,1.09,0,0,0-2-.26Z"/><path class="cls-1" d="M85.72,1.45l0,0a.74.74,0,0,0-.2.49.77.77,0,0,0,.2.48l0,0a.84.84,0,0,0,.33.19A.75.75,0,0,0,87,2a.76.76,0,0,0-.37-.64.74.74,0,0,0-.89.12Z"/><path class="cls-1" d="M85.68,1h0a.94.94,0,0,0-.45.94.86.86,0,0,0,.19.45.8.8,0,0,0,.49.33h0a1,1,0,0,0,.92-.25.9.9,0,0,0,.26-.79.94.94,0,0,0-1.4-.7Z"/><path class="cls-1" d="M85,1.22a18.28,18.28,0,0,0-1.65,2.15c-.48.67-1,1.92,0,2.46s1.82-.45,2.25-1.16a17,17,0,0,0,1.3-2.36C87.32,1.23,85.73.48,85,1.22Z"/><path class="cls-1" d="M73.81,3.2C74.6,4.58,75.34,6,76,7.46a11.5,11.5,0,0,0,2.2,3.92.74.74,0,0,0,1.22-.32,7.52,7.52,0,0,0-.88-4.63,31.23,31.23,0,0,0-2.43-4.57,1.33,1.33,0,0,0-2.3,1.34Z"/><path class="cls-1" d="M58,6.25l.23.07-.9-1.57c-.38,1.5-.51,3.08-.85,4.59a16.62,16.62,0,0,0-.47,4.09.71.71,0,0,0,1.2.5,8.92,8.92,0,0,0,2.08-4,15.75,15.75,0,0,0,.56-4.82,1.29,1.29,0,0,0-1.62-1.24L58,3.93a1.21,1.21,0,0,0,0,2.32Z"/><path class="cls-1" d="M56.34,5.56a5.08,5.08,0,0,0-.47,1.69,1.15,1.15,0,0,0,.7,1.05,1.12,1.12,0,0,0,1.25-.24,2.17,2.17,0,0,0,.4-.71c.05-.12.08-.24.12-.37l.26-.79a1.17,1.17,0,1,0-2.26-.63Z"/><path class="cls-1" d="M50,7.35c.66,1.65,1.57,3.21,2.31,4.84a11.82,11.82,0,0,0,1.16,2.16,10.76,10.76,0,0,0,.76.87,9.59,9.59,0,0,1,.89,1.47A.88.88,0,0,0,56.76,16c-.08-.49-.29-.94-.34-1.43s0-.8-.07-1.21a9.09,9.09,0,0,0-.87-2.54A29.19,29.19,0,0,0,53,6.1a1.65,1.65,0,0,0-2-.67A1.61,1.61,0,0,0,50,7.35Z"/><path class="cls-1" d="M45.41,10.8A18.12,18.12,0,0,0,49.61,14a8.46,8.46,0,0,0,4.59,1.51.41.41,0,0,0,.36-.62,10.49,10.49,0,0,0-3.36-3.2,31.59,31.59,0,0,0-4.27-2.83,1.26,1.26,0,0,0-1.52,2Z"/><path class="cls-1" d="M34.61,14.83A40.7,40.7,0,0,0,34,20.56a19.8,19.8,0,0,0,.25,2.77,26.34,26.34,0,0,0,.19,2.81.92.92,0,0,0,1.75,0c.18-.83.13-1.68.27-2.51s.46-1.75.59-2.66c.26-1.76.46-3.52.73-5.28a1.67,1.67,0,0,0-1.13-2,1.62,1.62,0,0,0-2,1.13Z"/><path class="cls-1" d="M35.61,17.83c-.26.62-.61,1.61-.19,2.21a.88.88,0,0,0,1.37.17,1.76,1.76,0,0,0,.38-1,5.08,5.08,0,0,1,.24-.87,1,1,0,0,0-.65-1.15,1,1,0,0,0-1.15.65Z"/><path class="cls-1" d="M36.07,17.06a3.59,3.59,0,0,0-.64,1.3,2.25,2.25,0,0,0-.2.76,1.23,1.23,0,0,0,.17.62c-.07-.08-.07,0,0,.09a1,1,0,0,0,1.67.44c.11-.09.12-.12,0-.1a1.14,1.14,0,0,0,.44-.43,2,2,0,0,0,.2-.75,3.7,3.7,0,0,0,.08-1.48,1,1,0,0,0-1.72-.45Z"/><path class="cls-1" d="M27.7,17.86q1.36,2.27,2.87,4.44a22.08,22.08,0,0,0,3.34,4.11,1.5,1.5,0,0,0,2.35-1.82,39.07,39.07,0,0,0-2.83-4.2c-1-1.39-1.88-2.81-2.77-4.26-1.14-1.89-4.1-.17-3,1.73Z"/><path class="cls-1" d="M25,23.23c1.33.64,2.66,1.3,3.95,2s2.74,1.2,4,1.95,2.43-1.18,1.22-2.08c-.65-.49-1.2-1.11-1.85-1.62a14.15,14.15,0,0,0-1.89-1.17,41.52,41.52,0,0,0-4.2-2c-1.66-.7-2.85,2.13-1.23,2.92Z"/><path class="cls-1" d="M18.55,34.12a2.26,2.26,0,0,0-.34-1.21,1.58,1.58,0,0,0-2.88,1.22c.81,2.94,1.4,5.93,2,8.92.32,1.54,2.73,1.17,2.71-.37a30.13,30.13,0,0,0-1.71-9.39l-2.64,1.53a2.21,2.21,0,0,0,1,.66,1.43,1.43,0,0,0,1.79-1.36Z"/><path class="cls-1" d="M10.53,40.43a27.5,27.5,0,0,0,4.12,3.06,22.47,22.47,0,0,0,4.62,1.93,1,1,0,0,0,1-1.66,29.19,29.19,0,0,0-3.6-3.25A32.29,32.29,0,0,0,12.4,38c-1.49-.71-3.24,1.15-1.87,2.42Z"/><path class="cls-1" d="M9.87,45.72l.08.11a1.16,1.16,0,0,0,1,.59c1.09-.11,2.16-.31,3.24-.5a5.26,5.26,0,0,0,3-1,1.19,1.19,0,0,0-.52-2,5.24,5.24,0,0,0-2.94.31c-1,.26-2.05.49-3.05.82a1.21,1.21,0,0,0-.83.84,1.05,1.05,0,0,0,0,.8Z"/><path class="cls-1" d="M10.21,46.71a1,1,0,0,0,.73-.31,1,1,0,0,0-.73-1.77,1.12,1.12,0,0,0-.74.3,1,1,0,0,0,.74,1.78Z"/><path class="cls-1" d="M6.7,66.46v0a1.44,1.44,0,0,0-1-1.72l-.29-.11C4.14,64.07,3,66.07,4.07,67a13.75,13.75,0,0,0,5.35,2.83,1.3,1.3,0,0,0,1-2.37C9,66.47,7.38,66,6.06,65L4.69,67.31l.3.1a1.41,1.41,0,0,0,1.58-.64,2,2,0,0,0,.13-.31Z"/><path class="cls-1" d="M3,71.23c2.48.2,4.82.87,7.25,1.29a1.71,1.71,0,0,0,2-1,1.67,1.67,0,0,0-.7-2.11A25.92,25.92,0,0,0,3,67.77c-2.23-.13-2.2,3.28,0,3.46Z"/><path class="cls-1" d="M11.64,71.3a.07.07,0,1,0,0-.14.07.07,0,0,0,0,.14Z"/><path class="cls-1" d="M11.57,72.28a11.09,11.09,0,0,0,1.52.45,3.52,3.52,0,0,0,1.79-.14,1.15,1.15,0,0,0,0-2.2,5.87,5.87,0,0,0-1.56-.16,10.56,10.56,0,0,1-1.48,0c-1.18-.11-1.34,1.69-.27,2Z"/><path class="cls-1" d="M4.56,66.88a2.63,2.63,0,0,0-2.87,1.61L2,68a2,2,0,0,1-.61.37,1.28,1.28,0,1,0,1.75,1.74.59.59,0,0,1,.27-.29L2.81,70a2.29,2.29,0,0,0,1.44-.55,2.32,2.32,0,0,0,1.07-1.2,1.1,1.1,0,0,0-.76-1.33Z"/><path class="cls-1" d="M5,69.79H5l-.6-.35a1.55,1.55,0,0,0,1.26.43A1.74,1.74,0,0,0,7,69.35l-.3.23.12-.09a1.52,1.52,0,0,0,.59-.69,1.33,1.33,0,0,0,.08-.94,1.49,1.49,0,0,0-1.4-1.06H6l.4,0a1.75,1.75,0,0,0-1.44.25,1.63,1.63,0,0,0-.86,1l.35-.6,0,0A1.37,1.37,0,0,0,4,68.86a1.34,1.34,0,0,0,.93.93Z"/><path class="cls-1" d="M4.32,76.84A14.08,14.08,0,0,0,8,75.5a34.8,34.8,0,0,0,3.75-1.79c1.21-.71.42-2.8-1-2.32A37.12,37.12,0,0,0,7,73,14.57,14.57,0,0,0,3.51,74.9c-.67.61-.18,2.06.81,1.94Z"/><path class="cls-1" d="M7.74,96l-.32-.11c-2-.64-2.66,2.67-.4,2.94a19.24,19.24,0,0,0,3.22.14c1-.06,2.07-.35,3.11-.5,1.37-.19,1.06-2.56-.33-2.43a35.45,35.45,0,0,1-6-.2l.75,2.79.29-.22A1.34,1.34,0,0,0,7.74,96Z"/><path class="cls-1" d="M7,97.61c.62,1.43,3.39,1.22,4.65,1.16a1.7,1.7,0,0,0,0-3.4c-1.2,0-5.61,0-4.65,2.24Z"/><path class="cls-1" d="M7.78,104a36.72,36.72,0,0,0,4.85-2.25,16.31,16.31,0,0,0,2.1-1.4c.28-.21.49-.5.75-.69A12.55,12.55,0,0,1,16.67,99c1-.57.32-2.32-.8-1.88-1.58.61-3.25.84-4.83,1.51a34.65,34.65,0,0,0-4.57,2.26c-1.58,1-.57,3.8,1.31,3.12Z"/><path class="cls-1" d="M8.85,107.25a3.53,3.53,0,0,0,.56.25l-.25-1.89-.32.19A1.25,1.25,0,0,0,10.1,108a17.13,17.13,0,0,0,4-3.7c1-1.15,2.73-3,2.07-4.61a1,1,0,0,0-.93-.71c-1.71-.06-2.8,1.91-3.69,3.11a39.26,39.26,0,0,0-3.11,4.2l2.33.63c0-.12,0-.25,0-.38,0-1.12-1.78-1.45-2-.27l0,.16.39-.5-.19.09a.74.74,0,0,0,0,1.27Z"/><path class="cls-1" d="M22.55,125a2.07,2.07,0,0,0-3.51-.73l2.42,2.42a44,44,0,0,0,4.35-4.5,6.79,6.79,0,0,0,1.54-2.53,3.1,3.1,0,0,1,.51-1.21c.34-.46.79-.84,1.14-1.3.64-.82-.36-1.92-1.17-1.17-.43.39-.78.84-1.19,1.25a2.79,2.79,0,0,1-1.26.69A6.78,6.78,0,0,0,23,119.69a50.91,50.91,0,0,0-4.23,4.93c-1.12,1.56,1.46,3.58,2.69,2.07l.15-.18-.75.43a.21.21,0,0,1,.2,0,1.55,1.55,0,0,0,1.49-2Z"/><path class="cls-1" d="M18.41,117.45a4.48,4.48,0,0,1-.5.11c-1.82.37-1.44,3.5.44,3.29a21.84,21.84,0,0,0,5.35-1.21,16,16,0,0,0,2-1.13c.66-.36,1.29-.66,1.23-1.54-.12-1.84-2.68-.9-3.73-.73-1.77.27-3.58.87-5.32,1.32L20,119.62a4,4,0,0,1,.16-.45c.42-1-.79-2-1.72-1.72Z"/><path class="cls-1" d="M26.5,129.53a54.33,54.33,0,0,0,1.68-6.12c.37-1.59,1.48-4.18.18-5.55a.89.89,0,0,0-1.05-.14c-1.62.69-1.72,3.64-2.06,5.1-.47,2-1,4-1.32,6a1.33,1.33,0,0,0,2.57.71Z"/><path class="cls-1" d="M40.65,139.48l-.2,0a1.63,1.63,0,0,0-1.76.71,1.72,1.72,0,0,0-.35,1.23c.08,1.2,1.76,2.28,2.68,1.11.58-.73,1.14-1.48,1.68-2.24A12.41,12.41,0,0,0,44,137.82c.74-1.7,1.88-3.28,2.74-4.93.69-1.33-1.32-2.51-2-1.18a24.28,24.28,0,0,1-2.77,4.66,22.85,22.85,0,0,0-1.71,2c-.54.76-1.09,1.51-1.64,2.26l2.93.79-.2.53a1.46,1.46,0,0,0-.64-2.43Z"/><path class="cls-1" d="M43.6,136.83a1.26,1.26,0,0,0-.33-.57l.3.51a1.11,1.11,0,0,0-.14-.34,1.33,1.33,0,0,0-.34-.37,1.59,1.59,0,0,0-.55-.28l.62.36a1.64,1.64,0,0,0-.65-.38l1,1.81a1.13,1.13,0,0,1,.09-.35l-.15.36a1.57,1.57,0,0,1,.18-.31,1.48,1.48,0,0,0-.53-2,1.46,1.46,0,0,0-1.15-.15,1.62,1.62,0,0,0-.89.68,2.91,2.91,0,0,0-.43,1.41,1.44,1.44,0,0,0,.43,1,1.41,1.41,0,0,0,1.23.41,1.45,1.45,0,0,0,1-.55,1.4,1.4,0,0,0,.26-1.28,3.88,3.88,0,0,0-.15-.36c0,.35.09.71.14,1.07v0l-.13.32c.06-.13.11-.23.17-.39l-.81.82a2,2,0,0,0,.33-.15,1,1,0,0,0,.45-.52,1.14,1.14,0,0,0,.06-.71Z"/><path class="cls-1" d="M48.13,142.19c-.09-3.08,0-6.15,0-9.24,0-2-2.81-1.89-3,0a25.34,25.34,0,0,0,.93,9.53,1.09,1.09,0,0,0,2.13-.29Z"/><path class="cls-1" d="M39.25,135.15a1.49,1.49,0,0,0-1.63.08c-1.1.59-.67,2.63.67,2.47a9.59,9.59,0,0,0,3.08-1.35c1.06-.52,2.1-1,3.13-1.56a1.7,1.7,0,0,0,.86-1.49,1.55,1.55,0,0,0-.51-1.22,1.82,1.82,0,0,0-2.09-.27,24.51,24.51,0,0,0-3,1.81,8.39,8.39,0,0,0-2.63,2.08l2.09,1.61c.57-.57.87-1.65,0-2.16Z"/><path class="cls-1" d="M57.09,146.82l-.24.18,2,2c1.22-1.66,2.5-3.3,3.65-5,.56-.85,2.18-3.15.84-4s-2.93,1.58-3.54,2.42c-1.21,1.67-2.35,3.4-3.51,5.11s1.59,3.15,2.56,1.49l.15-.26c.66-1.14-.76-2.86-1.94-1.94Z"/><path class="cls-1" d="M64.76,149.93A11,11,0,0,0,66.13,144c0-.94-.2-1.91-.13-2.84a12.91,12.91,0,0,1,1-2.89c.37-1.2-1.37-2.34-2.22-1.29a6.11,6.11,0,0,0-1.07,2.71c-.21,1-.51,1.91-.7,2.87-.36,1.85-.39,3.88-1.24,5.59a1.76,1.76,0,0,0,3,1.77Z"/><path class="cls-1" d="M71.08,147.28a30.82,30.82,0,0,0-1.27-3.84,13.26,13.26,0,0,0-1.75-3.68c-.92-1.16-2.92-.18-2.87,1.19a13.2,13.2,0,0,0,1.13,3.9,31.06,31.06,0,0,0,1.57,3.78c1,1.8,3.63.53,3.19-1.35Z"/><path class="cls-1" d="M87.74,149.52c-.26-2-.5-4-.77-5.93a26.14,26.14,0,0,0-.57-2.93,8.62,8.62,0,0,0-.76-2.8,1.38,1.38,0,0,0-2.48.33,8.54,8.54,0,0,0,.14,2.89,27.2,27.2,0,0,0,.35,3c.36,2,.76,3.91,1.13,5.86.31,1.65,3.18,1.29,3-.4Z"/><path class="cls-1" d="M79.73,149.9a11.56,11.56,0,0,0,2.62-3.72,20.19,20.19,0,0,0,2.15-4.28c.39-1.43-1.56-2.75-2.61-1.52a19.52,19.52,0,0,0-2.34,4.16c-.66,1.34-1.59,2.79-1.66,4.31a1.23,1.23,0,0,0,1.84,1.05Z"/><path class="cls-1" d="M93,144.28a30,30,0,0,0-3.48-3c-1.16-.91-2.24-2-3.81-1.67a1.21,1.21,0,0,0-.88,1.15c.06,1.55,1.39,2.42,2.49,3.33A30,30,0,0,0,91,146.87a1.66,1.66,0,0,0,2-2.59Z"/><path class="cls-1" d="M113,139.23a29.55,29.55,0,0,1-1.5-3c-.43-1-.67-2.48-1.56-3.18a1.62,1.62,0,0,0-2.66.7c-.39,1.29.36,2.7.88,3.88a27.88,27.88,0,0,0,1.82,3.41,1.75,1.75,0,0,0,3-1.77Z"/><path class="cls-1" d="M109.37,140.12c0-1.67.17-3.33.35-5,.22-2-3.2-2.46-3.49-.48a26.36,26.36,0,0,0-.23,5.47,1.69,1.69,0,0,0,3.37,0Z"/><path class="cls-1" d="M116.64,135.32c-1.15-1.31-3-1.73-4.61-2.3-.69-.25-1.35-.62-2-.85-.11,0-1-.38-.6-.12a6.93,6.93,0,0,1-1-.93,1.31,1.31,0,0,0-2,1.58,3.94,3.94,0,0,0,.79,1.11c.15.16.31.32.48.47q-.15-.43.12.24a5.38,5.38,0,0,0,2.3,1.65c1.79.82,4,1.66,6,1.22a1.25,1.25,0,0,0,.54-2.07Z"/><path class="cls-1" d="M106.41,141.43a1.57,1.57,0,0,0,.12.3,2.19,2.19,0,0,0,.2.25,1.27,1.27,0,0,0,.55.32l.32,0,.36-.05a1.18,1.18,0,0,0,.55-.32,1.25,1.25,0,0,0,.33-.55,1.26,1.26,0,0,0-2.1-1.23,1.23,1.23,0,0,0-.33.56,1.35,1.35,0,0,0,0,.69l0-.32h0l0-.31a.3.3,0,0,0,0,.16.77.77,0,0,0,0,.45Z"/><path class="cls-1" d="M127.05,128.13c1.07-.46.87-1.93.61-2.84-.37-1.23-1.21-2.2-1.65-3.39a1.61,1.61,0,1,0-3,1.25,33.92,33.92,0,0,0,2.17,3.37c.39.69.76,2.08,1.83,1.61Z"/><path class="cls-1" d="M131,124.63c-.07-1.83-2.28-3.47-3.62-4.55a21.2,21.2,0,0,0-2.38-1.56c-.88-.52-1.59-1.07-2.64-.88a1,1,0,0,0-.76,1,3.33,3.33,0,0,0,1.24,2c.69.71,1.38,1.46,2.1,2.15s1.42,1.22,2.15,1.82a4,4,0,0,0,2.56,1.34,1.36,1.36,0,0,0,1.35-1.35Z"/><path class="cls-1" d="M133,117.53a10.47,10.47,0,0,0-5.36-.3c-1.09.2-3.77.47-3.71,2s2.71,1.12,3.73,1.15a25.07,25.07,0,0,0,5.34-.21c1.51-.27,1.13-2.24,0-2.68Z"/><path class="cls-1" d="M137.83,107.6a1.36,1.36,0,0,0,0,1l2.6-1.09c-1.17-1.8-2.07-4-3.64-5.49a1.78,1.78,0,0,0-3,1.72,8.46,8.46,0,0,0,1.93,2.86c.77.94,1.65,1.72,2.44,2.63,1.09,1.26,3-.34,2.23-1.72l-.06-.12c0,.36.09.72.14,1.08l0-.13a1.4,1.4,0,0,0-2.7-.75Z"/><path class="cls-1" d="M133,102c.41,1.29,2,2,3.08,2.61a33.24,33.24,0,0,0,4,1.86,1.47,1.47,0,0,0,1.65-2.14,7.31,7.31,0,0,0-5.21-3.33c-2-.25-2.44,3.15-.47,3.47a5.14,5.14,0,0,1,3.39,1.62l1.42-2.43a33,33,0,0,1-3.56-1.54c-1-.49-2.2-1.49-3.36-1.38a1,1,0,0,0-1,1.26Z"/><path class="cls-1" d="M143.07,99.31a31,31,0,0,0-5.52.34c-1.08.17-3.86.84-3.6,2.44s2.89,1.19,3.9,1c1.87-.3,3.73-.75,5.59-1.12,1.54-.31,1.14-2.66-.37-2.69Z"/><path class="cls-1" d="M136.63,106.44a1.37,1.37,0,0,0-.61,1.06,2.06,2.06,0,0,0,0,.26,1.26,1.26,0,0,0,.12.61,1.93,1.93,0,0,0,.35.51,1.61,1.61,0,0,0,.7.41l.39,0,.38,0a1.51,1.51,0,0,0,.76-.52.73.73,0,0,0,.19-.33.65.65,0,0,0,.1-.36,1.46,1.46,0,0,0-.17-.94,2.13,2.13,0,0,0-.58-.58l.29.23a2.91,2.91,0,0,0-.33-.26,1.45,1.45,0,0,0-.57-.17l-.3,0,.35.05-.16,0a1.17,1.17,0,0,0-.88.1Z"/><path class="cls-1" d="M143.64,102a1.54,1.54,0,0,0,1.05-.44,1.47,1.47,0,0,0,.43-1.05,1.48,1.48,0,0,0-.43-1,1.57,1.57,0,0,0-1.05-.43,1.49,1.49,0,0,0-1.49,1.48,1.5,1.5,0,0,0,.44,1.05,1.54,1.54,0,0,0,1,.44Z"/><path class="cls-1" d="M148,78.83a11.79,11.79,0,0,0-5.05,0,18.87,18.87,0,0,1-2.36.57,3.21,3.21,0,0,0-2,.76,1.05,1.05,0,0,0,.46,1.74,3.82,3.82,0,0,0,1.9,0,6.11,6.11,0,0,1,2.21.19,37.24,37.24,0,0,0,4.36.46c2.08.23,2.57-3.32.5-3.67Z"/><path class="cls-1" d="M147.16,75c-1.4.66-2.73,1.48-4.11,2.19A25.14,25.14,0,0,0,139,79.25c-1.11.87.16,2.25,1.22,2.09a15.13,15.13,0,0,0,4.36-2,23.4,23.4,0,0,0,4-2.56c1.09-.9-.3-2.36-1.42-1.83Z"/><path class="cls-1" d="M148.89,86.41a2.61,2.61,0,0,0-1.42-2c-.51-.37-1-.8-1.45-1.19a22.2,22.2,0,0,0-4.24-2.66,1.71,1.71,0,0,0-2,.25,1.52,1.52,0,0,0-.47,1.15,1.58,1.58,0,0,0,.8,1.4A9,9,0,0,1,142.63,85c.56.59,1,1.26,1.6,1.8a4.32,4.32,0,0,0,2.53,1.31c.9.06,2.27-.58,2.13-1.71Z"/><path class="cls-1" d="M147,75.07v0a1.28,1.28,0,0,0,.33,1.26,1.38,1.38,0,0,0,.92.38,1.36,1.36,0,0,0,.91-.38,1.26,1.26,0,0,0,.33-.57,1.34,1.34,0,0,0,0-.69v0l-.13-.31a1,1,0,0,0-.33-.36,1.26,1.26,0,0,0-.77-.27,1.61,1.61,0,0,0-.65.17,1.38,1.38,0,0,0-.59.77Z"/><path class="cls-1" d="M144.54,59c.27.06.52.09.79.13l-1-1.32-.07.31L145.71,57a15.24,15.24,0,0,0-4.91.91c-1.26.44-3.18,1-3.45,2.55l.56-.56a21.15,21.15,0,0,0-2.69.67c-1.14.55-.34,2.4.86,2,.84-.26,1.45-.87,2.25-1.17l-.78-.2c1.15,1,2.86.47,4.21.16a23,23,0,0,0,4.72-1.57,1.53,1.53,0,0,0-.77-2.83,1.92,1.92,0,0,0-1.53.61.84.84,0,0,0,.36,1.39Z"/><path class="cls-1" d="M144.56,52.05c-1.62.67-2.72,2-3.95,3.22s-2.57,2.22-3.19,3.8a.7.7,0,0,0,.86.85c1.55-.48,2.66-1.77,3.85-2.82s2.77-2.11,3.53-3.63c.32-.66-.24-1.77-1.1-1.42Z"/><path class="cls-1" d="M148.19,63a7.25,7.25,0,0,0-3.82-2.22c-.67-.15-1.36-.16-2-.28a3.81,3.81,0,0,0-1.77-.21,1.12,1.12,0,0,0-.78,1.37c.46,1.34,1.76,1.28,2.94,1.59a18.47,18.47,0,0,1,3.95,1.72,1.26,1.26,0,0,0,1.52-2Z"/><path class="cls-1" d="M135.29,39a2.93,2.93,0,0,0,1.14.09l-1.32-1c.18-.42.11-.5-.22-.25a2.27,2.27,0,0,0-.58.39,5,5,0,0,0-.81,1c-1,1.4,1.1,2.79,2.26,1.74a10.16,10.16,0,0,0,2.29-2.34c.59-1.06-.68-2.63-1.81-1.8-.77.57-1.61,1-2.36,1.63s-1.61,1.36-2.43,2c-1.59,1.25-3,2.64-4.45,4-.81.77.22,2,1.16,1.5a34,34,0,0,0,5.14-3.12c.77-.6,1.55-1.17,2.31-1.78a30.61,30.61,0,0,0,2.23-2.18l-1.6-2.07a10.29,10.29,0,0,0-2.51,2.11L136,40.64c-.21.33.6-.28.71-.36a3,3,0,0,0,.84-.89,2.39,2.39,0,0,0,.08-2.37,1.35,1.35,0,0,0-1.54-.62,3.78,3.78,0,0,0-1.27.71,1.13,1.13,0,0,0,.49,1.88Z"/><path class="cls-1" d="M131.81,33.81c-.51,1.29-.89,2.63-1.37,3.93a35,35,0,0,0-1.52,3.85,1.35,1.35,0,0,0,2.46,1,18.27,18.27,0,0,0,1.65-4,28.54,28.54,0,0,0,1.27-4.16,1.29,1.29,0,0,0-2.49-.69Z"/><path class="cls-1" d="M140.11,42.43c-.92-1-2.51-.78-3.75-.68-1.46.12-2.91.31-4.36.55-1.69.28-1.22,2.87.39,2.9,1.33,0,2.65,0,4-.07a8.51,8.51,0,0,0,3.48-.59,1.36,1.36,0,0,0,.27-2.11Z"/><path class="cls-1" d="M134,34.27l0,0a1.15,1.15,0,0,0,0-1.58l0,0a1.1,1.1,0,0,0-.5-.29,1.14,1.14,0,0,0-.75,0,1.07,1.07,0,0,0-.46.36,1.13,1.13,0,0,0-.24.69,1.14,1.14,0,0,0,2,.81Z"/><path class="cls-1" d="M120.61,19.7l.09.11a1.45,1.45,0,0,0,1.47.39l.32-.11c-.57-.75-1.14-1.5-1.72-2.24-1,1.45-2,2.83-3,4.28a15.6,15.6,0,0,1-3.58,4,1,1,0,1,0,1.22,1.58c.78-.63,1.51-1.31,2.28-1.94s1.55-1.08,2.24-1.72a18.8,18.8,0,0,0,3.48-4.64,1.54,1.54,0,0,0-2.09-2.09l-.32.14a1.47,1.47,0,0,0-.75,1.31,1.64,1.64,0,0,0,.36.95Z"/><path class="cls-1" d="M115.69,16.29a19.41,19.41,0,0,0-.82,4.93,22.85,22.85,0,0,1-.39,2.48,4.65,4.65,0,0,0-.16,2.42,1.22,1.22,0,0,0,2.19.28,4.83,4.83,0,0,0,.57-2.35,22.8,22.8,0,0,1,.44-2.47,19.92,19.92,0,0,0,.76-4.94,1.32,1.32,0,0,0-2.59-.35Z"/><path class="cls-1" d="M126,23.67l.18-.31c.58-1-.91-2.28-1.69-1.3a6.54,6.54,0,0,0-.66.5l.89-.24a8.56,8.56,0,0,0-3.22.21c-1.14.21-2.33.43-3.44.75-1.53.43-1.3,3,.39,2.88,2.08-.19,5.17-.74,6.67-2.3l-.64.26a1.8,1.8,0,0,0,.8-.06s.49-.27.26-.2c-.28-.66-.55-1.31-.83-2l-.31.16c-1.69.9.62,3.35,1.6,1.61Z"/><path class="cls-1" d="M103.77,11c.55.94,1.69.8,2.58.52l-1.71-2.23a34.32,34.32,0,0,0-2.71,4.51c-.35.76-.5,1.57-.84,2.32a12,12,0,0,0-1.22,2.46c-.23,1.09,1.23,2.26,2.06,1.21a11,11,0,0,0,1.13-2.28,21.62,21.62,0,0,1,1.53-2.16c1-1.46,1.76-3,2.67-4.53a1.53,1.53,0,0,0-1.71-2.23c-.9.33-2.51,1.18-1.78,2.41Z"/><path class="cls-1" d="M103.44,10.38a7.07,7.07,0,0,0-.26,1.31c-.1.41-.32.86-.05,1.26a.55.55,0,0,0,.59.24c.47-.07.64-.56.89-.9a7,7,0,0,0,.8-1.08,1.08,1.08,0,1,0-2-.83Z"/><path class="cls-1" d="M98.64,6.49a23.59,23.59,0,0,0,.14,5.69c.08.92.19,1.84.27,2.77a17.37,17.37,0,0,0,.3,2.88c.28,1.07,2.15,1.22,2.32,0a35.53,35.53,0,0,0,0-5.65,23.44,23.44,0,0,0-.44-5.69c-.34-1.19-2.36-1.37-2.59,0Z"/><path class="cls-1" d="M111.48,12.57h.25c-.11-.78-.21-1.55-.32-2.32-3.1,1.18-5.65,3.53-8.71,4.77-2.38,1-.57,4.4,1.29,3.06,2.79-2,6.19-3.29,8.57-5.86,1.23-1.32-1.17-2.92-1.85-1.43a2.56,2.56,0,0,0-.11.24,1,1,0,0,0,.88,1.53Z"/><path class="cls-1" d="M49,30.87c1.9-.13,3.74-1.15,5.49-1.83s3.61-1.38,5.45-2a53.39,53.39,0,0,1,10.88-2.6,37.31,37.31,0,0,1,11.11.41,48.63,48.63,0,0,1,5.56,1.4c1.83.57,3.58,1.36,5.4,1.92s3.25-2.36,1.41-3.32a42.42,42.42,0,0,0-11.38-3.61,40.28,40.28,0,0,0-12.1-.54,57.67,57.67,0,0,0-11.68,2.67c-1.9.64-3.78,1.34-5.64,2.07s-4.1,1.35-5.63,2.67A1.62,1.62,0,0,0,49,30.87Z"/><path class="cls-1" d="M92,26.6c2.12,1.29,4.53,2.1,6.74,3.24a53.62,53.62,0,0,1,6.29,3.8,45.5,45.5,0,0,1,5.56,4.63c.85.83,1.69,1.69,2.5,2.56s1.68,2.21,3,2.66a1.62,1.62,0,0,0,2.05-1.56C118,40.42,117,39.5,116,38.42s-1.81-1.91-2.79-2.79a61.19,61.19,0,0,0-6.25-5,52.53,52.53,0,0,0-6.77-4A23.17,23.17,0,0,0,92.72,24c-1.47-.18-1.82,2-.71,2.63Z"/><path class="cls-1" d="M115.84,43.1a13.28,13.28,0,0,1,2.83,4c.87,1.64,1.7,3.3,2.47,5a101.66,101.66,0,0,1,4,10.57c.7,2.16,4,1.28,3.42-1a75,75,0,0,0-4.44-11.57c-1.59-3.41-3.23-7.23-6.37-9.49-1.41-1-3.18,1.27-1.86,2.41Z"/><path class="cls-1" d="M123.14,51.43a6.17,6.17,0,0,0-.34,1.77,3.63,3.63,0,0,0,.56,2A1.52,1.52,0,0,0,126.13,54a6.61,6.61,0,0,0-.66-1.46,9,9,0,0,1-.6-1.15.9.9,0,0,0-1.73,0Z"/><path class="cls-1" d="M124.31,53.51c-1.15.55-.47,2.61-.27,3.51.32,1.54.61,3.09.9,4.64s.5,2.89.65,4.36-.07,3.51.7,4.91a1.64,1.64,0,0,0,2.8,0c.72-1.34.45-3,.34-4.51a41.23,41.23,0,0,0-.6-4.56,24.08,24.08,0,0,0-1.21-4.34,10.07,10.07,0,0,0-2.05-3.81,1.09,1.09,0,0,0-1.06-.28l-.2.08Z"/><path class="cls-1" d="M128.48,71.53c1.86-.67,2-3.24,1.59-4.89a1.24,1.24,0,0,0-2.37,0,3.83,3.83,0,0,1-.22.65,1.3,1.3,0,0,0,.6,1.46l0,0c-.12-.13-.25-.26-.38-.38l.07.15a.94.94,0,0,0,1.46.19l.15-.13-.76.32h.05A1.34,1.34,0,0,0,130,67.63a1,1,0,0,1,.06-.34L127.65,67c0,.8.22,1.79-.45,2.36a1.32,1.32,0,0,0,1.28,2.2Z"/><path class="cls-1" d="M127,72.55a9.89,9.89,0,0,0,2.43.12,1.49,1.49,0,0,0,1.3-.74,1.5,1.5,0,0,0,0-1.52,1.49,1.49,0,0,0-1.3-.75A11.06,11.06,0,0,0,127,70a1.36,1.36,0,0,0,0,2.6Z"/><path class="cls-1" d="M126.8,80.31a4,4,0,0,0,.68.16l.53.08a4.57,4.57,0,0,0,1.65,0A1.41,1.41,0,0,0,130,78a4.94,4.94,0,0,0-3.19-.45,1.42,1.42,0,0,0-1,1.36,1.46,1.46,0,0,0,1,1.36Z"/><path class="cls-1" d="M127.05,79.8a13.13,13.13,0,0,0,2.25.42,1.23,1.23,0,1,0,.66-2.36,8.41,8.41,0,0,0-2.73-.32A1.51,1.51,0,0,0,125.76,79a1.52,1.52,0,0,0,1.47,1.48,15.85,15.85,0,0,1,1.76.25,1.43,1.43,0,1,0,.76-2.75,21.58,21.58,0,0,0-2.13-.39l-.39,2.89c.8,0,1.61-.18,2.4-.22V77.82a13.9,13.9,0,0,0-2.58.1,1,1,0,0,0-.72.94,1,1,0,0,0,.72.94Z"/><path class="cls-1" d="M125.92,84.23a4.2,4.2,0,0,0,2.68.73,1.35,1.35,0,0,0,1.24-.95,1.3,1.3,0,0,0-.59-1.45,6.33,6.33,0,0,0-2.65-.83,1.37,1.37,0,0,0-1.3,1,1.39,1.39,0,0,0,.62,1.51Z"/><path class="cls-1" d="M129.81,82.87a2.16,2.16,0,0,0-.84-.52c.29.12-.35-.13-.44-.15-.36-.09-.72-.17-1.07-.29A1.54,1.54,0,0,0,125.57,83a1.57,1.57,0,0,0,1.07,1.89c.88.29,2.1.63,2.91,0a1.31,1.31,0,0,0,.26-2Z"/><path class="cls-1" d="M123.92,92.41a9.21,9.21,0,0,0-.68,2.2,1.48,1.48,0,0,0,2.17,1.66A4.17,4.17,0,0,0,127.34,93a1.47,1.47,0,0,0-.73-1.28,1.56,1.56,0,0,0-1.51,0,3.62,3.62,0,0,0-2,2.5,1.58,1.58,0,0,0,.89,1.83,1.56,1.56,0,0,0,1.94-.64,5.94,5.94,0,0,0,.65-1.25,1.55,1.55,0,0,0-2.57-1.5,6.41,6.41,0,0,0-.76,1.18l2.9.79c-.06.51,0-.13,0-.15l-.07.15a1.32,1.32,0,0,1,.12-.2c-.11.23,0,.06.07,0-.15.11-.15.13,0,0s.14-.07,0,0L124.37,93c0-.39-.06.12-.08.19s-.05.15,0,0a2.25,2.25,0,0,1-.12.21,1.37,1.37,0,0,1-.13.2c.11-.14.12-.15,0,0s-.44.37-.15.17l2.16,1.66a9.1,9.1,0,0,0,.28-2.32,1.31,1.31,0,0,0-2.44-.66Z"/><path class="cls-1" d="M124.78,94.24c-.23,0-.27,0-.14,0s.09,0-.12-.06a1.12,1.12,0,0,0,.24.13c-.18-.14-.22-.17-.12-.07s.07.06-.09-.12a.47.47,0,0,1,.07.12c-.09-.24-.11-.28-.07-.14l2.39-1.4c-.4-.34-.82-.67-1.23-1-.22.82-.44,1.64-.65,2.45l.16,0-.39.06a1.41,1.41,0,0,1,.41,0l-.4-.06.16,0-.17-.07c.1.06.36.25,0,0l.69-2.63a.53.53,0,0,1-.12,0l.42-.06a.29.29,0,0,1-.13,0l.43.06-.19,0,.39.16a.51.51,0,0,1-.16-.09l.32.26a2.28,2.28,0,0,1-.22-.22A1.56,1.56,0,0,0,125.1,91a1.65,1.65,0,0,0-1.41,2.45,2.31,2.31,0,0,0,1.35,1,2.34,2.34,0,0,0,1.68-.21,1.57,1.57,0,0,0,0-2.71,3.62,3.62,0,0,0-2.44-.26,1.47,1.47,0,0,0-1.06,1.22,1.55,1.55,0,0,0,.7,1.47c.43.31.85.64,1.28.94a1.45,1.45,0,0,0,1.74-.22,1.53,1.53,0,0,0,.22-1.74,2.44,2.44,0,0,0-2.72-1.24,1.27,1.27,0,0,0-.91,1.4,1.29,1.29,0,0,0,1.25,1.1Z"/><path class="cls-1" d="M124.49,93c-.76,1.14-1.68,2.16-2.44,3.31s-1.63,2.47-2.47,3.69a64.56,64.56,0,0,1-5,6.29,58,58,0,0,1-12.7,10.45,50,50,0,0,1-32.82,7A42.26,42.26,0,0,1,51.19,117c-2.49-1.69-5,2.47-2.37,4.06A51.61,51.61,0,0,0,85,127.63c11.9-2.21,22.47-8.59,30.79-17.23a67.19,67.19,0,0,0,6.29-7.59,48.91,48.91,0,0,0,2.68-4.15,30.69,30.69,0,0,0,2-4.75c.53-1.38-1.53-2.06-2.28-1Z"/><path class="cls-1" d="M42,113.56c-.39-1.38-1.64-2.32-2.64-3.27s-2.09-2.12-3.08-3.24a49.8,49.8,0,0,1-5-6.76A46.49,46.49,0,0,1,25,84.43a39.37,39.37,0,0,1-.7-9.69c.16-2.81-4.42-2.85-4.41,0,.05,12.51,4.18,24.74,12.62,34.1a39.09,39.09,0,0,0,3.69,3.59c1.28,1.1,2.81,2.62,4.6,2.65A1.21,1.21,0,0,0,42,113.56Z"/><path class="cls-1" d="M41.6,116.13a5.17,5.17,0,0,0,.8-1.1,3,3,0,0,0,.52-1.42,1.14,1.14,0,0,0-1.71-1,3,3,0,0,0-1,1.15,5,5,0,0,0-.55,1.25,1.14,1.14,0,0,0,1.89,1.1Z"/><path class="cls-1" d="M42.56,117.28a1.39,1.39,0,0,0,.37-.64c0-.08.06-.13,0,0s.15-.23.08-.15a.74.74,0,0,1,.33-.22l.2,0q.12,0,0,0l.29,0a1.11,1.11,0,0,0,.7-.5,1,1,0,0,0-.41-1.42,2.29,2.29,0,0,0-2.42.49,2,2,0,0,0-.73,2.35,1,1,0,0,0,1.61.21Z"/><path class="cls-1" d="M20.15,71.6c.49-.09.83-.5,1.29-.66a5.35,5.35,0,0,1,1.32-.1,1.08,1.08,0,0,0,.54-2,3.38,3.38,0,0,0-2.5-.24,2.66,2.66,0,0,0-2,1.6,1.14,1.14,0,0,0,1.39,1.39Z"/><path class="cls-1" d="M21.78,62.86a2.79,2.79,0,0,1,2.36-.06c1.15.45,2-1.53.85-2a4.19,4.19,0,0,0-4.42.5,1,1,0,0,0-.08,1.32,1,1,0,0,0,1.29.26Z"/><path class="cls-1" d="M24.12,55.67c.47,0,.94-.1,1.42-.06a3.32,3.32,0,0,1,1.18.41A1.22,1.22,0,0,0,28,53.92a4,4,0,0,0-4.52.08,1,1,0,0,0,.69,1.67Z"/><path class="cls-1" d="M25.9,54.35c1.4,0,2-1.76,2.68-2.78.78-1.21,1.61-2.38,2.44-3.56a61.16,61.16,0,0,1,5.4-6.62A62,62,0,0,1,49.65,30.52a1.4,1.4,0,0,0-1.42-2.42A64.07,64.07,0,0,0,33.7,39.69,61.23,61.23,0,0,0,27.9,47a43.77,43.77,0,0,0-2.37,4,5.12,5.12,0,0,0-.82,2,1.33,1.33,0,0,0,1.19,1.35Z"/><path class="cls-2" d="M58,17.94c.31-.13.4-.33.63-.56a2.32,2.32,0,0,1,1.1-.64,6.46,6.46,0,0,1,2.44,0c.73.08.73-1.07,0-1.15a6.12,6.12,0,0,0-3.23.27c-.69.32-1.64,1.05-1.39,1.9a.31.31,0,0,0,.45.18Z"/><path class="cls-2" d="M58.38,16.81a4.07,4.07,0,0,1,3.8-1.06c.29.06.67-.2.54-.54-.38-1-1.53-.72-2.35-.54a3.44,3.44,0,0,0-2.53,1.72.35.35,0,0,0,.54.42Z"/><path class="cls-2" d="M58.25,15.85a5.19,5.19,0,0,1,2.23-.72c.69,0,1.37.24,2.05.15a.4.4,0,0,0,.28-.68c-1.23-1.35-3.94-.43-5.13.52-.42.34.12,1,.57.73Z"/><path class="cls-2" d="M74.32,17.57h.05a.5.5,0,0,0,.46-.36,3.25,3.25,0,0,1,1.38-1.87A4.22,4.22,0,0,1,78.9,15c.59.05.63-.79.13-1A4,4,0,0,0,73.9,17a.5.5,0,0,0,.22.55.8.8,0,0,0,.2.07Z"/><path class="cls-2" d="M72.23,14.74a1.89,1.89,0,0,1,1.43.78c.38.43.47,1,.88,1.44a.56.56,0,0,0,.76,0,.44.44,0,0,0,.08-.11.52.52,0,0,0,0-.54,6.18,6.18,0,0,0-1.51-2c-.48-.34-1.59-.86-2-.1a.36.36,0,0,0,.31.53Z"/><path class="cls-2" d="M73,14.44c.2.59.39,1.19.59,1.78s.25,1,.75,1.16a.33.33,0,0,0,.38-.16c.22-.49-.06-.91-.27-1.37s-.54-1.11-.8-1.68c-.17-.35-.77-.1-.65.27Z"/><path class="cls-2" d="M71.92,14.21c.45.3,1,.29,1.52.55a14.76,14.76,0,0,1,1.38,1,.51.51,0,0,0,.53,0,.44.44,0,0,0,.24-.31.53.53,0,0,0-.13-.51c-.7-.71-2.53-2-3.54-1.27a.34.34,0,0,0,0,.58Z"/><path class="cls-2" d="M74.73,15.67c.78-1.34,2.27-1.6,3.64-1.92a.51.51,0,0,0,.36-.35,1.22,1.22,0,0,0,0-.27.51.51,0,0,0-.49-.37c-1.37-.1-4.26,1-4.11,2.75a.33.33,0,0,0,.6.16Z"/><path class="cls-2" d="M75.39,15.16c.44-.27,2.69-1.41,3-.67a.31.31,0,0,0,.44.11c.79-.56,0-1.29-.75-1.27A6.64,6.64,0,0,0,75,14.47a.4.4,0,0,0,.4.69Z"/><path class="cls-2" d="M80.77,16.37a1.72,1.72,0,0,0,.9-.52,3.14,3.14,0,0,1,2-.84c1.26,0,1.72,1.19,2.76,1.59a.43.43,0,0,0,.52-.52,3.64,3.64,0,0,0-3.46-2.17c-1.09.05-3.08.9-3,2.22a.26.26,0,0,0,.32.24Z"/><path class="cls-2" d="M83.92,15.53a6,6,0,0,1,.79.64c.24.25.37.64.69.82a.49.49,0,0,0,.72-.42c0-.47-.44-.9-.78-1.17a2.47,2.47,0,0,0-1.24-.56c-.41,0-.44.5-.18.69Z"/><path class="cls-2" d="M81,16c.75-.87,2.48-2.27,3.77-1.63.9.45,1.31,1.69,2.46,1.13a.42.42,0,0,0,.09-.65c-.34-.29-.71-.44-1.06-.73a6.47,6.47,0,0,0-.9-.76,2.46,2.46,0,0,0-1.86-.16c-1.31.29-2.82,1-3.23,2.37A.44.44,0,0,0,81,16Z"/><path class="cls-2" d="M96,21.05a2.23,2.23,0,0,1,1.88-.8c.6,0,1.14.37,1.72.31a.42.42,0,0,0,.35-.61c-.75-1.43-5-.85-4.64,1,.06.35.52.32.69.09Z"/><path class="cls-2" d="M93,17.39c.82-.48,1.68.89,2,1.49s.27,1.53.73,2.1a.42.42,0,0,0,.65-.08c1.05-1.65-2.53-6.16-3.82-4a.33.33,0,0,0,.45.46Z"/><path class="cls-2" d="M95.48,20.33c.83-.48,1.29-.69,2.15-.18a4,4,0,0,0,1.59.76.4.4,0,0,0,.34-.61,4.31,4.31,0,0,0-2.33-1.46A2.61,2.61,0,0,0,95,19.7c-.34.31.09.85.48.63Z"/><path class="cls-2" d="M97.8,20.82a1.46,1.46,0,0,0,.8.69.48.48,0,0,0,.55-.22.5.5,0,0,0-.08-.59c-.11-.1-.24-.16-.36-.25s0,0,0,0l-.12-.1h0a.46.46,0,0,1-.07-.07.46.46,0,0,0-.59,0,.45.45,0,0,0-.12.57Z"/><path class="cls-2" d="M93,17.4a1.49,1.49,0,0,0,.82.36,1.27,1.27,0,0,1,.64.48,14.26,14.26,0,0,1,1,1.76c.69,1.21,2.61.09,1.86-1.08a9.13,9.13,0,0,0-1.85-2.49c-.78-.61-2.29-.95-2.7.24a.75.75,0,0,0,.19.73Z"/><path class="cls-2" d="M96.26,20.42c.34-.05.65-.24,1-.29a2.6,2.6,0,0,1,1,.06,1,1,0,0,0,.51-1.83c-1.07-.29-2.77-.09-3.35,1a.73.73,0,0,0,.81,1.06Z"/><path class="cls-2" d="M100.63,22.17a5,5,0,0,1,1.45,0,5.58,5.58,0,0,1,1.33.63c1.06.61,2-1.1,1-1.62-1.24-.6-3-1.33-4.24-.26a.73.73,0,0,0,.51,1.23Z"/><path class="cls-2" d="M108.83,27.54a19.46,19.46,0,0,1,2.26.52c.73.32,1.25,1.12,2.08,1.09a.91.91,0,0,0,.88-.88c.1-1.12-1.39-1.84-2.27-2.16a3.41,3.41,0,0,0-3.11.16.7.7,0,0,0,.16,1.27Z"/><path class="cls-2" d="M114.53,31.05a1.86,1.86,0,0,1,1.68.63,4.7,4.7,0,0,1,.56,1.83c.4,1.37,2.25.76,2.07-.57a4.46,4.46,0,0,0-1.44-3.09,3.77,3.77,0,0,0-3.4-.74c-1.3.32-.71,2.12.53,1.94Z"/><path class="cls-2" d="M122.71,37.82c.42.51,1.14.39,1.42,1.1a3.24,3.24,0,0,1-.33,2.15c-.36,1.12,1.23,1.69,1.83.77a4,4,0,0,0,.12-4.17c-.62-1-2.31-1.92-3.16-.72a.73.73,0,0,0,.12.87Z"/><path class="cls-2" d="M124.38,41.94c.52.11,1.14-.23,1.61.06a.9.9,0,0,1,.36.53,1.83,1.83,0,0,0,.36,1,.88.88,0,0,0,1.22,0,1.55,1.55,0,0,0,.19-1.78,2.64,2.64,0,0,0-1.23-1.42c-1-.51-2.82-.37-3,1a.65.65,0,0,0,.47.62Z"/><path class="cls-2" d="M128.58,46.63c1.15.6.89,1.46.89,2.59s1.8,1.44,2,.27c.32-1.67-.3-4.51-2.51-4.39-.76,0-1.18,1.13-.41,1.53Z"/><path class="cls-2" d="M130.83,58.67a4.63,4.63,0,0,1,2.22.23c.63.32.74.8,1,1.39.33.85,1.75,1.08,2,0,.58-2.86-3.2-4.27-5.4-3.5a1,1,0,0,0,.25,1.88Z"/><path class="cls-2" d="M133.3,63.61c.53.41,1.22.51,1.73,1a2.25,2.25,0,0,1,.61,2c-.21,1.34,1.81,2,2.08.57a4.47,4.47,0,0,0-1-3.9c-.81-.9-2.25-1.62-3.42-1.05-.61.29-.43,1.06,0,1.39Z"/><path class="cls-2" d="M135.16,75.61c.64.81,1.37,2.08,1.06,3.16-.19.66-.66,1.44.2,1.9a1.12,1.12,0,0,0,1.32-.17,4.65,4.65,0,0,0-1.42-6.39,1,1,0,0,0-1.16,1.5Z"/><path class="cls-2" d="M135.37,81.8c.54.22.69,2.11.7,2.6,0,.79-.43,1.42-.27,2.22a.82.82,0,0,0,1,.55c3.18-.48,1.13-8.79-1.62-7a.88.88,0,0,0,.21,1.58Z"/><path class="cls-2" d="M132.33,93.67c-.45.66-.16,1.54-.32,2.3-.1.47-.49,1.91-1,2.06a1,1,0,0,0,0,1.92c2.53.75,4.39-5.3,2.41-6.55a.78.78,0,0,0-1,.27Z"/><path class="cls-2" d="M129.62,99.71c-.36.74-.15,1.61-.45,2.4s-1.14,1.33-1.4,2.17a1,1,0,0,0,.92,1.21c1.31-.16,2.06-1.54,2.37-2.72s.37-2.58-.58-3.29a.62.62,0,0,0-.86.23Z"/><path class="cls-2" d="M128.92,102.33a3.81,3.81,0,0,0-2.2,1.4c-.49.67.46,1.59,1.13,1.14.33-.23.6-.5.9-.75s.57-.42.84-.64a.68.68,0,0,0,.11-.83.7.7,0,0,0-.78-.32Z"/><path class="cls-2" d="M121.42,111a4.59,4.59,0,0,1-.78,2.55c-.55.67-1.39.69-2,1.27a1,1,0,0,0,.21,1.63c1.36.6,2.77-.42,3.58-1.5a5.31,5.31,0,0,0,.9-4.21c-.25-1.17-1.81-.75-1.93.26Z"/><path class="cls-2" d="M116.44,115c-.08.9.51,1.66.34,2.6s-.82,1.32-1.35,2-.08,2,1,1.66a4.07,4.07,0,0,0,2.46-3.27c.21-1.28-.08-3.23-1.49-3.68a.73.73,0,0,0-.92.69Z"/><path class="cls-2" d="M108.38,126.23c-.43.21-.67.65-1.1.88a4.3,4.3,0,0,1-1.33.36,1.08,1.08,0,0,0,0,2.06,3,3,0,0,0,2.53-.73,2.23,2.23,0,0,0,1-2.14.74.74,0,0,0-1.07-.43Z"/><path class="cls-2" d="M103.27,125.64c-.48.33-.5.67-.55,1.21a3.27,3.27,0,0,1-.81,2c-.8.93-2.31,1.38-2.67,2.59a.88.88,0,0,0,.83,1.09c1.27.16,2.75-1.38,3.47-2.3a4.6,4.6,0,0,0,1-3.94.94.94,0,0,0-.65-.66,1,1,0,0,0-.65,0Z"/><path class="cls-2" d="M104,126.93c-.88.88-1.29,2.09-2.22,2.94a4.48,4.48,0,0,1-1.58.95,3.61,3.61,0,0,0-1.61.68.8.8,0,0,0,0,1.12c1.22,1.19,3.26,0,4.3-.91a6.84,6.84,0,0,0,2.24-4.31.67.67,0,0,0-1.13-.47Z"/><path class="cls-2" d="M90,132.54c-.9.91-2,1.72-3.19.64-.57-.53-1.08-1.93-2.11-1.27a1.1,1.1,0,0,0-.48,1.19c.66,3.46,6.44,3.87,7.16.24a.83.83,0,0,0-1.38-.8Z"/><path class="cls-2" d="M78.91,133.58c-1.32,1-.47,2.78.65,3.58s3.4,1.57,4.15.1a.83.83,0,0,0-.12-1c-.6-.64-1.6-.43-2.37-.73a2.09,2.09,0,0,1-.82-.52c-.26-.3-.23-.62-.34-1a.79.79,0,0,0-1.15-.47Z"/><path class="cls-2" d="M66.45,132.35c-.38,1.37.7,2.66,1.87,3.22s3.63,1.11,4.28-.27a.83.83,0,0,0,0-.82c-.71-1-1.66-.52-2.7-.67a2.74,2.74,0,0,1-2-1.64.79.79,0,0,0-1.43.18Z"/><path class="cls-2" d="M66.34,136.27a2.34,2.34,0,0,0,1.46-1.08,2.19,2.19,0,0,0,.51-1.82A.86.86,0,0,0,66.9,133c-.34.31-.42.81-.65,1.2s-.5.68-.69,1.05a.7.7,0,0,0,.78,1Z"/><path class="cls-2" d="M60.63,132.12c-1.19.93-.53,2.93.33,3.83a4.7,4.7,0,0,0,4.16,1.32,1.07,1.07,0,0,0,0-2.05c-.8-.22-1.67-.1-2.39-.61s-.6-1.11-.69-1.9a.84.84,0,0,0-1.41-.59Z"/><path class="cls-2" d="M47.13,129c-.08,1.35,1.25,2.15,2.37,2.51,1.31.42,2.93.7,3.93-.47.72-.85-.2-2.3-1.26-1.63s-2.84-.19-3.64-1a.83.83,0,0,0-1.4.58Z"/><path class="cls-2" d="M42.86,124.56c-1,1-.54,2.72.32,3.69a4.46,4.46,0,0,0,4,1.33c1.09-.2,1-1.84,0-2.11a6.28,6.28,0,0,1-2.17-.61,2,2,0,0,1-.73-1.73.82.82,0,0,0-1.39-.57Z"/><path class="cls-2" d="M30.75,114.9a2.57,2.57,0,0,0,.28,3.31,3,3,0,0,0,3.33.75,1.08,1.08,0,0,0-.57-2.09c-.47.08-.88.22-1.28-.14s-.3-1-.38-1.47a.83.83,0,0,0-1.38-.36Z"/><path class="cls-2" d="M27.3,109.67c-.38,1.69-.85,3.9.29,5.37.65.84,1.88-.09,1.67-1a6.79,6.79,0,0,1-.24-2c.05-.72.12-1.42.11-2.14,0-1-1.6-1.3-1.83-.25Z"/><path class="cls-2" d="M18.91,96.23c-1.13,2.14-.67,6.28,2,7.09A1.1,1.1,0,0,0,22,103c.84-1.06-.13-1.47-.77-2.2-1-1.12-.87-2.79-.76-4.17a.85.85,0,0,0-1.58-.43Z"/><path class="cls-2" d="M18.57,90.12c-1.42-.2-2.12,1.57-2.53,2.66a5,5,0,0,0,.21,4.62,1.11,1.11,0,0,0,1.92-1.13,4.4,4.4,0,0,1,.41-4c.21-.41,1-2,0-2.13Z"/><path class="cls-2" d="M14.5,71.84c-1.63.62-2.06,3.54-1.81,5.07.21,1.24,1.59,3.72,3.16,2.67a.86.86,0,0,0,.38-.92c-.09-.51-.41-.7-.75-1A2.25,2.25,0,0,1,14.77,76c0-1.21,1-2.52.59-3.65a.71.71,0,0,0-.86-.48Z"/><path class="cls-2" d="M15.64,64.5c-1.07.52-1.71,2.16-1.88,3.27s0,2.83,1.3,3a.88.88,0,0,0,1-.59c.22-.82-.32-1.58-.17-2.43s.86-1.69.83-2.63a.76.76,0,0,0-1.13-.64Z"/><path class="cls-2" d="M21.37,45.09c-1.87-.1-3.1,2.61-3.67,4-.64,1.63-1.17,4.52,1.32,4.74a.94.94,0,0,0,.8-1.41,1.83,1.83,0,0,1-.28-1.74,10.26,10.26,0,0,1,.68-1.8,7,7,0,0,1,.9-1.44,4.55,4.55,0,0,0,1-1.38.8.8,0,0,0-.76-1Z"/><path class="cls-2" d="M20.93,46.21a1.46,1.46,0,0,0-2.25-.72A5.1,5.1,0,0,0,16.59,48c-.73,1.74-.65,5.31,1.73,5.77.41.08,1-.19.91-.69-.14-1.11-.9-2-.85-3.19,0-.94.69-2.62,1.79-2.66a.8.8,0,0,0,.76-1Z"/><path class="cls-2" d="M22.35,45.8c.85-.57.57-1.81,1.09-2.64s1.69-1,2.07-1.85a.86.86,0,0,0-.3-1.12c-1.36-1-3.3,1-3.87,2.07a4.12,4.12,0,0,0-.46,2.48c.1.6.73,1.55,1.47,1.06Z"/><path class="cls-2" d="M35.6,27.63c-1.29-.92-3,1.11-3.66,2-.89,1.2-1.56,3.18.28,3.87.91.34,1.5-.77,1.15-1.49s1.32-2.82,2-2.95.7-1.1.19-1.46Z"/><path class="cls-2" d="M37.7,26.5c.75-.52,1.41.08,2.12.4a1,1,0,0,0,1.26-.25A1,1,0,0,0,41,25.36c-1.19-1-3.16-1.5-4.36-.22-.65.69.21,1.95,1.06,1.36Z"/><path class="cls-2" d="M40.48,26.26c0-.55.81-1.18,1.2-1.53s1.27-.81,1.37-1.51a.73.73,0,0,0-.5-.88c-1-.33-2.06.82-2.68,1.48s-1.58,1.85-.86,2.84a.79.79,0,0,0,1.47-.4Z"/><path class="cls-2" d="M52.09,20.77A6.26,6.26,0,0,1,54,18.83a.77.77,0,0,1,.83-.09,1,1,0,0,0,1,0,1,1,0,0,0,.35-1.32c-.62-1.45-2.4-1-3.44-.31a4.35,4.35,0,0,0-2.09,3.25c0,.9,1.07,1,1.52.41Z"/><path class="cls-3" d="M149.48,74.21c-.95-.93-2.9,0-3.85.47l-1,.47A8.16,8.16,0,0,0,146,72a10.49,10.49,0,0,0-1.81-7.75l.48.17c.86.34,3.06,1.31,3.88.38,1-1.11-.43-2.75-1.41-3.27a4.58,4.58,0,0,0-2-.51,10.28,10.28,0,0,0,.93-.48c1.15-.66,2.92-2.08,1.59-3.39-1.1-1.1-3.13-.78-4.82-.28a13.51,13.51,0,0,0,2.52-2c.71-.71,1.78-2.6.47-3.36S143,52.17,142,53a18.94,18.94,0,0,0-2.3,2.35,9.32,9.32,0,0,0-1-7.23,7.14,7.14,0,0,0-2.43-2.54c1.52,0,3.64,0,4.54-1.42s-.81-2.86-2.1-3a6.64,6.64,0,0,0-2.52.24c1.51-1.13,3.45-2.89,2.58-4.39-1-1.74-2.75-1.44-4.58-.23a14.3,14.3,0,0,0,.56-1.48c.35-1.16.43-3.24-1.13-3.48-1.2-.18-2.24,1.09-2.76,2.14a10,10,0,0,0-3-6.27,8.89,8.89,0,0,0-3.75-2,11.24,11.24,0,0,0,1.51-.78c.93-.57,2-2.09,1.38-3.21s-2.89-.61-3.91-.22l-.51.23c.08-.13.16-.26.23-.39.55-1,2.17-3.76.78-4.68-1.9-1.28-4.08,1.5-5.09,2.72l-.32.4a18.36,18.36,0,0,0,.39-2.15c.13-1.07-.16-3.18-1.74-2.75-2,.56-2.54,2.63-2.64,4.87a8.28,8.28,0,0,0-.93-1.23,6.61,6.61,0,0,0-4.77-2.3c.7-.45,1.38-.92,2-1.38,1.16-.81,3.91-2.63,3.12-4.41-1.08-2.44-3.57-1-5.95,1.21a3.28,3.28,0,0,0-.29-3.4c-1.86-2.09-4.22,1.06-5,2.48-.14.27-.28.55-.41.83.48-3.65.44-7.73-2.11-7-2,.55-2.23,3.73-2.12,5.34,0,.15,0,.3,0,.45a9.27,9.27,0,0,0-4.62-3.36,10.78,10.78,0,0,0-6.8.18,11.78,11.78,0,0,0,1.69-2.91C88.51,3,88.34.27,86.74,0c-2-.3-3.34,1.11-4.17,3a2.3,2.3,0,0,0-1.44-1.33c-1.92-.63-2.61,1-2.73,3.29C77.92,3.36,77.05.76,75.25.58,73,.37,72.92,2.85,73.42,4.36A13.32,13.32,0,0,0,75.34,8a13.47,13.47,0,0,0-10.4-1.71A9.52,9.52,0,0,0,60.5,8.38a7.41,7.41,0,0,0,.1-3.52c-.31-1.16-1.21-2.94-2.73-2.17-2.27,1.16-2.61,4-2.26,6.9-.15-.37-.3-.74-.48-1.11-.55-1.15-2.19-4.54-4-3.95C49,5.22,49,7.2,49.94,9.46a12.21,12.21,0,0,0-1.58-1.15c-1.5-.9-4.2-1.29-4.74.86-.51,2,2.17,3.8,3.56,4.62.27.16.54.31.82.45a15,15,0,0,0-3.85.7,11,11,0,0,0-5.65,4.28c.57-3.59.42-7.4-2.73-6.62-2.32.57-2.79,3.62-2.66,5.55v0c-.14-.23-.28-.46-.43-.67-.91-1.35-2.72-3.77-4.58-2.67-2.07,1.22-.54,3.94.38,5.41-1.4-.64-3.51-1.39-4.64-.41-1.63,1.42,0,3.79,1.27,4.75a11.62,11.62,0,0,0,3.68,1.53,9,9,0,0,0-7,3.18,13.06,13.06,0,0,0-2.36,6.38,12.07,12.07,0,0,0-.65-2.43c-.47-1.18-2.35-2.58-3.41-1.2-1.3,1.69-.39,4,.36,5.69.26.6.55,1.19.85,1.76-1.56-1.28-3.69-2.75-5.66-2.3-2.5.58-1.24,3.61-.07,4.71a8.71,8.71,0,0,0,1.18,1,3.5,3.5,0,0,0-3.3,1.32c-.8,1.28-.12,2.39,1.18,2.87a3.67,3.67,0,0,0,2.06.06,17.16,17.16,0,0,0-6.09,9,12.07,12.07,0,0,0,1.58,8.71c-2-.94-4.35-1.19-4.42.79A1.86,1.86,0,0,0,4,67c-1.66,0-3.52.4-4,1.69-.57,1.71,2.07,2.67,3.22,3.15a10.69,10.69,0,0,0,2.36.67A5.22,5.22,0,0,0,2,76c-.42,1.6,1.89,1.58,2.8,1.42a19.22,19.22,0,0,0,3.29-.92,12.91,12.91,0,0,0-1.61,11,19.42,19.42,0,0,0,4.59,7.16A6.73,6.73,0,0,0,9,94.47c-1.37.15-3.83.85-4.42,2.3s1.18,2.53,2.53,2.77a4.72,4.72,0,0,0-2,2.7c-.55,2.35,1.72,2.76,3.45,2.4l.1,0c-1,1.32-1.66,3.2-.15,4.28s3.64-1.66,4.39-2.52l.87-1a9.57,9.57,0,0,0,.36,4.36,10.16,10.16,0,0,0,6.3,5.94l.27.09-1.24.42c-1.23.39-4.06,1.37-3.62,3.18.57,2.33,2.46,2.42,4.59,1.68-1.53,1.53-3,3.46-2.43,5.24.8,2.69,3.85,1.41,5.56.1-.76,2.16-.79,4,.87,4.71,2.29,1,3.8-3.12,4.51-6.93A10.45,10.45,0,0,0,32.85,131a10,10,0,0,0,5.9,1.9A12,12,0,0,0,37,134.5c-.83,1-1.76,2.87-.15,3.58a3.24,3.24,0,0,0,2.39,0c-.3.44-.59.87-.87,1.3-.94,1.48-1.54,4.14,1.06,4.16s4.23-2.06,5.2-4.42c.06-.15.11-.3.17-.44-.36,3,.08,5.6,2.9,5.5a.66.66,0,0,0,.63-.48,15.79,15.79,0,0,0,.55-4.1,9.71,9.71,0,0,0,3.46,2.24,11.26,11.26,0,0,0,6.3.67c-.44.57-.86,1.13-1.26,1.64-1.09,1.41-3.14,3.93-1.73,5.73,1.69,2.17,4.4-1,5.25-2.24l.18-.28c-.11.41-.22.81-.32,1.22-.51,2.13.52,3.29,2.64,2.81,1.65-.37,2.54-1.93,3-3.52A4.56,4.56,0,0,0,68,150c1.61,1.16,3.43.56,3.47-1.63a10.82,10.82,0,0,0-1.28-4.74,10.33,10.33,0,0,0,3.31.94,10.85,10.85,0,0,0,5.73-1.1c-.49.75-1,1.52-1.37,2.31-.93,1.82-1.45,4.14.81,5.08,2.69,1.12,3.89-2.15,4.49-5.48.06,2.05.31,4.27,1.48,5.74,1.59,2,3.83-1.17,4-2.62a9.28,9.28,0,0,0-.19-3.11c.22.32.46.65.71,1,1.09,1.32,3.83,2.56,5,.57.88-1.54-1.44-3.5-2.44-4.38a17.43,17.43,0,0,0,7.37.18,10.47,10.47,0,0,0,6.06-3.09,5.24,5.24,0,0,0,.41,1.68c.48,1.06,1.85,2.46,3.07,1.46a3.09,3.09,0,0,0,1-1.46,4,4,0,0,0,1.53,1.07c2.61,1,2.69-1.86,2.08-3.47a14.14,14.14,0,0,0-.78-1.69c1.47,1,3,1.53,4.16.55,1.6-1.33.21-3.4-1.13-4.13l-.52-.27a14.33,14.33,0,0,0,5.07-3,11.72,11.72,0,0,0,3.55-5.56l0,.08c.57,1,1.13,2,1.64,3,.4.79,1.66,2.44,2.48,1a3.51,3.51,0,0,0,.27-2.84c.92.64,1.93,1,2.64.27,1.84-1.94.72-3.87-1.25-5.46a5.64,5.64,0,0,0,4,.1c1.3-.5,2.6-2.34,1.39-3.54-.9-.88-2.58-1-4-.91a11.23,11.23,0,0,0,2.44-1.88,9.08,9.08,0,0,0,2.44-6.72,8.33,8.33,0,0,0,1.92,1.89c1.07.71,3,1,3.86-.17.49-.7.08-1.65-.55-2.52a2.16,2.16,0,0,0,1-.13c1.89-.75.7-3.11-.38-4.24,1.58.09,3.87-.32,4.6-1.92.91-2-1.3-2.37-3.76-2.16a8.24,8.24,0,0,0,2.94-4,9.35,9.35,0,0,0-.1-6.42,3.25,3.25,0,0,0,.44.19c1.49.48,3.36,0,3.76-1.69s-1.47-2.94-2.7-3.56c1.62-.12,2.84-.67,3-1.91a2.3,2.3,0,0,0-2.24-2.88C149.31,77.55,151.28,76,149.48,74.21Zm-4.9-1.57c-.75,2.6-3.51,4.47-5.72,5.73a11.11,11.11,0,0,1-2.55,1,2.46,2.46,0,0,0,.42-1.57,2.89,2.89,0,0,0-1.3-2.41,5.52,5.52,0,0,0,6.08-5.27c0-2.78-2.72-5.15-5.28-3.57v-.25a3,3,0,0,0-2.89-3l.47-.32c.69-.07,1.38-.18,2.07-.27a.19.19,0,0,0,.13,0l2.42-.22a6,6,0,0,1,4.3,1.69C144.87,66.23,145.36,69.91,144.58,72.64ZM75.16,127.3a56.45,56.45,0,0,1-20.52-3.84.65.65,0,0,0-.69-.27c-19.76-8-33.67-26.87-33.67-48.79,0-29.17,24.62-52.9,54.88-52.9S130,45.23,130,74.4a51.14,51.14,0,0,1-7.17,26.13c-.33,0-.51.41-.49.8A55.33,55.33,0,0,1,75.16,127.3Zm45-14.6a2.08,2.08,0,0,1-3.61-.91.68.68,0,0,0-.24-.38q1.62-1.68,3.09-3.48c.17.38.36.78.55,1.21a.55.55,0,0,0,.07.37c.08.16.18.31.28.47A2.82,2.82,0,0,1,120.15,112.7Zm-4.07,4c-.14,1.24-.75,1.89-1.83,1.94-.55-.1-1-1-1.25-1.51s-.62-1.21-.94-1.81c1.12-.94,2.2-1.93,3.24-3C115.48,113.88,116,115.25,116.08,116.74Zm-4.3,4.45a1.83,1.83,0,0,1-.16.6c-.22-.22-.61-.15-1,.07l-.17-.12a1.12,1.12,0,0,1-.05-.13.38.38,0,0,0-.34-.22,19.65,19.65,0,0,1-2.22-2.8c1-.71,2.05-1.46,3-2.24A11.11,11.11,0,0,1,111.78,121.19Zm-10.07,7.11c-.85,2.21-2.91,0-3.5-1.06A30.21,30.21,0,0,1,97,124.46c1.4-.57,2.78-1.2,4.12-1.87C101.63,124.34,102.37,126.58,101.71,128.3Zm-7.2-2.12a.84.84,0,0,0-.06.24,8.2,8.2,0,0,0,.21,2.09,7,7,0,0,1,0,1.94,4.2,4.2,0,0,1-1,1.15,4.41,4.41,0,0,0-.52.28.81.81,0,0,1-.53,0,1.92,1.92,0,0,0-.79-.94c-.56-1.34-.55-3-1.08-4.39,1.34-.38,2.65-.8,3.94-1.27l-.13.16A.86.86,0,0,0,94.51,126.18Zm-6,6.21c-1.81,2.34-2.51-3-2.75-4.66,1.26-.24,2.51-.51,3.74-.82C89.51,128.73,89.6,131,88.51,132.39Zm-10.29-3.77c0,1.55-.06,3.59-.93,4.82-1.12,1.59-2.26-3.19-2.74-4.75h.61C76.18,128.7,77.2,128.67,78.22,128.62Zm-5.57,0c-.34,1.81-.53,5.1-2.51,4.74-1.41-.25-1.62-3.75-1.56-5C69.93,128.48,71.28,128.58,72.65,128.64ZM61.4,127.05a.85.85,0,0,0-.09.22c-.37,1.52-.79,4.59-2.41,4.79-1.27.15-1.55-1-1.45-2.37a17.29,17.29,0,0,0,.86-3.48Q59.84,126.68,61.4,127.05Zm-4.47-1.28a16.88,16.88,0,0,0-.79,3.53,3.59,3.59,0,0,1-.92,1.21c-1.55,1.23-1.38-2.41-1.29-3.19a21.52,21.52,0,0,0,.69-2.37C55.38,125.24,56.15,125.51,56.93,125.77Zm-3.67-1.35a16.38,16.38,0,0,0-.68,2.68,6.63,6.63,0,0,1-.82,1.45c-1.38,1.78-2-1-1.83-2.18a11.33,11.33,0,0,1,.84-2.78.68.68,0,0,0,.07-.23C51.64,123.73,52.44,124.08,53.26,124.42ZM45,120.22c-.1.26-.2.55-.31.88A9.63,9.63,0,0,1,43,124.23a1.94,1.94,0,0,0-.61.27,1.21,1.21,0,0,1-1.7-.43c-.63-1.45.41-4.61.83-6.21C42.61,118.69,43.78,119.48,45,120.22Zm-9.64-3.08a7.35,7.35,0,0,1,1-2.93.78.78,0,0,0,.11-.37l0-.06C37.67,114.9,39,116,40.27,117a17.48,17.48,0,0,1-2.52,3.11c-1.5,1.3-2.31-.75-2.4-2.26a3.8,3.8,0,0,0,.06-.59A.08.08,0,0,0,35.35,117.14Zm-.68-3s-1.93,2.87-2,1.58c-.11-1.47.89-3,1.4-4.28v0c.47.49,1,1,1.45,1.45C35.21,113.3,34.94,113.73,34.67,114.16ZM37.91,33.4a.6.6,0,0,0,.19.17c-.9.76-1.77,1.54-2.61,2.35l0,0A7,7,0,0,1,33.94,32c0-1.29.59-1.71,1.92-1.27a6.24,6.24,0,0,1,.9,1C37.17,32.28,37.51,32.87,37.91,33.4Zm-.43-5.46c.72-1,1.41-1.1,2.06-.22a7.21,7.21,0,0,1,1.09,1.59A17.84,17.84,0,0,1,41.44,31c-.85.62-1.68,1.26-2.5,1.92a.77.77,0,0,0-.07-.36C38.21,31.15,37.23,29.6,37.48,27.94Zm-2.95,8.93c-.94.94-1.84,1.92-2.7,2.92a8.48,8.48,0,0,0-.69-1.11,8.11,8.11,0,0,1-.5-1.34c-.25-.91-.28-4.37,1.59-3.08A20.22,20.22,0,0,1,34.53,36.87Zm-3.65,3.91.07,0c-.74.92-1.46,1.85-2.14,2.81a1,1,0,0,0-.08-.14c-.84-1.28-2.46-3-1.78-4.83s2.16-.38,3.1.82A6.53,6.53,0,0,0,30.88,40.78Zm-3.1,3.86a.67.67,0,0,0,.21.18c-.71,1-1.38,2.11-2,3.21a.71.71,0,0,0-.29-.41c-1.23-.76-2.56-2.13-1.84-3.95C24.73,41.48,27,43.65,27.78,44.64ZM25.13,49.2l.17,0c-.75,1.36-1.43,2.76-2.06,4.2a.69.69,0,0,0-.28-.22c-1.44-.58-4.57-4.63-1.31-5.12C22.83,47.93,24.08,48.67,25.13,49.2Zm-4.86,5.57a2.75,2.75,0,0,1,2.14.72c-.57,1.45-1.06,2.93-1.5,4.44a12,12,0,0,1-2.54-2C16.94,56.39,19.15,54.93,20.27,54.77Zm.23,6.7Q20,63.23,19.72,65a6.45,6.45,0,0,1-.67-.16.26.26,0,0,0-.14-.1l0,0c0-.2-.1-.38-.38-.43l-.36-.06a7.68,7.68,0,0,1-1.1-.59,2,2,0,0,1-.41-1C16.39,60.45,19.4,61,20.5,61.47Zm-3.45,5.67a7.14,7.14,0,0,1,2.4-.44q-.27,1.86-.42,3.75a11.22,11.22,0,0,1-1.71-.26A1.63,1.63,0,0,1,17.05,67.14Zm1.87,5.32c0,.64,0,1.29,0,1.94,0,.94,0,1.88.08,2.82-1.25-.37-3.65-.26-3.27-2.81C16,72.56,17.74,72.74,18.92,72.46ZM19.08,79c.11,1.18.25,2.34.42,3.49l-.11,0c-.92.31-3.31,1.53-3.82-.16S18.16,79.38,19.08,79Zm-1.57,8.27a5.12,5.12,0,0,1,2.29-3.06c.3,1.61.69,3.21,1.14,4.77C19.64,89.2,17.05,90,17.51,87.24Zm1.95,5a8,8,0,0,1,1.95-1.61h0c.35,1.07.73,2.12,1.15,3.17a.43.43,0,0,0-.38.22l-.21.32c-.1-.2-.4.2-.75.41a5.88,5.88,0,0,1-2.12.82C17.14,95.81,19,92.72,19.46,92.21Zm2.32,4.87a13.6,13.6,0,0,1,.89-1.42,2.15,2.15,0,0,0,.45-.59c.51,1.17,1.05,2.33,1.63,3.46a11.55,11.55,0,0,1-2.24,1.32c-.76.4-1.21-.06-1.32-1.4A5.79,5.79,0,0,1,21.78,97.08Zm3.75,2.9c.51.92,1,1.82,1.61,2.71-.76.83-3.14,3.44-3.36,1.08C23.67,102.49,24.7,101,25.53,100ZM46.8,23.14a2.31,2.31,0,0,1,.29-.71C48,21,49.2,21.8,50.16,23a1,1,0,0,0,.33.43c.44.6.81,1.23,1.1,1.67q-2.22,1-4.34,2.16a28.47,28.47,0,0,1-.54-3.14C46.73,23.79,46.76,23.46,46.8,23.14Zm-4,1.92C44,25,45.26,26.85,46,28c-1.24.73-2.45,1.5-3.62,2.32C41.79,28.68,40.67,25.27,42.82,25.06Zm16.86-7.54c.9-.8,1.66-.21,2.24.77a2.89,2.89,0,0,0,.29.9.23.23,0,0,0,.2.11,16.2,16.2,0,0,1,.68,2.06q-2.12.45-4.17,1.05C58.92,20.79,58.44,18.61,59.68,17.52Zm4.71,3.58c.12-1.57.13-3.34,1-4.62a2.5,2.5,0,0,1,.18-.24l.24-.15.31-.24c1.18-.25,2.08,3.14,2.39,4.63C67.11,20.64,65.74,20.85,64.39,21.1Zm5.52-.76a12.29,12.29,0,0,1,.71-4.16c1-2.17,2.17.19,2.42,1.4a21.6,21.6,0,0,1,.27,2.55C72.16,20.17,71,20.24,69.91,20.34Zm10.34,0a.5.5,0,0,0,.14-.28c.31-1.68,1.42-3.76,3-4s1.56,3.4,1.37,4.83C83.26,20.64,81.77,20.46,80.25,20.32Zm5.77.8a14.19,14.19,0,0,1,1-2.28,3,3,0,0,0,1.16-1,3.28,3.28,0,0,0,.11-.53l.18-.11c.44-.18.89,0,1.31.68.59,1,.12,3,0,4.1C88.5,21.63,87.27,21.36,86,21.12Zm7.79,2.05c-1-.34-2-.64-3-.93l0-.26c.69-1.12.91-2.57,2-3.31,2.23-1.49,1.34,3.14,1,4.23A.62.62,0,0,0,93.81,23.17Zm4.5.88c0,.32-.06.6-.09.82-1.14-.49-2.3-.95-3.47-1.38.67-.91,1.41-1.94,2.49-2.1.87-.13,1.09.85,1.1,1.87,0,.06-.07.12-.1.19A.49.49,0,0,0,98.31,24.05Zm.89,1.26a4.15,4.15,0,0,1,1.4-2.41c1.12-1,2.93-.51,2.66,1.46a15.2,15.2,0,0,1-.72,2.62C101.45,26.39,100.34,25.83,99.2,25.31Zm4.33,2.21a7,7,0,0,1,2.81-2.73c2-.82.47,3.43.07,4.47Q105,28.36,103.53,27.52Zm4,2.49c.9-1.06,1.79-2,3.14-2.17,1.92-.2.7,3.43.3,4.71C109.87,31.67,108.72,30.82,107.54,30Zm4.56,3.46a3.81,3.81,0,0,1,1.33-1.73c1.58-1.15,2.71,1,2.09,2.65-.2.55-.44,1.06-.62,1.6C114,35.12,113.06,34.28,112.1,33.47Zm19.17,36.8c1.53-.25,5-.44,4.76,2.11-.18,1.62-2.26,2.05-3.85,2.16h-.75V74.4C131.43,73,131.38,71.64,131.27,70.27Zm-.12-1.38c-.15-1.36-.34-2.72-.59-4,1.7-.43,4.38-.89,4.57,1.88C135.22,68.09,132.43,68.56,131.15,68.89Zm-.88-5.51c-.26-1.19-.55-2.36-.89-3.52a3.81,3.81,0,0,1,2.72-.61c1.06.2,1.71.81.91,1.88A9.4,9.4,0,0,1,130.27,63.38Zm-1.38-14.06a10.42,10.42,0,0,1-2.28,3.1c-.59-1.29-1.23-2.56-1.93-3.79h0C125.87,48,130.46,45.54,128.89,49.32Zm1.17,4c.81.15,1.1.55,1.1,1.06a8.15,8.15,0,0,1-.2.82,13.5,13.5,0,0,1-2.09,3q-.72-2.23-1.64-4.38A5,5,0,0,1,130.06,53.34Zm-6-5.74c-.69-1.17-1.42-2.31-2.2-3.42a7.88,7.88,0,0,1,3.6-1.6C127.71,42.47,124.53,47.09,124.09,47.6Zm-1.82-5.72c-.38.42-.77.82-1.11,1.27-.63-.85-1.28-1.69-2-2.51a6.44,6.44,0,0,1,3.71-1.83C125,38.69,122.47,41.65,122.27,41.88Zm-2-5.41a16.49,16.49,0,0,1-1.9,3.19c-.76-.87-1.54-1.72-2.35-2.54a15.21,15.21,0,0,1,1.65-1.57C118.5,34.89,121.2,34,120.28,36.47Zm2.58,66.71c.23.21.5.39.73.59a4,4,0,0,1,1.21,2.12,2.64,2.64,0,0,1,0,1.22c-1.25.58-3.4.41-4.11-.71l0-.05C121.41,105.32,122.15,104.26,122.86,103.18Zm1.27-2.06c.64-1.08,1.24-2.18,1.8-3.31a6.57,6.57,0,0,1,.93.74.61.61,0,0,0,.17.34c.2.2.4.38.61.56.67,1,1.29,2.58-.76,2.7A5.37,5.37,0,0,1,124.13,101.12Zm2.47-4.71c.59-1.28,1.13-2.6,1.62-3.93,1.38.85,4.52,3.24,2.14,4.25A5.21,5.21,0,0,1,126.6,96.41ZM130.49,91a16.3,16.3,0,0,1-1.71-.07c.43-1.29.81-2.61,1.13-3.94.68.34,1.38.64,2,1-.2.27-.23.51.05.63a3.42,3.42,0,0,1,1.37,1.33C132.9,90.71,130.88,91,130.49,91Zm2.18-5.33a23.77,23.77,0,0,1-2.4-.19c.28-1.34.52-2.7.7-4.08A7.7,7.7,0,0,1,135,83.3C136.59,85,133.44,85.63,132.67,85.63Zm-1.51-5.86c.13-1.32.22-2.64.26-4l.41,0c1.61,0,4.06.35,3.8,2.27C135.43,79.59,132.75,79.59,131.16,79.77ZM145.8,62.16a2.36,2.36,0,0,1,1.89,1.6c.16.45-.52.22-.83.15a17.19,17.19,0,0,1-3.45-1.26,4.13,4.13,0,0,0-1.58-.55l-.11-.06.55-.11A14.78,14.78,0,0,1,145.8,62.16ZM145,57.55a4.68,4.68,0,0,1,1.18.06c1.93.32.28,1.38-.2,1.72a9.32,9.32,0,0,1-2.71,1.22,45.22,45.22,0,0,1-4.53.88,22.17,22.17,0,0,0-3.48.38c.23-.21.45-.42.66-.65C138.68,59.45,141.65,57.84,145,57.55Zm-1.58-4.17c.37-.31,2.44-1.53,1.74,0a6.15,6.15,0,0,1-1.8,1.9,30.94,30.94,0,0,0-3,2.49q-.72.28-1.47.63C140.46,56.83,141.72,54.76,143.38,53.38Zm-5.53-4.07c1.56,2.79.93,5.77-.78,8.27a14.8,14.8,0,0,1-2.54,2.65,2.69,2.69,0,0,0,0-.49c-.14-1.21-1.75-1.64-2.51-1.78a3.43,3.43,0,0,0-1.58.13c.18-.22.37-.45.54-.69a4,4,0,0,0,1.29-.58c1.7-1.44,3.93-4,3.44-6.37s-4.07-2.75-5.71-1.27a4.44,4.44,0,0,0,.11-1.67,1.65,1.65,0,0,0-1-1.48,8.18,8.18,0,0,1,2.72-.55A6.89,6.89,0,0,1,137.85,49.31Zm-.82-7c.94-.21,2.48-.42,2.89.73.28.8-.6,1.09-1.19,1.25a14,14,0,0,1-4.7.13c-.58,0-1.3-.19-2-.19.35-.21.68-.43,1-.66A24.5,24.5,0,0,1,137,42.28Zm-1.6-5c.77-.46,3-.93,2.53.71-.56,2-3.88,3.62-5.54,4.6a29.11,29.11,0,0,0-3.88,2.27,4.46,4.46,0,0,0-.5.22,22.52,22.52,0,0,1,4.25-5.3A16.05,16.05,0,0,1,135.43,37.32Zm-4.65.08a.25.25,0,0,1,0-.08,10.75,10.75,0,0,1,1.27-3.59c.64-1,1.88-1.37,1.93.15a6.06,6.06,0,0,1-.88,2.77c-.38.75-.91,1.43-1.36,2.14-.61.61-1.19,1.27-1.73,1.93A26.23,26.23,0,0,0,130.78,37.4ZM125.46,22c1.61,0-.32,1.87-.4,1.93a7.16,7.16,0,0,1-1.77.83c-.52.18-1.09.31-1.62.51a12.61,12.61,0,0,0-2.13.09,17.11,17.11,0,0,0,1.82-2A8.81,8.81,0,0,1,125.46,22Zm-9.78-4a3,3,0,0,1,1.22-2c.68-.5.1,3.25.13,3.16-.43,1.72-1.2,3.34-1.65,5C115.55,22.2,115.27,20.09,115.68,18Zm6-.32c1.33-1,1.33.49,1,1.33a11,11,0,0,1-1.15,2.2c-1.29,2.09-3.41,3.36-5.1,5a8.58,8.58,0,0,0-1.51.92C117.14,24,118.37,20.11,121.66,17.72ZM119,26.52a8.08,8.08,0,0,1,1.62-.28.3.3,0,0,0,.2.1,5.54,5.54,0,0,0,1.21-.07,9.35,9.35,0,0,1,5.44,2.54c2.56,2.41,2.62,6.33,2,9.53a14.62,14.62,0,0,1-2.24,5.11,3,3,0,0,0-.42-1.36c-.61-1-1.72-.86-2.84-.44.79-1.08,1.29-2.27.48-3.23a3.19,3.19,0,0,0-.26-.26l.2-.14a4.48,4.48,0,0,0-.26-7.5c-2.27-1.29-5.43.57-7.21,2.67a3,3,0,0,0-.8-2.24,2,2,0,0,0-2.54-.38l0-.05A9.64,9.64,0,0,1,119,26.52Zm-5.78-6c1.18,1.83.8,4.27.28,6.25a14,14,0,0,1-.8,2.09,2.78,2.78,0,0,0-1-1.81,2.17,2.17,0,0,0-2.29,0c1.38-1.59,3.3-5.39,1.06-6.93-1.38-.95-3.17-.44-4.53.3a9.13,9.13,0,0,0-2.21,1.88,2,2,0,0,0-.56-.53,2.32,2.32,0,0,0-2.45.11C104.06,18.09,109.66,15,113.23,20.54Zm-2.9-9.71c.52-.32,2.59-.95,2.22.37-.46,1.64-3.16,3-4.48,3.78a26.47,26.47,0,0,0-3.22,2q-.27.12-.54.27c.47-.64.92-1.29,1.35-2l.43-.66c.39-.42.78-.84,1.18-1.25A16.48,16.48,0,0,1,110.33,10.83Zm-8,2.83A17.14,17.14,0,0,1,104,10.12c.53-.83,2.71-2.49,2.89-.48.15,1.77-1.28,3.83-2.49,5.44-.91,1.07-1.61,2-1.92,2.29a.41.41,0,0,0-.1.18c-.56.61-1.15,1.21-1.65,1.85A30.71,30.71,0,0,1,102.31,13.66Zm-3.4-6.21A1.53,1.53,0,0,1,100.75,6a5.36,5.36,0,0,1,.51,1.85,12.89,12.89,0,0,1-.32,3.71,17.91,17.91,0,0,0-.62,4.86c0,.18-.08.35-.11.53a22.47,22.47,0,0,0-.84-3.65A12.6,12.6,0,0,1,98.91,7.45Zm-16.34.37c.1-.55.23-1.23.29-1.93a10.5,10.5,0,0,1,2.31-4.11c1.15-1.12,1.7.18,1.72,1.13a4.47,4.47,0,0,1-1,2.58c-.77,1.17-1.86,2.08-2.66,3.21a6.9,6.9,0,0,0-1,.9C82.4,8.85,82.5,8.2,82.57,7.82Zm1.4,2c2.41-2.2,6.45-2.5,9.42-1.55,2.79.9,4.32,3.7,5.08,6.34a20.37,20.37,0,0,1,.36,6.45,2.3,2.3,0,0,0-.75-.77c-.92-.57-1.91-.06-2.75.7.19-1.51.09-3.18-1-3.65a2.13,2.13,0,0,0-.81-.18l0-.05a3.5,3.5,0,0,0-3.38-5.33,5.36,5.36,0,0,0-4.61,4.66,3.17,3.17,0,0,0-1.66-1.75c-1-.41-2.08.25-2.92,1.27C81.59,13.74,82.17,11.5,84,9.85ZM81.21,3.31a3.83,3.83,0,0,1,.41,2.74c-.14.62-.26,1.22-.35,1.79-.25,1-.55,1.87-.72,2.48-.1.35-.3.85-.5,1.39-.07-1-.17-2-.23-3s-.13-2.15-.1-3.23C79.73,5.08,80.11,1.87,81.21,3.31ZM79.22,20a1.05,1.05,0,0,0,.06.21c-1.36-.1-2.73-.15-4.12-.15h-.34c.18-1.86,1.41-6.11,3.28-4C78.89,17,79.08,18.81,79.22,20ZM74.51,3.67c-.27-.8,0-2.55,1.1-1.53C77,3.37,77.37,5.91,77.77,7.59c.18.78.26,1.8.45,2.74-.76-1.24-1.55-2.46-2.3-3.71A14.54,14.54,0,0,1,74.51,3.67ZM64,7.87a12.41,12.41,0,0,1,10.13.8A9.15,9.15,0,0,1,78,13.39a7.94,7.94,0,0,1,.37,1.35,2.36,2.36,0,0,0-1.08-.44c-1.64-.22-2.6,1.64-3,3.53-.25-1.58-.74-3.12-1.9-3.56a.84.84,0,0,0,.1-.32c.24-3.52-3.82-3.69-6.31-2.91a6,6,0,0,0-3.6,2.89A8.72,8.72,0,0,0,62,16.32a1.87,1.87,0,0,0-1.88-.43,3,3,0,0,0-1.74,1.47C58.45,13.3,59.41,9.48,64,7.87Zm-6.92-1.8a4.13,4.13,0,0,1,.94-2c1.14-.16,1.62.4,1.44,1.67a6.81,6.81,0,0,1-.2,2c-.25,1.28-.82,2.45-1.1,3.7a10.54,10.54,0,0,0-.73,1.81C57.11,10.83,56.65,8.45,57.07,6.07ZM57.13,23c-1.43.46-2.83,1-4.2,1.56-.21-1.78-.59-4.33,1.15-5.13C55.53,18.71,56.48,21.47,57.13,23ZM52.21,6.28a11.51,11.51,0,0,1,2.37,4.17c.65,1.75.85,3.92,1.55,5.74-1-1.5-2.35-2.86-3.3-4.22a20.09,20.09,0,0,1-1.37-2.38,9.5,9.5,0,0,1-.68-1.94C50.55,6.7,51.25,5.38,52.21,6.28ZM46.36,11.6A5.71,5.71,0,0,1,45.7,11a1.15,1.15,0,0,1,1.17-2,7.06,7.06,0,0,1,2.89,2A36.19,36.19,0,0,0,53,14.48c.25.33.5.64.74.94C51.38,14,48.54,13.34,46.36,11.6ZM42.9,16.73a11.87,11.87,0,0,1,8.46-1l.47.13,1,.35a7,7,0,0,1,2.25,1.62,2.59,2.59,0,0,0-1.33,0A2.52,2.52,0,0,0,52,19.37a3.69,3.69,0,0,0-1-.89c-1.56-.94-3.74-.6-5.36-.05a6.94,6.94,0,0,0-4.07,3.3,3.35,3.35,0,0,0-.18,2.37l.09.19a3.48,3.48,0,0,0-1,2.61c-.84-1-1.86-1.63-3-.88a1.81,1.81,0,0,0-.21.18,14.77,14.77,0,0,1,.58-3.39A10.82,10.82,0,0,1,42.9,16.73Zm-8.48-.58c.18-1.22,2-3.6,2.77-1.55a6.57,6.57,0,0,1,.32,2.33c0,2.34-1.06,4.55-1.08,6.84-.14.53-.25,1.07-.34,1.61C35.84,22.31,33.94,19.35,34.42,16.15Zm-6,.61c-.22-2.38,2.39.21,2.56.41a12.56,12.56,0,0,1,1.47,2.22,32.7,32.7,0,0,1,1.93,5.86,18.75,18.75,0,0,0-2.83-3.07C30.36,20.65,28.57,18.72,28.38,16.76Zm-1.66,7.16c-.62-.29-3.52-2.93-1.6-3.17,1.38-.18,3.06.73,4.22,1.4a6.22,6.22,0,0,1,.65.45,28.8,28.8,0,0,0,3.42,4.25l-.5-.17A13.33,13.33,0,0,0,29.66,25,25.89,25.89,0,0,1,26.72,23.92Zm-4.51,7.15c2.26-4.43,8.92-4.7,12.7-1.88a2.39,2.39,0,0,0-1.46.75,2.15,2.15,0,0,0-.55.87c-1-.79-3.16-.82-4.24-.74A5.83,5.83,0,0,0,24,33.45a9.28,9.28,0,0,0-.47,6.48,3.25,3.25,0,0,0,.81,1.34,2.47,2.47,0,0,0-1.53,1.3,4.28,4.28,0,0,0-.53,2.51,11,11,0,0,1-1.64-4.82A15.94,15.94,0,0,1,22.21,31.07ZM15.9,34.49c-.05-.67.24-3.25,1.73-1.19a7.11,7.11,0,0,1,.82,3.13c.18,1.47.15,2.94.45,4.39a.23.23,0,0,0,.18.16,5.81,5.81,0,0,0,0,.59c-.44-.72-.83-1.47-1.21-2.14A13.46,13.46,0,0,1,15.9,34.49Zm-5.32,5.18c-.52-1.43,1.17-1.52,2-1.28,3.15.92,5.77,4.07,7.64,6.77a31.26,31.26,0,0,0-3.6-1.41,6,6,0,0,0-.71-.26,16.81,16.81,0,0,1-2.16-1C12.53,41.89,11.07,41,10.58,39.67Zm-.32,6.26c-1.36-.28-.37-1.38.27-1.74.91-.51,2.47-.26,3.56-.08.44.22.89.43,1.35.62a5.43,5.43,0,0,0-2.46.7A4.39,4.39,0,0,1,10.26,45.93ZM7,57.4c.19-3.14,2.53-6.17,4.67-8.29,2.63-2.59,6.11-3.79,9.52-2.45a3.07,3.07,0,0,0-2,1.77,3.74,3.74,0,0,0,.42,3.7h-.4c-2.27-2.12-7.49,1.25-8.48,3.47-2.2,4.94.6,8.92,5.09,10.71a2.79,2.79,0,0,0-.89,2.15,4,4,0,0,0,.22,1.43,8.25,8.25,0,0,1-1.39-.56,12.7,12.7,0,0,1-3.59-3A12.51,12.51,0,0,1,7,57.4Zm-.41,8.18c.93.41,1.72,1.29,2.64,1.73.13.17.28.33.43.5-.66-.18-1.33-.32-2-.44-.45-.18-.91-.36-1.36-.57a8.56,8.56,0,0,1-1.71-1C3.56,65,6.2,65.42,6.56,65.58Zm-1,5.81c-.72-.13-5.81-1.68-3.93-2.79a6.73,6.73,0,0,1,3.9-.77c.45.2.86.36,1.13.47,1.22.5,2.46.91,3.69,1.38a8.73,8.73,0,0,0,2.83,1,8.32,8.32,0,0,0,2.06.87c-.37.09-.72.2-1.07.32a.45.45,0,0,0-.38-.27C11.06,71.31,8.23,71.91,5.53,71.39Zm1.55,3.87c-.83.35-4.91,1.95-3.12-.2,1.13-1.34,3.09-1.91,5.17-2.2a17.19,17.19,0,0,0,2.87,0c-.19.11-.37.24-.55.36C9.94,73.72,8.55,74.64,7.08,75.26ZM7.7,86.67A10.72,10.72,0,0,1,9.42,76.8a15.34,15.34,0,0,1,5.78-4.16,4.14,4.14,0,0,0-.86,1.93,2.78,2.78,0,0,0,1,3A6,6,0,0,0,14,78a9.4,9.4,0,0,0-2.73,2,6.43,6.43,0,0,0-1.57,6.08c1,3.34,5.22,6.54,8.75,5.47-1.14,1.28-1.85,3-1,4.56a6.7,6.7,0,0,1-5-2A16.94,16.94,0,0,1,7.7,86.67Zm-1.89,11c-.73-.57,1.92-1.61,2-1.65a5.18,5.18,0,0,1,3.21-.07,14.34,14.34,0,0,1,2.51,1.13c-1,.26-1.93.55-2.53.72s-1.19.37-1.8.62A4.39,4.39,0,0,1,5.81,97.64Zm2.38,5.67c-1.8.62-2.39-.69-1.21-2.07a6.83,6.83,0,0,1,2.65-1.77c1.82-.29,3.58-1,5.39-1.3.53,0,1.09-.08,1.62-.15-2.24,1-4.13,2.91-6.15,4.24A10.18,10.18,0,0,1,8.19,103.31Zm5,.45c-.94,1.29-2.25,3.32-3.79,4-.73.3-.4-1.47-.27-1.74a7.58,7.58,0,0,1,2.11-2.45l.89-.57c1.16-.79,2.42-1.6,3.59-2.5l-.26.43A24.15,24.15,0,0,0,13.14,103.76Zm6.39,16.41c-.81.19-3.42-.28-2.3-1.56s3.52-1.6,5.05-2c.55-.13,1.21-.2,1.87-.33a17.22,17.22,0,0,0,1.9,0,32.47,32.47,0,0,0-3.15,2.57l-.12.06A14.12,14.12,0,0,1,19.53,120.17Zm7.93,3c-.31,1.48-.83,6-2.48,6.69-1,.38-.34-2.51-.27-2.76a20.12,20.12,0,0,1,1.55-3.79c.59-.85,1.15-1.76,1.67-2.69C27.73,121.44,27.63,122.35,27.46,123.13Zm-2-1.56a19.87,19.87,0,0,1-2.65,3.71c-.73.78-3.22,2.35-3.78.51-.61-2,3.41-5.11,4.64-6.18l.53-.45c1.43-.89,2.66-1.79,3.28-2.21a.3.3,0,0,0,.15-.3c.37-.22.75-.43,1.13-.61C27.26,117.36,26.36,120,25.46,121.57ZM28.69,114c-1.83,0-3.72.63-5.56.56a8.9,8.9,0,0,1-7.43-4.8c-2.41-4.41,1-9.6,4.57-12.63a3.46,3.46,0,0,0,.05,3.57,2.21,2.21,0,0,0,.5.51c-2.06,1.46-3.21,4.49-2.24,6.71a5.27,5.27,0,0,0,3,2.89,5,5,0,0,0,4.77-.3,1.77,1.77,0,0,0,2.39,0A5.61,5.61,0,0,0,28.69,114Zm.22-5.57a1.36,1.36,0,0,1-.68.16c-.46,0-.75-.46-.92-.83a4.47,4.47,0,0,1-.37-1.61A9.73,9.73,0,0,1,28,104c.7,1,1.43,2,2.2,3C30,107.25,29.48,107.9,28.91,108.45Zm2.22-.28c.64.79,1.31,1.55,2,2.3a.84.84,0,0,0-.19.22c-.4.67-3,4.55-3.1,1.92A9.52,9.52,0,0,1,31.13,108.17Zm6.08,28.26a4.7,4.7,0,0,1,1.52-2,14.73,14.73,0,0,1,2.74-1.77l.39-.06A11.84,11.84,0,0,0,44,132c-.39.47-.74,1-1.1,1.45-.7.77-1.36,1.57-2,2.39a6.55,6.55,0,0,1-1.19.88C39.23,137,36.89,137.63,37.21,136.43Zm7.64-2.17c-.69,2.37-1.3,5.06-2.9,7-.6.72-3.63,2-3.2,0a8.24,8.24,0,0,1,1.53-2.74l1.37-2,.14-.13a21.94,21.94,0,0,0,2.79-3.76c.36-.44.73-.87,1.12-1.27A19.69,19.69,0,0,0,44.85,134.26ZM42,131a10.52,10.52,0,0,1-8-.91c-2.76-1.54-3.72-4.85-3.95-7.78a17.85,17.85,0,0,1,1.26-7,2.55,2.55,0,0,0,.64,2.15c.74.75,1.5.5,2.18-.15,0,.2,0,.4,0,.6-2.46,2.61-1.66,6.72,1,9,2.27,1.88,7,1.88,9-.52a2.35,2.35,0,0,0,1.06,1.32,2.75,2.75,0,0,0,1.41.38c-.22.26-.45.53-.7.78A9.54,9.54,0,0,1,42,131Zm5.19,11.8c-2.34-.53-1.13-6.44-.38-9.66a11.88,11.88,0,0,0,.13,2.55,5.7,5.7,0,0,0,.17.74A42.25,42.25,0,0,1,47.19,142.82Zm.08-16.41c-2,1.5-2-2-1.86-3a13,13,0,0,1,.73-2.56c1.14.67,2.3,1.3,3.5,1.89h0A9.12,9.12,0,0,1,47.27,126.41Zm5.09,13.71c-5.28-2.4-3.41-6.72-3.59-11A2.14,2.14,0,0,0,50,130.4a2.18,2.18,0,0,0,2.33-.43,5.5,5.5,0,0,0-.81,3.74,11.49,11.49,0,0,0-.1,1.38c0,1.65,2.05,2.25,3.3,2.52,3,.66,5.45-2,6.73-4.52.39,1.51,1.17,2.7,2.64,2.88a2.88,2.88,0,0,0,.41,0c-.21.37-.4.76-.63,1.15a6.81,6.81,0,0,1-1,1.29l-.05,0a9.47,9.47,0,0,0-2.27,1.79C58.05,141.67,54.93,141.28,52.36,140.12Zm6.87,7.9c-.48.57-3,2.11-2.66.28.35-2.09,2.51-4.1,3.83-5.61.35-.39.79-.8,1.22-1.23a10.86,10.86,0,0,0,1.76-1.26q-.42,1.11-.81,2.25c-.33.67-.67,1.33-1,2A19.76,19.76,0,0,1,59.23,148Zm6.36-10.14a8.39,8.39,0,0,0-.29,4,17,17,0,0,1-.56,6.28,5.32,5.32,0,0,1-.5,1c-.15.25-2.33,2.27-2.37.4a7.68,7.68,0,0,1,.67-2.6c1-2.75,1.5-5.68,2.43-8.47a8.62,8.62,0,0,0,.59-.94c0,.11,0,.23,0,.34Zm.83-5.8c-.09.24-.18.48-.26.72a3.54,3.54,0,0,1-1,1.43c-1.59,1.22-2.48-1.77-2.62-3a18.5,18.5,0,0,1,.09-3.72.38.38,0,0,0,0-.15c1.54.34,3.11.62,4.7.83-.28,1.14-.45,2.59-.84,3.85Zm2.06,16.66a5.48,5.48,0,0,1-1.21-2.56,14.16,14.16,0,0,1-.37-1.69,21.57,21.57,0,0,0,0-3.5l.08.1c.76,1.79,1.85,3.46,2.58,5.26A5.59,5.59,0,0,1,70,147.9C70.14,148.71,69.64,149,68.48,148.74Zm13.68-4.35c-.29,1.43-.87,5.24-2.8,5.34-2.69.15.42-4.73.92-5.48a17.14,17.14,0,0,0,2.14-3.09l.28-.32C82.53,142,82.39,143.21,82.16,144.39Zm-1.64-3.53a8.68,8.68,0,0,1-6.39,2.19c-5.16-.18-7.81-4.38-7.13-8.92a10,10,0,0,0,.72-1.95c.41,1.35,1.13,2.48,2.27,2.75a4,4,0,0,0,5.38,4.37,6.94,6.94,0,0,0,4.53-4.57c.65,1.2,1.56,2,2.86,1.67l.13,0A8.94,8.94,0,0,1,80.52,140.86Zm3.2-7.66a.38.38,0,0,0-.09.15c0,.13-.07.26-.1.39a2.44,2.44,0,0,1-.1.24c-1,2.3-2.58-.51-3-1.73h0c0-.05,0-.09,0-.14a.29.29,0,0,0-.12-.23c-.32-1.08-.51-2.22-.73-3.34,1.58-.12,3.13-.31,4.67-.55A31,31,0,0,1,83.72,133.2Zm2.07,17.17c-.63.06-.93-1.93-1-2.32a43,43,0,0,1-.46-7.61c0-.68.1-1.63.07-2.51a.24.24,0,0,1,0-.08,11.48,11.48,0,0,0,.89,2.75A35,35,0,0,1,87,145.85C87.29,147,87.67,150.19,85.79,150.37Zm7-4.54c.49.84-.71,1-1.34.93-1.19-.19-2.13-1.61-2.76-2.51a21.84,21.84,0,0,1-1.24-2c-.18-.5-.36-1-.56-1.55C88.79,142.43,91.4,143.5,92.78,145.83Zm12.63-10.06c-.64,3.15-3.35,4.6-6.21,5.31a14.66,14.66,0,0,1-9.29-.72c-2.39-1.05-5-3.88-4.85-6.73a9,9,0,0,0,.21-1.06v0c.48,1.25,1.25,2.14,2.62,1.89a2.79,2.79,0,0,0,2-1.6c.16,1.33,1.45,2.86,2.21,3.68a4.7,4.7,0,0,0,4.92,1.42,6,6,0,0,0,3.37-3.09,5.33,5.33,0,0,0,.28-4,3,3,0,0,0,.9-.35c1.36-.77,1.77-2.22,1.74-3.81a5.87,5.87,0,0,0,.64.75C105.19,130.2,106,132.68,105.41,135.77Zm-1.57-11.09c-.51-.9-.88-1.9-1.34-2.84,1.36-.73,2.69-1.52,4-2.35.39,1.91,1.66,4.38.94,6.21C106.57,127.88,104.43,125.75,103.84,124.68Zm4.66,16.25c-.09.77-.56,1-1.43.8a2.66,2.66,0,0,1-.64-1.34,7.93,7.93,0,0,1,.11-2.95c.09-.21.17-.42.25-.64a8.88,8.88,0,0,0,.41-1.8c.08.22.14.39.17.5a39.31,39.31,0,0,0,1.17,4.18A5.79,5.79,0,0,1,108.5,140.93Zm1.72-.91a6,6,0,0,1-.59-1.16,14.69,14.69,0,0,0-.85-3,12.6,12.6,0,0,0-.35-1.24l0,0a17,17,0,0,1,2.37,2.84,15.06,15.06,0,0,1,1.14,2.27C112.64,141.49,111.08,141.31,110.22,140Zm5.46-3.12c-.48,1-3.16-.86-5.21-2.44a15.72,15.72,0,0,0-3.25-3,.28.28,0,0,1,0-.09,9.45,9.45,0,0,0,1.74,1.29C110,134.32,117.08,134.09,115.68,136.9Zm4.21-8.58c-1.86,2.23-4.69,4.1-7.67,4-2.38-.05-4-1.79-5.58-3.42a4.84,4.84,0,0,0-.28-.66,3.36,3.36,0,0,0,.93-.35,3,3,0,0,0,.72-.52,4.94,4.94,0,0,0,3.71,1.6,6.86,6.86,0,0,0,5.06-2.41c1.78-2.06,1.8-5.5-.48-7,1.38-1.15,1.07-3.12.69-5l.1,0c.6,1.84,2.47,2.91,3.73,4.28C123.45,121.74,122.05,125.73,119.89,128.32Zm6.38-.75c-.29-.49-.51-1-.77-1.5-.38-.74-.81-1.46-1.21-2.19-.2-.37-.36-.75-.54-1.11a6.87,6.87,0,0,0-.08-1c.76.85,1.51,1.7,2.3,2.52.08.07.16.16.26.26a6.35,6.35,0,0,1,.82,2.76C127.07,128,126.63,128.18,126.27,127.57Zm3.68-4.2c.45.76.33,2.58-.88,2a8,8,0,0,1-2.23-1.79,7.11,7.11,0,0,0-2.17-2.58,11.77,11.77,0,0,0-2.43-2.63.08.08,0,0,0,0,0l.52.08a30,30,0,0,1,4.64,2.5A8.42,8.42,0,0,1,130,123.37Zm2.06-5.52a4.13,4.13,0,0,1,1.73.43c.28.16.13.41,0,.62a2.62,2.62,0,0,1-2.4,1.16,15.92,15.92,0,0,1-4.73-1c-.47-.25-.94-.49-1.39-.7.29,0,.59-.09.88-.15A52.93,52.93,0,0,1,132,117.85Zm.17-4.13a9.63,9.63,0,0,1-4.44,2.94,8.31,8.31,0,0,0-2.79.57,8.43,8.43,0,0,1-5-1.43c-.34-.31-.7-.6-1.06-.88a3.93,3.93,0,0,0,1.46-.48,2.83,2.83,0,0,0,1.42-2.7,6.24,6.24,0,0,0,7.5.91c4.11-2.56,2.54-7.65-1.12-9.39a3.08,3.08,0,0,0,1.09-1.18,2.47,2.47,0,0,0,.31-1.34,9.42,9.42,0,0,1,3.26,2.7A8.49,8.49,0,0,1,132.18,113.72Zm6.85-4.36a3.85,3.85,0,0,1-2.41-1.79,32.34,32.34,0,0,0-1.8-3,8.54,8.54,0,0,0-.68-1.39c.58.39,1.11.74,1.46,1a20.51,20.51,0,0,0,3.6,2.49,9,9,0,0,1,.84,1.11C140.71,108.8,140.25,109.58,139,109.36Zm1.29-3.64a7.89,7.89,0,0,1-1.51-.7,29,29,0,0,0-3.74-2.81l-.59-.48c-.19-.16-.44-.41-.74-.68,1.21.44,2.52.68,3.68,1a6.85,6.85,0,0,1,3.73,2C141.92,105.15,141.54,106.14,140.32,105.72Zm3.37-6c2,.06,0,1.66-.79,1.91a6.43,6.43,0,0,1-2.88.11,12.66,12.66,0,0,0-3.5-1.11,13.31,13.31,0,0,0,2.53-.48c.9-.13,1.81-.31,2.71-.4A17.8,17.8,0,0,1,143.69,99.75Zm-.19-5.11c-1.31,3-4.26,4.39-7.4,4.5a18.9,18.9,0,0,1-5.25-.85A2.44,2.44,0,0,0,132.26,97a3.29,3.29,0,0,0,.28-1.83,7.43,7.43,0,0,0,7.57-2.25c1.37-1.71,1-3.56-.26-5.18-.9-1.11-2.29-2.25-3.7-2.1a3.08,3.08,0,0,0,.33-1.28,3.11,3.11,0,0,0-1.43-2.84l.38-.1C140.89,83.29,146.05,88.67,143.5,94.64ZM147.69,85c1.15,1.16.46,2.5-1.07,2.64a2.92,2.92,0,0,1-2.06-1.06c-.47-.44-.87-1-1.36-1.5a13.7,13.7,0,0,0-3.2-2.86,22,22,0,0,0,4.65.94A8.6,8.6,0,0,1,147.69,85Zm.58-3.5c-1.18,1.32-5.13.06-6.53-.24-.69-.15-1.52-.47-2.34-.66.92-.24,1.85-.44,2.76-.65a18.36,18.36,0,0,1,3.69-.54C146.75,79.33,149.58,80,148.27,81.45Zm-.59-4.36c-.9.5-2,.69-2.82,1.26l-.07.07a28,28,0,0,0-5.5,1.54c2.46-1.1,4.49-3.14,6.9-4.32a9.48,9.48,0,0,1,1.53-.59c.8-.34,1.18,0,1.15,1.09A3.53,3.53,0,0,1,147.68,77.09Z"/><path class="cls-3" d="M75.09,125.32c-29,0-52.62-22.84-52.62-50.92S46.08,23.47,75.09,23.47s52.62,22.85,52.62,50.93S104.11,125.32,75.09,125.32Zm0-99.51c-27.72,0-50.28,21.8-50.28,48.59S47.37,123,75.09,123s50.29-21.8,50.29-48.59S102.82,25.81,75.09,25.81Z"/></g></g></svg>