<svg width="55" height="12" viewBox="0 0 55 12" fill="none" xmlns="http://www.w3.org/2000/svg">
<path d="M2.88982 4.24138L4.545 4.34483C6.40706 4.44828 8.26913 4.65517 10.1312 4.75862C12.614 4.86207 27.3036 4.96552 29.7864 5.06897C31.4415 5.17241 33.2002 5.27586 34.8553 5.37931C35.2691 5.37931 35.6829 5.58621 35.9933 6C36.3036 6.51724 36.7174 6.93103 37.2347 7.24138C37.545 6.41379 36.8209 6.2069 36.8209 5.58621C37.0278 5.27586 37.4415 5.27586 37.7519 5.48276L37.8553 5.58621C38.3726 6.10345 38.8898 6.62069 39.4071 7.13793C39.5105 7.24138 39.614 7.34483 39.8209 7.34483C40.0278 6.51724 39.4071 6.2069 39.2002 5.48276C39.7174 5.27586 40.3381 5.37931 40.6484 5.7931C41.6829 6.72414 42.7174 7.65517 43.7519 8.48276C43.8553 8.58621 44.1657 8.58621 44.2691 8.48276C44.3726 8.27586 44.3726 7.96552 44.1657 7.86207L42.9243 6.72414L41.9933 5.7931C42.2002 5.7931 42.3036 5.68966 42.5105 5.68966L43.6484 5.7931C44.2691 5.7931 44.7864 6.10345 45.0967 6.62069C45.5105 7.13793 45.9243 7.55172 46.4416 7.86207C47.476 8.58621 48.4071 9.51724 49.0278 10.6552C49.1312 10.7586 49.1312 10.8621 49.2347 10.9655C49.4416 11.1724 49.545 11.3793 49.7519 11.069C49.8553 10.8621 49.8553 10.5517 49.7519 10.3448C49.1312 9.51724 48.5105 8.68966 47.7864 7.96552C47.3726 7.55172 46.9588 7.13793 46.4416 6.72414C46.3381 6.62069 46.1312 6.41379 45.9243 6.2069C46.545 6.10345 47.0622 6 47.476 6.62069C47.6829 6.82759 47.8898 7.03448 48.2002 7.13793C49.9588 7.96552 51.8209 8.89655 53.5795 9.72414C53.6829 9.72414 53.8898 9.72414 53.9933 9.72414C54.0967 9.41379 53.9933 9 53.6829 8.7931C53.2691 8.48276 52.7519 8.17241 52.2347 7.96552C51.3036 7.44828 50.3726 7.03448 49.4415 6.62069C49.2347 6.51724 49.1312 6.41379 48.9243 6.31035C49.0278 6.2069 49.0278 6.10345 49.2347 6L53.5795 4.24138C53.7864 4.13793 53.9933 3.93103 54.2002 3.82759C53.9933 3.2069 53.6829 3.10345 53.1657 3.10345C52.8553 3.2069 52.545 3.31034 52.2347 3.41379C50.6829 4.13793 49.1312 4.86207 47.6829 5.58621C47.1657 5.7931 46.545 5.68966 46.1312 5.37931C46.7519 4.75862 47.5795 4.13793 48.4071 3.72414C49.2347 3.2069 49.9588 2.7931 50.7864 2.27586C50.6829 1.75862 50.476 1.65517 50.1657 1.75862C49.7519 1.96552 49.3381 2.17241 48.9243 2.37931C47.476 3.31034 46.0278 4.24138 44.476 5.17241C43.9588 5.48276 43.4416 5.27586 42.8209 4.96552C43.1312 4.55172 43.6484 4.13793 44.1657 3.82759C44.8898 3.31035 45.614 2.7931 46.3381 2.27586C46.4416 2.17241 46.545 1.96552 46.545 1.75862C46.545 1.44828 46.3381 1.34483 46.0278 1.44828H45.9243L44.3726 2.27586L41.0622 4.13793C40.8553 4.24138 40.6484 4.44828 40.3381 4.55172C39.9243 4.86207 39.4071 4.75862 39.0967 4.44828C39.5105 3.72414 40.2347 3.41379 40.545 2.58621L40.1312 2.06897L37.4415 4.55172C37.2347 4.75862 37.2347 4.75862 36.7174 4.55172L37.6484 3.10345L37.2347 2.58621C37.1312 2.58621 37.0278 2.58621 37.0278 2.68966C36.4071 3.31035 35.8898 3.93103 35.2691 4.55172C35.0622 4.65517 34.8553 4.75862 34.545 4.75862C32.8898 4.65517 31.3381 4.55172 29.6829 4.44828C26.476 4.24138 11.0622 4.13793 7.95879 3.93103C6.30362 3.82759 4.64844 3.62069 2.99327 3.41379C2.78638 3.41379 2.57948 3.31035 2.37258 3.31035V3.10345C2.57948 2.89655 2.78638 2.7931 2.99327 2.68966C3.82086 2.17241 4.64844 1.75862 5.57948 1.24138C5.88982 1.13793 6.09672 0.931035 6.40707 0.724138C6.40707 0.62069 6.51051 0.517241 6.51051 0.310345C6.61396 0.103448 6.51051 0 6.30362 0C6.20017 0 6.20017 0 6.09672 0C5.88982 0.103448 5.57948 0.206897 5.37258 0.310345C4.44155 0.827586 3.61396 1.34483 2.68293 1.86207C2.06224 2.17241 1.3381 2.48276 0.717409 2.7931C0.510513 3 0.0967198 3.10345 0.200168 3.62069L2.47603 5.27586C3.51051 6 4.64844 6.51724 5.78638 6.93103C6.09672 7.03448 6.20017 7.03448 6.30362 6.62069C5.26913 5.48276 3.82086 5.48276 2.78638 4.34483L2.88982 4.24138Z" fill="#513A47"/>
</svg>
