<svg width="154" height="140" viewBox="0 0 154 140" fill="none" xmlns="http://www.w3.org/2000/svg">
<g clip-path="url(#clip0_159_6445)">
<path d="M49.9592 109.857C50.2914 110.143 50.5289 110.523 50.6401 110.947C50.7512 111.37 50.7308 111.818 50.5815 112.23C50.4555 112.614 50.2927 112.985 50.0953 113.338C49.9696 113.804 49.6882 114.212 49.298 114.495C49.1946 114.552 49.0811 114.587 48.964 114.6C48.8469 114.612 48.7285 114.601 48.6156 114.568C48.5026 114.535 48.3974 114.479 48.306 114.405C48.2145 114.331 48.1386 114.239 48.0826 114.136C48.0468 114.075 48.0205 114.01 48.0048 113.941C47.8395 113.261 48.2673 112.667 48.5104 112.065C48.598 111.841 48.6473 111.604 48.6563 111.364C48.6027 111.059 48.6027 110.746 48.6563 110.441C48.8216 109.955 49.4536 109.527 49.9398 109.896L49.9592 109.857Z" fill="#FF71A8"/>
<path d="M61.2188 111.802C62.7065 112.774 62.1911 115.098 61.6272 116.45C61.4679 116.74 61.2065 116.96 60.8938 117.068C60.5811 117.176 60.2394 117.163 59.9353 117.033C59.6285 116.909 59.3768 116.679 59.2267 116.384C59.0766 116.089 59.0382 115.75 59.1185 115.429C59.3931 114.562 59.5532 113.663 59.595 112.755C59.5975 112.609 59.6287 112.466 59.6868 112.332C59.7448 112.199 59.8286 112.078 59.9333 111.977C60.0381 111.876 60.1617 111.796 60.2972 111.743C60.4327 111.689 60.5773 111.663 60.7229 111.666C60.8967 111.671 61.0669 111.717 61.2188 111.802Z" fill="#FF71A8"/>
<path d="M97.0693 114.972C97.0693 114.622 97.0693 114.661 97.0693 115.108L97.0109 115.244C97.0026 115.35 96.9728 115.452 96.9234 115.546C96.8554 115.759 96.8165 115.983 96.7679 116.197C96.6989 116.472 96.5567 116.723 96.3564 116.923C96.156 117.124 95.905 117.266 95.6302 117.335C95.3634 117.383 95.09 117.383 94.8232 117.335C94.4923 117.256 94.1997 117.063 93.9967 116.79C93.7715 116.514 93.6389 116.174 93.6175 115.818C93.6097 115.3 93.7738 114.794 94.0842 114.379C94.2808 114.075 94.5392 113.817 94.8426 113.62L94.969 113.494L95.3288 113.348C95.7696 113.277 95.8182 113.277 95.4746 113.348C95.7013 113.29 95.9392 113.29 96.1656 113.35C96.3919 113.409 96.5993 113.526 96.7679 113.688C96.9251 113.858 97.0356 114.065 97.0885 114.29C97.1413 114.515 97.1347 114.75 97.0693 114.972Z" fill="#FF71A8"/>
<path d="M107.59 107.796C107.955 108.872 108.032 110.025 107.814 111.141C107.821 111.602 107.854 112.063 107.911 112.522C107.938 112.966 107.806 113.406 107.539 113.762C107.272 114.118 106.887 114.368 106.452 114.466C106.051 114.563 105.628 114.496 105.276 114.281C104.925 114.066 104.672 113.72 104.576 113.319C104.549 113.207 104.533 113.093 104.527 112.979C104.547 112.812 104.576 112.646 104.615 112.483C104.615 112.483 104.556 112.035 104.547 111.909C104.53 111.503 104.553 111.096 104.615 110.694C104.712 109.955 104.731 109.206 104.838 108.496C104.847 108.172 104.959 107.86 105.156 107.603C105.353 107.347 105.627 107.159 105.937 107.067C106.25 106.987 106.581 107.011 106.879 107.135C107.177 107.26 107.427 107.478 107.59 107.757V107.796Z" fill="#FF71A8"/>
<path d="M129.341 104.889C127.795 106.308 125.374 106.833 123.371 107.329C123.037 107.387 122.694 107.317 122.41 107.133C122.125 106.95 121.92 106.666 121.834 106.339C121.749 106.011 121.789 105.663 121.948 105.364C122.106 105.065 122.371 104.836 122.69 104.723C123.663 104.461 124.635 104.198 125.491 103.858C126.376 103.472 127.298 103.175 128.243 102.973C129.264 102.837 130.265 104.023 129.341 104.889Z" fill="#FF71A8"/>
<path d="M73.7814 127.039C74.2707 128.774 74.5386 130.564 74.5787 132.367C74.7635 134.069 75.2594 136.023 75.0163 137.734C75.0163 138.084 74.4912 137.997 74.394 137.734C73.8106 136.12 73.9176 134.088 73.7231 132.357C73.3816 130.606 73.2672 128.819 73.3828 127.039C73.4119 126.815 73.7134 126.864 73.7814 127.039Z" fill="#AF73EA"/>
<path d="M73.7427 127.126C74.0344 128.974 73.9177 130.938 74.0344 132.814C74.1025 133.787 74.1997 134.759 74.297 135.731C74.4915 136.642 74.5699 137.573 74.5303 138.503C74.5179 138.55 74.4962 138.595 74.4664 138.634C74.4366 138.673 74.3994 138.705 74.3569 138.73C74.3143 138.754 74.2673 138.77 74.2187 138.776C74.17 138.782 74.1206 138.778 74.0733 138.765C74.0267 138.754 73.9828 138.734 73.9444 138.706C73.9059 138.677 73.8737 138.641 73.8497 138.6C73.5537 137.803 73.3959 136.961 73.3829 136.111C73.2663 135.08 73.169 134.059 73.0718 133.048C72.8428 131.108 72.869 129.147 73.1496 127.214C73.1661 127.151 73.2027 127.096 73.2537 127.057C73.3047 127.018 73.3672 126.997 73.4316 126.997C73.4959 126.997 73.5585 127.018 73.6095 127.057C73.6605 127.096 73.6971 127.151 73.7135 127.214L73.7427 127.126Z" fill="#AF73EA"/>
<path d="M74.5205 127.009C74.9094 128.692 75.1039 130.432 75.347 132.143C75.4637 132.912 75.7846 134.234 74.7441 134.467C74.6932 134.49 74.6375 134.499 74.582 134.495C74.5265 134.491 74.4729 134.473 74.4259 134.443C74.3789 134.413 74.3399 134.373 74.3123 134.324C74.2847 134.276 74.2694 134.222 74.2677 134.166C74.2484 134.113 74.2484 134.054 74.2677 134.001C74.4953 132.953 74.4953 131.869 74.2677 130.821C74.1218 129.586 73.9663 128.371 73.869 127.087C73.8789 126.998 73.9227 126.916 73.9915 126.858C74.0603 126.8 74.1488 126.771 74.2385 126.776C74.3042 126.779 74.3674 126.802 74.4196 126.842C74.4717 126.882 74.5104 126.937 74.5302 127L74.5205 127.009Z" fill="#AF73EA"/>
<path d="M74.4621 127.447C75.3319 126.874 76.1604 126.24 76.9416 125.551C77.0331 125.459 77.1573 125.408 77.2868 125.408C77.4163 125.408 77.5404 125.459 77.632 125.551C77.7235 125.643 77.7749 125.767 77.7749 125.896C77.7749 126.026 77.7235 126.15 77.632 126.241C77.1555 126.718 76.7277 127.214 76.2901 127.739C75.8526 128.264 75.3178 127.544 75.6581 127.107C76.0877 126.552 76.6493 126.115 77.2916 125.833L77.7292 126.601L74.0829 128.186L73.7037 127.36C74.9677 127.097 76.2318 126.796 77.4958 126.553C77.554 126.537 77.6147 126.533 77.6744 126.541C77.7342 126.549 77.7916 126.569 77.8434 126.6C77.8952 126.631 77.9402 126.672 77.9757 126.72C78.0112 126.769 78.0365 126.824 78.0501 126.883C78.0546 126.915 78.0546 126.948 78.0501 126.98C78.03 127.382 77.9272 127.775 77.7482 128.134C77.5691 128.494 77.3177 128.813 77.0097 129.071C76.9251 129.149 76.814 129.193 76.6985 129.193C76.5831 129.193 76.4719 129.149 76.3874 129.071C76.3489 129.031 76.3187 128.984 76.2987 128.932C76.2787 128.88 76.2692 128.825 76.2707 128.769V127.243C76.272 127.134 76.3123 127.029 76.3844 126.947C76.4565 126.865 76.5556 126.811 76.6637 126.796C76.7718 126.78 76.8819 126.804 76.9739 126.863C77.0659 126.922 77.1338 127.012 77.1652 127.116C77.7195 129.158 75.9498 130.714 76.1346 132.698H75.1622C75.2237 131.179 75.442 129.67 75.8137 128.196L76.6207 128.526C76.0179 129.789 75.4951 131.088 75.0552 132.416C75.0018 132.482 74.9306 132.532 74.8498 132.559C74.769 132.587 74.6822 132.59 74.5994 132.57C74.5167 132.549 74.4415 132.506 74.3827 132.444C74.3239 132.382 74.284 132.305 74.2677 132.221C74.6177 131.025 74.89 129.927 75.1428 128.799C75.2692 128.293 76.1151 128.4 76.1151 128.915C75.8817 130.86 75.7067 132.805 75.4053 134.749C75.3275 135.245 74.4329 135.158 74.501 134.633C74.6087 133.699 74.8579 132.788 75.24 131.93C75.4539 131.395 75.6873 130.87 75.872 130.335C75.9498 130.089 76.0179 129.846 76.0762 129.606L76.154 129.139C76.2707 128.653 76.0665 128.663 75.5511 129.139L74.6858 128.789L75.24 127.797L75.8915 128.439C74.6566 129.246 75.0552 130.841 75.1914 132.046C75.3081 133.178 75.3081 134.318 75.1914 135.449L74.326 135.216C74.8485 134.115 75.2025 132.942 75.3761 131.735C75.4734 131.113 76.4068 131.385 76.3485 131.978C76.1325 133.266 75.7262 134.515 75.1428 135.683C75.1152 135.736 75.0773 135.782 75.0314 135.821C74.9855 135.859 74.9324 135.887 74.8754 135.904C74.8183 135.921 74.7584 135.927 74.6991 135.921C74.6398 135.914 74.5824 135.896 74.5302 135.868C74.4538 135.829 74.3904 135.768 74.3473 135.694C74.3042 135.62 74.2833 135.535 74.2871 135.449C74.3534 133.867 74.3079 132.281 74.151 130.704C74.0711 130.12 74.151 129.525 74.3821 128.982C74.6133 128.44 74.987 127.97 75.4636 127.622C75.5183 127.592 75.5785 127.573 75.6407 127.566C75.7029 127.559 75.7658 127.565 75.8257 127.583C75.8856 127.602 75.9412 127.632 75.9892 127.672C76.0373 127.712 76.0768 127.761 76.1054 127.817C76.1437 127.885 76.1638 127.962 76.1638 128.04C76.1638 128.119 76.1437 128.196 76.1054 128.264L75.4928 129.304C75.2303 129.742 74.433 129.47 74.6274 128.944C74.8219 128.419 75.2108 127.593 75.9984 127.564C76.1427 127.559 76.2867 127.582 76.422 127.632C76.5573 127.683 76.6813 127.759 76.7869 127.858C76.8926 127.956 76.9778 128.075 77.0377 128.206C77.0976 128.337 77.131 128.479 77.1361 128.624V128.711C77.3014 130.821 75.5025 132.601 75.4247 134.613H74.5107C74.6566 132.669 74.9386 130.811 75.1622 128.925L76.1346 129.042C75.804 130.17 75.5025 131.307 75.1622 132.445L74.2677 132.221C74.724 130.803 75.2796 129.419 75.9304 128.079C75.9852 127.991 76.0695 127.926 76.1681 127.894C76.2667 127.863 76.3733 127.867 76.469 127.907C76.5646 127.946 76.6431 128.019 76.6905 128.111C76.7379 128.203 76.751 128.309 76.7277 128.41C76.3722 129.811 76.1989 131.252 76.2123 132.698C76.2123 132.827 76.1611 132.95 76.0699 133.042C75.9788 133.133 75.8551 133.184 75.7262 133.184C75.5972 133.184 75.4736 133.133 75.3824 133.042C75.2912 132.95 75.24 132.827 75.24 132.698C75.065 130.753 76.8152 129.197 76.3193 127.35L77.2139 127.233V128.75L76.4652 128.439C76.6886 128.265 76.8714 128.044 77.0007 127.792C77.13 127.54 77.2028 127.263 77.2139 126.98L77.7778 127.428C76.5235 127.7 75.24 127.943 73.9759 128.215C73.5092 128.312 73.1786 127.632 73.6454 127.398L77.2819 125.814C77.7973 125.59 78.2543 126.348 77.7292 126.582C77.1288 126.815 76.604 127.208 76.2123 127.719L75.5803 127.087L76.893 125.57L77.5834 126.251C76.9319 126.805 74.4816 129.577 73.694 127.894C73.4703 127.418 74.1704 127 74.4329 127.476L74.4621 127.447Z" fill="#AF73EA"/>
<path d="M73.4024 25.4675C74.2288 24.9133 75.0164 24.398 75.8429 23.9021C75.8926 23.8723 75.9478 23.8528 76.0051 23.8445C76.0624 23.8362 76.1208 23.8394 76.1769 23.8539C76.2329 23.8684 76.2856 23.8938 76.3318 23.9288C76.3779 23.9638 76.4167 24.0076 76.4458 24.0576C76.4842 24.1242 76.5044 24.1996 76.5044 24.2764C76.5044 24.3532 76.4842 24.4287 76.4458 24.4952C76.0123 25.5142 75.2439 26.3546 74.2677 26.8775C74.1858 26.9199 74.0925 26.9354 74.0012 26.9217C73.9099 26.9079 73.8253 26.8657 73.7595 26.801C73.6937 26.7362 73.65 26.6523 73.6348 26.5613C73.6195 26.4702 73.6335 26.3767 73.6746 26.294C74.2633 25.2528 75.2376 24.4846 76.3874 24.1549C76.5047 24.1286 76.6276 24.1496 76.7295 24.2133C76.8315 24.277 76.9042 24.3783 76.932 24.4952C76.9495 24.5706 76.948 24.6492 76.9277 24.7239C76.9073 24.7985 76.8687 24.867 76.8153 24.923C75.7682 25.9396 74.5833 26.8037 73.2954 27.49C73.2406 27.5138 73.1816 27.5264 73.1218 27.5271C73.0621 27.5277 73.0028 27.5163 72.9475 27.4937C72.8922 27.471 72.842 27.4375 72.7999 27.3951C72.7578 27.3528 72.7246 27.3024 72.7023 27.2469C72.6615 27.1515 72.6537 27.0452 72.6801 26.9448C72.7065 26.8444 72.7656 26.7557 72.8481 26.6927C74.1755 25.7018 75.5876 24.8298 77.0681 24.0868L77.5445 24.923L73.1204 27.0622C73.0037 26.7608 72.887 26.4691 72.7606 26.1774C74.0384 25.767 75.2806 25.2532 76.475 24.6411L76.8347 25.5162C75.6779 25.6909 74.5711 26.1084 73.5871 26.7413C73.3148 26.9358 73.0231 27.3053 72.6148 27.315C72.1251 27.2668 71.6461 27.1421 71.1951 26.9455L71.4382 25.9732C72.6495 26.3501 73.7375 27.0452 74.5886 27.9859C74.6625 28.0624 74.7092 28.1611 74.7217 28.2667C74.7341 28.3724 74.7116 28.4792 74.6575 28.5707C74.6034 28.6623 74.5208 28.7337 74.4223 28.7738C74.3238 28.8139 74.2148 28.8207 74.1122 28.793C72.7862 28.3565 71.5435 27.699 70.4367 26.8483C70.0575 26.5468 70.4367 25.8759 70.9034 26.0315C72.2344 26.4299 73.4992 27.023 74.6567 27.7915C74.7123 27.8227 74.7611 27.8647 74.8002 27.9152C74.8392 27.9656 74.8678 28.0234 74.8841 28.085C74.9004 28.1467 74.9042 28.211 74.8952 28.2741C74.8862 28.3373 74.8646 28.398 74.8317 28.4526C74.7885 28.5276 74.726 28.5896 74.6508 28.6323C74.5756 28.675 74.4904 28.6969 74.4039 28.6957C73.2361 28.7659 72.0672 28.5766 70.9812 28.1415C70.8877 28.0913 70.8131 28.012 70.7689 27.9154C70.7247 27.8189 70.7133 27.7106 70.7364 27.607C70.7596 27.5034 70.816 27.4102 70.897 27.3417C70.9781 27.2732 71.0794 27.2331 71.1854 27.2275C72.5112 27.5154 73.8118 27.9088 75.0748 28.404C75.1994 28.4502 75.3013 28.5428 75.3593 28.6624C75.4173 28.782 75.4268 28.9193 75.3859 29.0458C75.3534 29.1404 75.2936 29.2232 75.2139 29.2838C75.1343 29.3444 75.0385 29.38 74.9387 29.3861C73.533 29.551 72.1085 29.4354 70.7478 29.0458C70.6839 29.0268 70.6242 28.9954 70.5725 28.9534C70.5207 28.9113 70.4777 28.8594 70.4461 28.8006C70.4144 28.7419 70.3947 28.6774 70.3881 28.611C70.3815 28.5446 70.3881 28.4776 70.4075 28.4138C70.4398 28.3117 70.503 28.2223 70.5884 28.1578C70.6737 28.0934 70.777 28.0571 70.884 28.054C72.3202 28.1121 73.7324 28.442 75.0456 29.0263C75.1583 29.0966 75.2389 29.2084 75.2698 29.3376C75.3007 29.4668 75.2796 29.603 75.2109 29.7167C75.1456 29.8216 75.0459 29.9006 74.9289 29.9403C73.3091 30.2319 71.6382 29.9609 70.1936 29.1722C70.1365 29.1373 70.0868 29.0915 70.0475 29.0374C70.0083 28.9832 69.9801 28.9218 69.9647 28.8567C69.9494 28.7915 69.9471 28.724 69.958 28.658C69.9689 28.592 69.9928 28.5288 70.0283 28.4721C70.0736 28.4041 70.134 28.3476 70.2049 28.3071C70.2758 28.2666 70.3552 28.2432 70.4367 28.2387C71.5635 28.1842 72.6914 28.3223 73.7718 28.6471C73.8355 28.665 73.8949 28.6953 73.9466 28.7365C73.9983 28.7776 74.0413 28.8287 74.073 28.8866C74.1047 28.9446 74.1245 29.0083 74.1312 29.0741C74.1379 29.1398 74.1315 29.2062 74.1122 29.2694C74.086 29.373 74.0257 29.4649 73.9411 29.5301C73.8564 29.5954 73.7523 29.6303 73.6454 29.6292C72.2524 29.7339 70.8692 29.3258 69.7561 28.4818C69.3963 28.2193 69.4352 27.5095 69.9991 27.5095C70.6236 27.5308 71.2374 27.6779 71.8038 27.9419C72.3701 28.2058 72.8774 28.5813 73.2954 29.0458C73.343 29.0928 73.3808 29.1488 73.4066 29.2106C73.4324 29.2723 73.4457 29.3386 73.4457 29.4055C73.4457 29.4725 73.4324 29.5387 73.4066 29.6005C73.3808 29.6623 73.343 29.7183 73.2954 29.7653C73.2317 29.8412 73.1464 29.8959 73.0508 29.9219C72.9552 29.948 72.854 29.9442 72.7606 29.9112C71.6743 29.716 70.6867 29.1571 69.9602 28.3262C69.9211 28.2708 69.8934 28.2081 69.8786 28.1418C69.8638 28.0756 69.8622 28.0071 69.8739 27.9402C69.8857 27.8733 69.9105 27.8095 69.947 27.7522C69.9835 27.695 70.031 27.6455 70.0867 27.6067C70.1541 27.5604 70.2312 27.5302 70.3121 27.5184C70.393 27.5066 70.4756 27.5135 70.5534 27.5386C71.5623 28.0202 72.5118 28.6174 73.3829 29.318C73.8302 29.6875 74.6178 30.2904 74.3552 30.9321C73.8399 32.4004 71.0007 30.6404 70.252 30.2418C69.7074 29.9306 70.0867 29.1916 70.6506 29.2694C71.5954 29.4136 72.5215 29.6615 73.4121 30.0084C73.5338 30.0425 73.6392 30.1193 73.7088 30.2248C73.7785 30.3304 73.8077 30.4575 73.7911 30.5828C73.7746 30.7081 73.7134 30.8233 73.6187 30.9071C73.5241 30.9909 73.4024 31.0378 73.2759 31.0391H70.8645L71.1271 30.0667L73.5288 31.0974C74.0149 31.2919 73.7621 32.0698 73.2662 32.0698C72.2661 32.0258 71.2802 31.8155 70.3492 31.4475L70.7576 30.4751C71.8348 30.9618 72.8608 31.5546 73.8205 32.2448C74.2094 32.5268 74.1511 33.2949 73.5676 33.2171C72.3665 33.1643 71.2347 32.6403 70.4173 31.7586C70.3661 31.7096 70.3253 31.6507 70.2975 31.5856C70.2697 31.5204 70.2554 31.4503 70.2554 31.3794C70.2554 31.3085 70.2697 31.2384 70.2975 31.1732C70.3253 31.1081 70.3661 31.0492 70.4173 31.0002C70.5008 30.9188 70.6082 30.8664 70.7237 30.8506C70.8392 30.8349 70.9568 30.8566 71.059 30.9127C71.9863 31.3296 72.8274 31.9167 73.5385 32.6434C73.6263 32.7561 73.6663 32.8987 73.6499 33.0406C73.6335 33.1824 73.5621 33.3122 73.451 33.4019C73.3948 33.4487 73.3294 33.4833 73.2591 33.5034C73.1888 33.5235 73.115 33.5286 73.0426 33.5186C72.719 33.4789 72.4074 33.3719 72.1277 33.2044C71.848 33.0369 71.6065 32.8127 71.4188 32.5462C71.0396 32.0503 71.6521 31.3891 72.1091 31.8559C72.2314 32.0272 72.3915 32.168 72.577 32.2675C72.7625 32.367 72.9684 32.4224 73.1787 32.4295L72.7995 33.4019C72.1419 32.7627 71.3829 32.237 70.5534 31.8461L71.1951 31.0002C71.8095 31.6506 72.6542 32.0345 73.5482 32.0698L73.2857 33.0421C72.3389 32.332 71.3185 31.7257 70.2422 31.2336C70.1133 31.1781 70.0117 31.0737 69.9597 30.9433C69.9077 30.8129 69.9097 30.6673 69.9651 30.5383C70.0206 30.4094 70.125 30.3078 70.2553 30.2558C70.3857 30.2038 70.5314 30.2058 70.6603 30.2612C71.5162 30.6021 72.4235 30.796 73.344 30.8349L73.0912 31.8072C72.2744 31.4766 71.4674 31.1266 70.6798 30.7668C70.1839 30.5724 70.4561 29.7945 70.9423 29.7945H73.3829L73.2468 30.8252C72.3618 30.4816 71.4425 30.2338 70.5048 30.0862L70.9034 29.1138C71.3205 29.3549 71.7524 29.5692 72.1966 29.7556C72.5005 29.8444 72.7964 29.9582 73.0815 30.0959C73.2565 30.1931 73.6357 30.4751 73.2273 30.2418C72.8189 30.0084 72.255 29.4444 71.7396 29.0944C71.234 28.7719 70.7078 28.4828 70.1644 28.229L70.7576 27.4414C71.3293 28.1641 72.1391 28.6603 73.0426 28.8416L72.537 29.707C71.906 29.0045 71.0282 28.5726 70.0867 28.5013L70.3297 27.5289C71.3115 28.2644 72.5306 28.6108 73.7524 28.5013L73.6163 29.4736C72.6318 29.1501 71.599 28.9988 70.5631 29.0263L70.8256 28.054C72.0409 28.7407 73.4578 28.9815 74.8317 28.7346L74.715 29.707C73.5526 29.2046 72.3054 28.9274 71.0396 28.8902L71.1757 27.9179C72.4365 28.2894 73.7589 28.4051 75.0651 28.2582L74.9289 29.2305C73.6681 28.7265 72.367 28.3297 71.0396 28.0443L71.2437 27.14C72.2761 27.5301 73.3806 27.6927 74.4817 27.6164L74.2288 28.5207C73.1391 27.7983 71.9501 27.2382 70.6992 26.858L71.166 26.051C72.1366 26.7989 73.2285 27.3745 74.3941 27.7526L73.9371 28.5693C73.2098 27.7514 72.2763 27.1436 71.234 26.8094C70.6506 26.6052 70.8743 25.7106 71.4771 25.837L72.7703 26.1871L72.3036 26.3135C73.555 25.3461 75.0236 24.6986 76.5819 24.4271C77.0875 24.3396 77.4473 25.0397 76.9417 25.2925C75.6951 25.9516 74.3938 26.5014 73.0523 26.9358C72.9904 26.9519 72.9259 26.9556 72.8625 26.9466C72.7992 26.9377 72.7382 26.9164 72.6831 26.8839C72.628 26.8514 72.5798 26.8083 72.5414 26.7571C72.503 26.706 72.475 26.6477 72.4592 26.5857C72.4359 26.482 72.4459 26.3735 72.4878 26.2757C72.5297 26.178 72.6013 26.0959 72.6925 26.0412C74.1608 25.3314 75.6096 24.5827 77.1264 23.9312C77.6807 23.6687 78.1571 24.5146 77.6029 24.7675C76.1293 25.438 74.7418 26.2835 73.4704 27.2858L72.9259 26.5663C74.1126 25.9489 75.2168 25.1844 76.2124 24.291L76.65 25.0494C76.1841 25.1449 75.7452 25.3427 75.3652 25.6286C74.9851 25.9145 74.6734 26.2813 74.4525 26.7024L73.8691 26.1093C74.667 25.6145 75.3078 24.9029 75.7165 24.0576L76.3097 24.6508C75.4443 25.1661 74.6178 25.6231 73.7718 26.0607C73.6916 26.1029 73.5981 26.1122 73.511 26.0869C73.4239 26.0615 73.3501 26.0033 73.3051 25.9245C73.2826 25.8857 73.2679 25.8427 73.2621 25.7981C73.2562 25.7535 73.2593 25.7082 73.271 25.6648C73.2828 25.6214 73.303 25.5808 73.3306 25.5453C73.3581 25.5097 73.3924 25.48 73.4315 25.4578L73.4024 25.4675Z" fill="#AF73EA"/>
<path d="M3.14074 92.9871L69.3283 27.6942C69.2646 27.9002 69.2659 28.1209 69.332 28.3261C69.3981 28.5314 69.5258 28.7114 69.6978 28.8415L3.93806 93.7164C3.83809 93.8144 3.70369 93.8693 3.56371 93.8693C3.42373 93.8693 3.28931 93.8144 3.18935 93.7164C3.0881 93.625 3.02641 93.4977 3.01733 93.3616C3.00826 93.2255 3.05252 93.0912 3.14074 92.9871Z" fill="#513A47"/>
<path d="M77.0682 27.5969L150.587 92.9676C150.637 93.0173 150.677 93.0764 150.704 93.1415C150.731 93.2066 150.745 93.2764 150.745 93.3468C150.745 93.4173 150.731 93.4871 150.704 93.5522C150.677 93.6173 150.637 93.6764 150.587 93.7261C150.487 93.819 150.355 93.8706 150.218 93.8706C150.081 93.8706 149.949 93.819 149.848 93.7261L76.2125 28.3261C76.4054 28.2873 76.5851 28.2 76.7349 28.0724C76.8846 27.9448 76.9993 27.7811 77.0682 27.5969Z" fill="#513A47"/>
<path d="M0 88.7671C1.21542 89.9825 3.03372 90.2451 4.38528 91.3633C3.96718 91.9856 3.74353 92.5787 3.01427 92.744C2.77119 92.8023 2.57671 93.2593 2.46004 93.5705C2.42441 93.7161 2.44719 93.8699 2.52351 93.9989C2.59984 94.1279 2.72365 94.2219 2.86842 94.2608H3.02399C3.36432 94.2608 3.72408 94.2608 4.07413 94.2608C4.74994 94.1971 5.43152 94.2815 6.07135 94.5082C6.71118 94.7349 7.29387 95.0985 7.77876 95.5735C8.66524 96.4107 9.64384 97.1447 10.6958 97.7613C12.3941 98.8114 14.1314 99.8259 15.9076 100.805C16.4812 101.135 17.0258 101.505 17.6092 101.845C18.4745 102.36 19.2913 102.817 20.147 103.236C22.7626 104.577 25.3879 105.88 28.0035 107.212C28.4994 107.485 28.9759 107.835 29.4329 108.185C29.5601 108.298 29.7005 108.396 29.851 108.477C30.9595 108.895 32.0582 109.313 33.1667 109.711L34.2654 110.168C35.3545 110.625 36.424 111.141 37.5422 111.52C40.5176 112.551 43.5027 113.581 46.517 114.525C49.5374 115.489 52.6438 116.16 55.7932 116.528C56.4835 116.605 57.1836 116.751 57.8643 116.848C58.0641 116.856 58.2539 116.937 58.3962 117.078C58.5385 117.218 58.6228 117.407 58.6324 117.607C58.6502 117.916 58.7024 118.223 58.788 118.521C58.8059 118.681 58.8557 118.835 58.9342 118.975C59.0128 119.116 59.1186 119.239 59.2454 119.337C59.3723 119.436 59.5176 119.509 59.6728 119.55C59.828 119.592 59.99 119.602 60.1493 119.581C60.3678 119.551 60.5735 119.46 60.7424 119.318C61.3209 118.997 61.8765 118.637 62.4051 118.239C62.6063 118.07 62.8422 117.948 63.0959 117.881C63.3496 117.814 63.6151 117.803 63.8733 117.85C65.1568 117.947 66.4987 118.074 67.7627 118.229C72.8394 118.804 77.953 118.986 83.0577 118.774C85.9747 118.657 88.7265 118.239 91.556 117.947L92.8395 117.85C93.036 117.813 93.239 117.844 93.4155 117.938C93.5921 118.032 93.7318 118.182 93.8118 118.365C94.123 118.988 94.58 119.532 95.3384 119.338C95.7558 119.279 96.1392 119.075 96.4218 118.762C96.7043 118.45 96.8681 118.047 96.8845 117.626C96.9269 117.567 96.9598 117.501 96.9817 117.432C97.2355 117.323 97.4952 117.229 97.7596 117.15C101.367 116.304 104.935 115.477 108.455 114.515C111.604 113.717 114.664 112.599 117.586 111.18C119.53 110.207 121.563 109.361 123.546 108.418C125.53 107.475 127.494 106.542 129.458 105.579C129.584 105.579 129.682 105.443 129.808 105.394C133.474 104.013 136.614 101.67 140.212 100.046C140.612 99.8732 140.99 99.6546 141.34 99.3948C143.123 98.1901 144.988 97.1114 146.921 96.1666C148.011 95.6047 149.032 94.9196 149.965 94.1247C150.297 93.8411 150.684 93.6292 151.102 93.5024C151.532 93.3793 151.978 93.3203 152.425 93.3274C152.94 93.3274 153.115 93.7844 153.397 94.1344C153.55 94.2387 153.717 94.3205 153.893 94.3775C154.046 94.0402 154.073 93.6597 153.972 93.3037C153.871 92.9477 153.646 92.6391 153.339 92.4328C152.808 92.0556 152.2 91.8 151.559 91.6841C150.833 91.6549 150.107 91.7038 149.391 91.83C150.237 90.0311 150.879 88.1934 152.775 86.8516C152.399 86.8588 152.029 86.9498 151.693 87.118C151.356 87.2862 151.062 87.5274 150.83 87.8239C150.363 88.4434 149.938 89.0931 149.556 89.7686C148.341 92.1032 146.517 94.0653 144.277 95.4471C143.566 95.8823 142.878 96.3528 142.215 96.857C139.62 98.7878 136.694 100.228 133.581 101.106C133.494 101.118 133.409 101.141 133.328 101.174C129.964 102.633 126.385 103.051 122.885 104.023L122.107 103.245C121.456 104.334 120.396 104.393 119.355 104.616L108.66 106.61C107.289 106.853 105.898 107.057 104.517 107.29C104.343 107.3 104.17 107.329 104.002 107.378C102.184 108.097 100.22 108.078 98.343 108.593C98.1767 108.648 97.9985 108.658 97.8273 108.62C97.6562 108.582 97.4984 108.499 97.3706 108.379C97.0022 108.059 96.5266 107.889 96.0385 107.903C95.7928 107.855 95.5381 107.89 95.3145 108.003C95.091 108.115 94.9112 108.299 94.8036 108.525C94.7134 108.766 94.5509 108.972 94.3385 109.117C94.1261 109.261 93.8742 109.337 93.6174 109.332C92.0325 109.459 90.467 109.595 88.9015 109.75C86.7234 109.945 84.5454 110.217 82.3576 110.373C78.6822 110.625 74.9775 110.868 71.341 111.005C68.9393 111.073 66.4792 110.839 64.1164 110.762C63.9281 110.759 63.7428 110.714 63.5744 110.63C63.4059 110.546 63.2588 110.425 63.1441 110.275C62.7649 109.809 62.2495 109.488 61.8703 108.992C61.6741 108.75 61.3899 108.595 61.08 108.562C60.7701 108.53 60.4599 108.621 60.2173 108.817C60.0575 108.941 59.9333 109.106 59.8576 109.293C59.7895 109.459 59.7214 109.624 59.6631 109.789C59.602 109.979 59.4782 110.142 59.312 110.251C59.1459 110.361 58.9473 110.41 58.7491 110.392C58.399 110.392 58.049 110.392 57.6892 110.392C55.1806 110.159 52.6428 109.877 50.066 109.643C49.8464 109.615 49.6288 109.573 49.4146 109.517L48.7728 108.379L47.9074 109.245C46.6759 109.077 45.4642 108.787 44.2903 108.379C41.3733 107.563 38.534 106.755 35.7434 105.783C33.5362 105.044 31.3678 104.159 29.2287 103.284C28.9157 103.201 28.6259 103.048 28.3815 102.835C28.1371 102.623 27.9446 102.357 27.8188 102.059C27.4963 102.158 27.1567 102.188 26.8218 102.148C26.4869 102.108 26.1641 101.998 25.8741 101.826C23.359 100.685 20.8341 99.5666 18.2995 98.4711C16.8118 97.8294 15.295 97.2751 13.8073 96.6139C11.0415 95.4979 8.46382 93.9631 6.16467 92.0633C5.11702 91.0147 3.84785 90.214 2.45032 89.72C1.65332 89.3537 0.835083 89.0355 0 88.7671ZM95.5718 114.204L95.4454 115.118C95.4596 115.313 95.4274 115.509 95.3513 115.69C95.2753 115.871 95.1576 116.031 95.0078 116.158C95.0013 115.467 95.201 114.79 95.5815 114.213L95.5718 114.204ZM93.7535 110.314C93.8507 110.548 93.948 110.674 93.9285 110.781C93.7827 112.463 93.6368 114.116 93.5007 115.75C93.5007 116.008 93.3983 116.255 93.2159 116.437C93.0336 116.62 92.7862 116.722 92.5284 116.722C91.556 116.848 90.5837 117.072 89.6696 117.121C86.0817 117.315 82.5132 117.85 78.9155 117.792C75.629 117.733 72.3425 117.694 69.0754 117.432C67.2766 117.286 65.4972 117.072 63.708 116.878C63.3774 116.878 63.0371 116.751 62.6579 116.683C62.6385 116.411 62.6385 116.138 62.6579 115.866C62.7551 114.894 62.8621 113.854 62.9982 112.862C63.1344 111.87 63.3386 111.802 64.2039 111.802H64.729C67.014 111.87 69.2893 111.958 71.5354 111.977C73.1106 111.977 74.6955 111.977 76.261 111.86C81.3561 111.462 86.4706 110.966 91.5755 110.518C92.2764 110.398 92.9845 110.323 93.6952 110.295L93.7535 110.314ZM47.8588 110.178L47.7616 111.987L47.6546 113.863C46.6239 113.513 45.778 113.29 44.9126 112.998C43.2596 112.434 41.6455 111.753 39.9537 111.296C37.1508 110.441 34.4063 109.405 31.7373 108.195C31.2601 107.959 30.7989 107.693 30.3566 107.397C30.3949 106.599 30.5899 105.816 30.9303 105.093C32.8218 105.6 34.6822 106.217 36.5018 106.94C38.3493 107.514 40.1676 108.126 42.015 108.661C43.8625 109.196 45.8169 109.673 47.8588 110.217V110.178ZM120.94 108.107L116.39 110.178C116.03 110.343 115.699 110.548 115.349 110.723C114.816 111.014 114.267 111.277 113.706 111.51C112.393 111.987 111.061 112.405 109.749 112.862C109.554 112.954 109.335 112.986 109.122 112.953C108.909 112.92 108.711 112.824 108.553 112.677L108.932 107.757C112.15 106.853 115.388 106.58 118.587 105.89C119.482 105.609 120.423 105.5 121.358 105.569C121.433 106.437 121.289 107.309 120.94 108.107ZM97.4095 115.75C97.1682 115.129 97.1375 114.445 97.322 113.805C97.4466 112.766 97.6251 111.734 97.8568 110.713C97.9046 110.408 98.048 110.126 98.2664 109.907C98.4849 109.689 98.767 109.545 99.0722 109.497C100.317 109.264 101.561 108.982 102.816 108.749C103.118 108.739 103.421 108.759 103.72 108.807C104.031 110.465 104.031 112.166 103.72 113.824C103.603 114.495 103.419 114.583 102.748 114.68C102.077 114.777 101.484 114.962 100.852 115.079C99.6945 115.341 98.5763 115.545 97.3998 115.75H97.4095ZM58.8755 111.588C59.0539 113.057 58.8634 114.548 58.3213 115.925C55.569 115.641 52.8419 115.15 50.1633 114.456C50.2812 113.836 50.4337 113.222 50.6203 112.619C50.8148 112.074 50.5133 111.355 50.98 110.888C53.6261 110.839 56.2697 111.074 58.8658 111.588H58.8755ZM26.1464 105.151C25.5532 104.908 25.174 104.772 24.7754 104.577C23.3557 103.887 21.9847 103.158 20.5457 102.477C19.797 102.108 19.0482 101.738 18.3384 101.33C16.0923 100.066 13.8656 98.7725 11.639 97.489C11.1203 97.2719 10.6773 96.9066 10.3652 96.4389C10.511 96.3611 10.55 96.2542 10.6472 96.293C10.8649 96.3032 11.079 96.3526 11.2792 96.4389C12.9013 97.2729 14.5775 97.9973 16.2965 98.6072C19.4566 100.007 22.6362 101.369 25.7963 102.749C26.1366 102.927 26.4618 103.132 26.7687 103.362L26.1464 105.151ZM104.994 113.902C104.994 113.581 104.994 113.299 104.994 112.998C104.994 112.026 104.994 111.053 104.994 110.081C104.935 108.477 104.906 108.486 106.511 108.136C106.634 108.092 106.761 108.056 106.89 108.029C107.473 107.913 107.736 108.088 107.697 108.681C107.629 109.984 107.551 111.287 107.396 112.57C107.356 112.92 107.182 113.241 106.909 113.465C106.65 113.667 106.348 113.808 106.026 113.875C105.704 113.943 105.371 113.935 105.052 113.854L104.994 113.902ZM48.2478 114.068C48.4325 113.095 48.5589 112.278 48.7437 111.462C48.7941 111.208 48.9004 110.969 49.0548 110.762C49.1181 110.707 49.1933 110.668 49.2743 110.648C49.3554 110.627 49.44 110.627 49.5215 110.645C49.5935 110.678 49.6565 110.729 49.7055 110.791C49.7545 110.854 49.7881 110.927 49.8035 111.005C49.8094 112.152 49.5742 113.289 49.1131 114.34L48.2478 114.068ZM128.894 104.344C127.698 104.859 126.813 105.618 125.539 105.803C125.617 105.122 125.841 104.626 126.376 104.48C127.095 104.188 127.854 103.712 128.884 104.276L128.894 104.344ZM29.3454 106.765C28.2563 106.483 28.1786 106.386 28.373 105.579C28.4165 105.368 28.475 105.16 28.548 104.957C28.5632 104.871 28.5952 104.79 28.6422 104.717C28.6893 104.644 28.7503 104.582 28.8218 104.533C28.8934 104.484 28.9739 104.45 29.0588 104.432C29.1437 104.415 29.2312 104.415 29.3162 104.432C29.4673 104.473 29.5969 104.57 29.6782 104.704C29.7596 104.838 29.7866 104.998 29.7538 105.151C29.6565 105.686 29.4718 106.221 29.3356 106.765H29.3454ZM122.545 107.154C122.498 107.039 122.465 106.918 122.447 106.794C122.469 106.533 122.504 106.274 122.554 106.016C122.661 105.443 122.943 105.151 123.245 105.336C123.376 105.439 123.476 105.576 123.535 105.732C123.593 105.888 123.607 106.057 123.575 106.221C123.575 106.95 123.4 107.086 122.545 107.193V107.154ZM60.0909 112.774C60.2173 112.901 60.334 112.92 60.3048 112.978C60.3471 113.787 60.1654 114.591 59.7798 115.302L60.0909 112.774ZM61.2286 115.944V115.711H61.3939C61.4082 115.727 61.4162 115.748 61.4162 115.769C61.4162 115.791 61.4082 115.811 61.3939 115.827L61.2286 115.944Z" fill="#513A47"/>
<path d="M72.8482 126.737C71.0494 126.669 70.4854 124.977 69.1047 124.131C69.1047 124.491 69.0172 124.744 69.1047 124.861C69.8983 126.083 71.0959 126.988 72.4884 127.418C73.1335 127.537 73.7959 127.524 74.436 127.38C75.076 127.237 75.6803 126.965 76.2125 126.582C76.5723 126.368 76.9223 126.134 77.2918 125.901C77.5641 126.669 77.2918 127.797 76.0375 132.231C75.0651 135.547 74.3651 137.258 73.5386 138.269C73.4248 138.085 73.3241 137.894 73.2371 137.696C71.8953 133.923 70.5826 130.14 69.2408 126.368C69.0803 125.928 68.8852 125.502 68.6574 125.094C68.5407 124.87 68.3851 124.627 67.967 124.841C67.97 125.074 68.0027 125.306 68.0643 125.532C68.9102 127.758 69.7756 129.995 70.5632 132.27C71.166 133.942 71.6717 135.644 72.2453 137.316C72.4627 137.981 72.7225 138.63 73.0232 139.261C73.4705 140.185 73.9956 140.233 74.5692 139.261C74.8282 138.863 75.0526 138.443 75.2402 138.007C76.2773 135.232 77.1751 132.416 77.9336 129.557C78.4586 127.914 78.8184 126.202 79.2657 124.52C79.3481 124.258 79.3346 123.976 79.2278 123.723C79.1209 123.47 78.9275 123.263 78.6823 123.14C77.9919 123.83 77.2626 124.559 76.4945 125.191C75.6582 125.844 74.7041 126.329 73.6844 126.621C73.7719 125.882 73.9081 125.288 73.9178 124.676C73.9178 121.934 73.9178 119.182 73.9178 116.479C73.9178 115.098 73.9858 113.659 74.0053 112.269C74.0053 110.279 74.0053 108.279 74.0053 106.269C74.0053 103.605 73.9567 100.951 73.9081 98.2864C73.8497 94.6012 73.7719 90.9258 73.7233 87.2503C73.7233 85.2084 73.7233 83.1275 73.7233 81.1342C73.7233 79.5007 73.6747 77.8574 73.665 76.2142C73.665 73.4592 73.665 70.6945 73.665 67.9201C73.665 62.7472 73.665 57.4868 73.665 52.2459C73.6163 48.0745 73.5386 43.874 73.5288 39.6054C73.5288 38.4677 73.5969 37.3107 73.5288 36.173C73.4998 35.8119 73.5674 35.4496 73.7246 35.1232C73.8818 34.7969 74.123 34.5182 74.4234 34.3158L79.2851 30.0472C79.3435 29.9707 79.3895 29.8853 79.4213 29.7944C78.7892 29.1624 78.6628 29.1819 78.0794 29.6875C77.6743 30.1813 77.098 30.5042 76.4653 30.5918L78.1572 28.4429L77.1849 28.0831C77.5155 27.6553 77.7974 27.3149 78.0502 26.9357C78.3031 26.5565 78.517 26.1676 78.7698 25.7203L77.953 25.2341C77.964 25.1398 77.9903 25.0478 78.0308 24.9619C78.2836 24.6313 78.5559 24.3007 78.8378 23.9895C79.0943 23.7358 79.3346 23.4663 79.5574 23.1825C79.7616 22.8811 80.1311 22.6088 79.8977 22.2101C79.6643 21.8115 79.1198 21.899 78.7406 21.9865C78.4617 22.0937 78.2071 22.2557 77.9919 22.463C77.3256 22.9889 76.5625 23.3788 75.7458 23.6103L76.6306 21.899C75.3082 22.4921 74.7832 23.7464 73.6552 24.4271C73.1788 24.1062 72.6829 23.7659 72.2064 23.4547C71.4869 23.0075 70.7577 22.5602 70.0187 22.1421C69.6881 21.9476 69.3283 21.7142 68.9296 22.074C68.531 22.4338 68.9296 22.7741 69.0269 23.2117C68.5602 23.2117 67.9865 22.7158 67.6364 23.552L69.2991 26.2356L68.142 26.6635C68.5699 27.5191 68.9394 28.2678 69.3478 29.0749L67.8601 29.1916C67.8272 29.4319 67.8605 29.6766 67.9564 29.8994C68.0524 30.1221 68.2073 30.3145 68.4046 30.4556C69.1533 31.2043 69.8825 31.9336 70.5826 32.7309C70.7575 32.929 70.9168 33.1403 71.0591 33.3629C69.3089 32.9837 68.142 31.8363 66.7905 31.1265C66.2946 31.5155 66.5571 31.8558 66.878 32.0989C67.6948 32.6628 68.5602 33.256 69.4353 33.7616C70.193 34.1965 70.9791 34.5798 71.7883 34.909C72.0295 34.9649 72.2402 35.1108 72.3775 35.3168C72.5148 35.5227 72.5684 35.7733 72.5273 36.0174C72.5273 40.1693 72.5273 44.4185 72.5857 48.6579C72.5857 52.1389 72.5857 55.6199 72.5857 59.1009C72.5857 61.3956 72.5857 63.6806 72.5857 65.9851C72.5857 69.8161 72.5176 73.6569 72.537 77.4879C72.537 79.559 72.6829 81.6204 72.751 83.6915C72.751 84.6639 72.751 85.6362 72.751 86.6085C72.751 87.5809 72.8385 88.7671 72.8579 89.8562C72.8579 93.0746 72.8579 96.2931 72.8579 99.4824C72.8579 101.777 72.9357 104.082 72.8579 106.405C72.8579 109.76 72.8579 113.115 72.7899 116.45C72.7899 119.172 72.7899 121.866 72.7899 124.53C72.7899 125.026 72.8774 125.502 72.8774 125.998C72.8891 126.245 72.8793 126.492 72.8482 126.737ZM73.0524 30.689C71.8516 29.9386 70.8215 28.9449 70.0284 27.7719L71.9731 28.6762C72.2491 28.8478 72.5636 28.9475 72.8881 28.9662C73.2125 28.9849 73.5364 28.922 73.8303 28.7832C74.1438 28.6799 74.4726 28.6306 74.8026 28.6373C74.8408 28.6991 74.8734 28.7642 74.8998 28.8318L73.0524 30.689ZM74.3942 26.8774C73.7525 26.1384 73.7428 25.9634 74.3942 25.5453C75.0457 25.1272 75.8819 24.7188 76.6209 24.3201C76.7084 24.2326 76.8932 24.3201 77.0196 24.2618C77.0565 24.3194 77.0859 24.3815 77.1071 24.4465L74.3942 26.8774ZM73.0524 28.1025C72.2455 27.7195 71.5692 27.1074 71.1077 26.3426L73.7816 27.3927L73.0524 28.1025ZM73.0524 32.5753C72.7555 32.6603 72.4468 32.6964 72.1384 32.6823C71.8872 32.5744 71.6609 32.416 71.4736 32.217C71.2862 32.0179 71.1418 31.7824 71.0494 31.5252C72.8093 32.0503 72.8093 32.0503 73.0816 32.6045L73.0524 32.5753Z" fill="#513A47"/>
</g>
<defs>
<clipPath id="clip0_159_6445">
<rect width="154" height="118.111" fill="white" transform="matrix(-1 0 0 -1 154 140)"/>
</clipPath>
</defs>
</svg>
