<svg width="367" height="343" viewBox="0 0 367 343" fill="none" xmlns="http://www.w3.org/2000/svg">
<g opacity="0.1">
<g clip-path="url(#clip0_159_1440)">
<g clip-path="url(#clip1_159_1440)">
<path d="M159.17 204.94C164.857 213.306 168.769 209.765 177.21 210.886C182.029 211.54 186.737 216.038 190.691 218.553C188.387 223.804 174.542 221.402 170.504 219.361C165.532 216.941 162.511 211.35 159.835 206.796L159.17 204.94Z" fill="white" stroke="#1E120D" stroke-width="0.72872" stroke-linecap="round" stroke-linejoin="round"/>
<path d="M156.642 212.052C152.307 209.895 144.972 207.146 140.637 210.017C141.812 210.432 142.982 211.463 143.95 211.889C139.1 212.078 135.23 215.559 131.715 218.621C137.506 219.858 140.755 220.445 146.309 218.373C145.765 218.838 145.397 219.691 144.849 220.131C150.521 220.866 153.115 216.989 156.338 213.548L156.642 212.052Z" fill="white" stroke="#1E120D" stroke-width="0.72872" stroke-linecap="round" stroke-linejoin="round"/>
<path d="M156.345 222.503C150.299 221.155 146.267 235.468 145.49 240.048C151.801 239.541 156.572 230.436 155.992 225.382L156.345 222.503Z" fill="#1E120D"/>
<path d="M158.228 230.252C155.774 235.688 151.435 240.262 150.211 246.194C148.986 252.126 150.745 256.821 152.977 262.176C154.909 257.11 157.252 251.354 157.646 245.822C158.011 241.068 156.922 236.238 158.37 231.68L158.228 230.252Z" fill="#1E120D"/>
<path d="M160.463 231.312C160.675 235.424 165.306 243.524 170.318 240.346C167.81 236.062 166.02 235.799 162.486 232.711L160.463 231.312Z" fill="#1E120D"/>
<path d="M166.376 193.82C161.004 192.939 154.007 193.703 150.131 198.088C152.039 200.87 159.801 197.335 162.375 196.081L166.376 193.82Z" fill="#1E120D"/>
<path d="M150.985 179.339C144.837 173.113 141.775 174.208 133.555 174.723C129.32 174.983 123.134 174.159 119.757 171.579C125.685 176.234 128.735 180.471 136.828 181.839C141.438 182.349 146.103 181.786 150.46 180.194L150.985 179.339Z" fill="#1E120D"/>
<path d="M173.939 176.678C170.927 175.236 169.949 171.879 166.567 170.78C163.521 169.802 160.341 170.748 157.117 170.157C161.688 174.981 166.891 175.435 172.61 176.999L173.939 176.678Z" fill="#1E120D"/>
<path d="M129.509 200.037C123.989 203.949 127.737 213.1 129.618 218.034L129.69 218.283C128.668 212.171 135.707 207.825 131.321 201.357L129.509 200.037Z" fill="#1E120D"/>
<path d="M122.929 204.168C116.202 208.065 112.681 200.954 109.248 196.918C105.457 192.567 100.64 191.493 95.0922 192.883C100.385 194.839 103.556 201.11 108.61 203.764C112.115 205.614 115.636 205.392 119.395 205.467L122.929 204.168Z" fill="#1E120D"/>
<path d="M58.9383 155.773C46.0281 156.854 47.6952 172.695 41.5239 180.654C51.1503 175.706 53.3621 169.948 57.5137 158.376L58.9383 155.773Z" fill="#1E120D"/>
<path d="M58.8137 160.339C62.2185 164.511 70.42 168.635 68.2891 175.269C65.7314 172.081 60.9554 171.524 59.7811 166.945L58.8137 160.339Z" fill="#1E120D"/>
<path d="M62.0838 177.289C67.3459 177.208 72.162 180.718 71.4066 186.42C67.8847 183.762 64.7387 182.161 62.8042 178.009L62.0838 177.289Z" fill="#1E120D"/>
<path d="M87.1623 126.763C81.5471 128.859 80.216 123.995 76.5881 121.329C72.2768 118.147 68.185 120.987 63.3708 120.005C68.2505 124.511 75.0333 131.773 81.7994 128.878L87.1623 126.763Z" fill="#1E120D"/>
<path d="M96.64 121.357C96.5576 121.348 96.4741 121.358 96.3968 121.388L95.0155 122.072C86.2996 132.236 83.3189 140.386 85.7761 147.049C85.843 147.139 85.9378 147.204 86.0458 147.235C86.0916 147.244 86.1388 147.244 86.1843 147.233C86.2298 147.223 86.2725 147.202 86.3096 147.174C87.3593 146.483 88.3046 145.645 89.1168 144.686C89.3622 149.149 90.8219 153.461 93.3386 157.155C93.3973 157.218 93.4688 157.267 93.5483 157.3C93.6008 157.303 93.6532 157.294 93.7017 157.274C93.7502 157.254 93.7935 157.223 93.8283 157.184C95.4772 155.405 96.7325 153.298 97.5123 151.002C98.2921 148.705 98.5788 146.27 98.3539 143.855C98.6039 144.117 98.8678 144.367 99.1445 144.601C99.4624 144.788 99.7301 145.049 99.9248 145.362C99.9786 145.422 100.045 145.468 100.12 145.497L100.194 145.549C100.252 145.541 100.306 145.52 100.355 145.489C100.403 145.457 100.445 145.416 100.476 145.367C104.627 137.894 99.3446 126.862 96.8347 121.492C96.7709 121.426 96.6945 121.373 96.61 121.336L96.64 121.357Z" fill="white"/>
<path d="M93.5832 157.058C90.8992 153.137 89.4772 148.489 89.5076 143.737C88.5877 144.999 87.4517 146.088 86.1521 146.954C82.9407 138.308 89.9861 128.605 95.1969 122.419L96.6139 121.715C99.6346 128.236 104.146 138.269 100.271 145.247C99.3575 144.526 98.5876 143.641 98.0013 142.636C98.3486 148.281 97.6136 152.802 93.6339 157.049" fill="white"/>
<path d="M93.5832 157.058C90.8992 153.137 89.4772 148.489 89.5076 143.737C88.5877 144.999 87.4517 146.088 86.1521 146.954C82.9407 138.308 89.9861 128.605 95.1969 122.419L96.6139 121.715C99.6346 128.236 104.146 138.269 100.271 145.247C99.3575 144.526 98.5876 143.641 98.0013 142.636C98.3486 148.281 97.6136 152.802 93.6339 157.049" stroke="#1E120D" stroke-width="1.00199" stroke-linecap="round" stroke-linejoin="round"/>
<path d="M57.5456 112.895C48.9225 121.195 44.0665 131.128 47.1334 142.576C47.6873 137.133 53.858 135.355 55.6898 130.53C57.6908 125.268 54.8446 120.064 56.2222 114.615L57.5456 112.895Z" fill="#1E120D"/>
<path d="M55.7279 114.273C53.5201 109.268 47.0657 110.495 42.9124 111.92C45.7459 114.625 49.4631 116.213 53.3769 116.391L55.7279 114.273Z" fill="#1E120D"/>
<path d="M83.0152 109.095C77.905 108.86 75.013 113.04 72.5981 117.395C76.838 116.806 83.447 116.283 83.6357 111.496C83.53 110.672 83.3215 109.866 83.0152 109.095Z" fill="#1E120D"/>
<path d="M82.6328 108.431C76.058 107.271 75.2798 97.6057 73.2817 92.7451C70.7404 86.5561 64.2677 87.9706 59.993 83.5507C61.1824 93.1022 69.6649 104.953 78.6092 108.195L82.6328 108.431Z" fill="#1E120D"/>
<path d="M159.965 144.524C158.173 147.338 152.958 144.727 150.534 143.426C146.289 141.109 144.324 139.595 139.247 140.048C139.967 141.358 140.907 142.533 142.027 143.522C137.013 139.499 128.836 146.579 123.717 148.31C132.092 152.887 137.889 156.388 147.54 154.093C147.417 154.495 147.157 154.936 146.993 155.332C150.63 156.031 157.786 152.188 159.595 148.389C160.201 147.193 160.333 145.813 159.965 144.524Z" fill="white" stroke="#1E120D" stroke-width="1.00199" stroke-linecap="round" stroke-linejoin="round"/>
<path d="M174.169 158.095C172.475 159.936 168.26 157.862 165.604 158.372C161.745 159.114 159.55 162.159 156.555 164.406C160.048 164.608 164.746 165.023 168.203 163.804C170.751 162.908 172.718 160.481 174.659 159.564L174.169 158.095Z" fill="#1E120D"/>
<path d="M170.857 147.961C170.875 142.236 178.368 139.667 177.999 132.965C173.391 136.422 169.246 140.555 170.365 147.2L170.857 147.961Z" fill="#1E120D"/>
<path d="M155.582 122.971C157.231 119.947 164.605 119.887 167.959 118.53C171.184 117.283 174.171 115.49 176.788 113.23C167.044 110.919 162.28 118.189 154.813 121.553L155.582 122.971Z" fill="#1E120D"/>
<path d="M152.993 118.964C152.744 114.073 157.202 110.8 158.859 106.452C161.745 99.0781 159.103 94.3479 157.937 87.2276C157.775 94.2492 151.834 100.019 150.915 106.982C150.496 110.79 152.172 114.099 151.4 117.84L152.993 118.964Z" fill="#1E120D"/>
<path d="M131.951 97.2498C144.601 92.5106 148.85 79.9653 148.372 67.8488C148.031 71.2238 144.89 73.7468 143.169 76.5218C141.106 79.9796 139.511 83.6957 138.425 87.5728C137.17 91.4677 135.835 95.639 131.259 96.3282L131.951 97.2498Z" fill="#1E120D"/>
<path d="M130.13 95.015C131.285 90.3845 132.764 85.8406 134.554 81.4165C136.769 75.4613 141.821 68.1906 137.604 61.9272C136.945 63.5771 136.075 65.1349 135.017 66.5621C136.893 60.9699 133.759 53.6843 129.47 50.0526C123.56 51.9669 120.094 64.5004 121.688 71.4513C120.327 70.6647 119.29 69.7927 118.002 68.9013C118.196 76.7224 125.183 81.5125 128.694 86.8439C129.942 89.3749 130.44 92.2101 130.13 95.015Z" fill="white" stroke="#1E120D" stroke-width="1.00199" stroke-linecap="round" stroke-linejoin="round"/>
<path d="M125.621 93.0471C119.297 92.2608 113.567 103.072 113.364 108.36C117.315 102.874 124.591 100.908 126.016 93.2763L125.621 93.0471Z" fill="#1E120D"/>
<path d="M183.131 165.315C182.162 158.774 196.379 158.974 199.483 154.808C198.403 155.057 197.177 154.94 196.091 155.164C203.544 152.589 207.613 145.811 210.403 138.769C203.111 137.269 192.592 138.897 188.63 146.191C188.774 145.471 188.622 144.634 188.755 143.929C184.336 146.41 185.249 151.495 184.653 155.557C184.204 158.481 181.354 162.535 182.528 164.809L183.131 165.315Z" fill="white" stroke="#1E120D" stroke-width="1.00199" stroke-linecap="round" stroke-linejoin="round"/>
<path d="M201.192 184.036C200.772 180.578 205.285 177.032 206.803 174.006C208.615 170.298 210.443 163.942 208.035 160.282C207.284 164.569 202.488 168.075 201.27 172.814C200.427 176.171 200.157 179.647 200.471 183.094L201.192 184.036Z" fill="#1E120D"/>
<path d="M225.065 205.406C224.949 201.538 228.515 198.466 228.021 193.96C227.608 190.395 225.777 184.653 221.956 183.516C225.338 189.578 217.555 198.393 223.898 204.178L225.065 205.406Z" fill="#1E120D"/>
<path d="M159.63 144.624C159.672 152.407 144.523 151.762 139.575 151.196C134.627 150.631 128.016 147.475 123.703 148.522" stroke="#1E120D" stroke-width="0.910901" stroke-miterlimit="10"/>
<path d="M141.798 143.629C146.458 146.499 150.652 149.755 156.347 149.464" stroke="#1E120D" stroke-width="0.309706" stroke-miterlimit="10"/>
<path d="M147.067 155.449C149.714 154.313 154.854 151.976 156.377 149.485" stroke="#1E120D" stroke-width="0.309706" stroke-miterlimit="10"/>
<path d="M133.404 143.914C137.976 144.862 140.646 149.456 143.549 151.664" stroke="#1E120D" stroke-width="0.309706" stroke-miterlimit="10"/>
<path d="M135.708 153.904C138.536 153.495 141.3 152.728 143.934 151.62" stroke="#1E120D" stroke-width="0.309706" stroke-miterlimit="10"/>
<path d="M128.229 120.816C127.811 119.242 130.492 118.217 131.763 117.789C134.005 117.014 135.237 116.803 136.706 114.807C136.013 114.635 135.295 114.589 134.586 114.669C137.692 114.182 137.829 108.894 138.87 106.557C134.505 107.967 131.273 108.988 128.901 113.217C128.793 113.023 128.704 112.821 128.633 112.611C126.852 113.904 126.265 119.236 127.442 120.449L128.229 120.816Z" fill="white" stroke="#1E120D" stroke-width="0.36436" stroke-linecap="round" stroke-linejoin="round"/>
<path d="M128.229 120.816C125.403 118.24 130.747 112.855 132.598 111.3C134.449 109.745 137.773 108.367 138.867 106.466" stroke="#1E120D" stroke-width="0.910901" stroke-miterlimit="10"/>
<path d="M134.568 114.568C131.988 115.287 129.454 115.748 127.653 117.87" stroke="#1E120D" stroke-width="0.145744" stroke-miterlimit="10"/>
<path d="M128.549 112.508C127.814 114.185 127.492 116.012 127.608 117.839" stroke="#1E120D" stroke-width="0.145744" stroke-miterlimit="10"/>
<path d="M137.285 111.441C135.443 112.759 132.87 112.219 131.106 112.527" stroke="#1E120D" stroke-width="0.145744" stroke-miterlimit="10"/>
<path d="M132.906 108.965C132.127 110.117 131.496 111.363 131.028 112.672" stroke="#1E120D" stroke-width="0.145744" stroke-miterlimit="10"/>
<path d="M210.033 138.824C199.428 139.838 183.188 156.139 182.415 165.196" stroke="#1E120D" stroke-width="0.910901" stroke-miterlimit="10"/>
<path d="M187.167 155.414C189.458 153.543 193.973 155.183 196.124 155.275" stroke="#1E120D" stroke-width="0.309706" stroke-miterlimit="10"/>
<path d="M186.887 155.53C186.354 151.912 187.224 148.226 189.319 145.228" stroke="#1E120D" stroke-width="0.309706" stroke-miterlimit="10"/>
<path d="M193.26 148.464C197.103 146.3 201.626 145.682 205.909 146.737" stroke="#1E120D" stroke-width="0.309706" stroke-miterlimit="10"/>
<path d="M198.606 139.137C196.357 141.236 193.119 145.243 193.205 148.448" stroke="#1E120D" stroke-width="0.309706" stroke-miterlimit="10"/>
<path d="M96.2737 122.078C91.7744 134.473 92.9294 144.554 93.5828 157.058" stroke="#1E120D" stroke-width="0.910901" stroke-miterlimit="10"/>
<path d="M96.563 121.725C94.795 124.024 90.7091 131.498 89.2471 144.466" stroke="#1E120D" stroke-width="0.309706" stroke-miterlimit="10"/>
<path d="M98.4139 144.184C95.1834 136.942 96.1183 130.5 96.5629 121.725" stroke="#1E120D" stroke-width="0.309706" stroke-miterlimit="10"/>
<path d="M92.9927 139.724C92.9404 142.846 91.6745 145.824 89.4635 148.027" stroke="#1E120D" stroke-width="0.309706" stroke-miterlimit="10"/>
<path d="M92.9927 139.724C92.7757 142.343 95.9355 148.118 97.9544 149.139" stroke="#1E120D" stroke-width="0.309706" stroke-miterlimit="10"/>
<path d="M129.426 50.0216C126.1 60.0156 124.867 67.6251 127.739 78.0749C129.191 83.2444 131.252 84.1391 130.497 91.858" stroke="#1E120D" stroke-width="0.910901" stroke-miterlimit="10"/>
<path d="M129.192 82.0266C133.25 79.3627 138.669 68.1363 137.529 61.8756" stroke="#1E120D" stroke-width="0.309706" stroke-miterlimit="10"/>
<path d="M129.191 82.0265C123.639 81.0867 119.304 73.3912 117.913 69.0616" stroke="#1E120D" stroke-width="0.309706" stroke-miterlimit="10"/>
<path d="M127.023 75.0101C128.369 68.5194 129.471 62.3478 134.652 57.5808" stroke="#1E120D" stroke-width="0.309706" stroke-miterlimit="10"/>
<path d="M122.734 59.1489C122.003 61.3901 121.707 70.9109 127.024 75.0101" stroke="#1E120D" stroke-width="0.309706" stroke-miterlimit="10"/>
<path d="M132.12 218.325C140.006 217.845 149.921 216.707 156.548 212.475" stroke="#1E120D" stroke-width="0.54654" stroke-miterlimit="10"/>
<path d="M160.015 206.057C163.857 216.513 182.726 220.619 190.736 218.584" stroke="#1E120D" stroke-width="0.910901" stroke-miterlimit="10"/>
<path d="M171.602 216.045C177.026 216.275 178.82 213.906 181.018 212.458" stroke="#1E120D" stroke-width="0.309706" stroke-miterlimit="10"/>
<path d="M171.151 216.088C173.034 217.372 174.646 219.014 175.894 220.92" stroke="#1E120D" stroke-width="0.309706" stroke-miterlimit="10"/>
<path d="M178.948 218.491C182.135 218.636 185.312 218.035 188.226 216.736" stroke="#1E120D" stroke-width="0.309706" stroke-miterlimit="10"/>
<path d="M178.948 218.492C179.366 219.38 180.012 220.142 180.82 220.701C181.627 221.26 182.568 221.596 183.547 221.674" stroke="#1E120D" stroke-width="0.309706" stroke-miterlimit="10"/>
<path d="M201.692 182.898L200.829 182.545C200.016 182.185 199.184 181.869 198.338 181.597L196.498 181.055C195.799 180.881 195.043 180.757 194.242 180.601C192.4 180.273 190.529 180.144 188.66 180.217C187.608 180.265 186.55 180.352 185.516 180.501C184.41 180.692 183.315 180.939 182.234 181.243C179.917 181.905 177.682 182.826 175.571 183.988C173.337 185.286 171.236 186.8 169.298 188.509C167.373 190.24 165.607 192.139 164.02 194.184C162.438 196.305 161.058 198.568 159.896 200.945C158.767 203.226 157.86 205.61 157.186 208.064C156.53 210.351 156.129 212.703 155.988 215.078C155.835 217.214 155.909 219.36 156.211 221.48C156.376 222.458 156.598 223.387 156.759 224.274L157.535 226.738L158.339 228.778C158.611 229.41 158.96 229.962 159.224 230.477C159.658 231.261 160.141 232.017 160.671 232.74L161.219 233.518C161.314 233.656 161.46 233.751 161.625 233.782C161.79 233.814 161.961 233.779 162.1 233.685C162.227 233.581 162.307 233.432 162.324 233.27C162.341 233.107 162.293 232.944 162.191 232.817L161.688 232.071C161.176 231.376 160.722 230.639 160.331 229.869C160.072 229.379 159.768 228.859 159.5 228.253L158.676 226.242L158.048 223.947C157.896 223.111 157.684 222.233 157.587 221.413C157.31 219.38 157.247 217.325 157.4 215.279C157.573 213.018 157.991 210.782 158.647 208.61C159.33 206.273 160.238 204.008 161.356 201.845C163.717 197.341 166.877 193.305 170.683 189.933C172.521 188.372 174.507 186.993 176.611 185.816C178.566 184.749 180.636 183.907 182.779 183.304C183.811 182.999 184.834 182.865 185.818 182.659C186.768 182.48 187.736 182.414 188.702 182.462C190.376 182.423 192.05 182.557 193.698 182.861C194.433 183.015 195.148 183.134 195.757 183.311L197.421 183.82C198.234 184.099 199.031 184.421 199.81 184.786L200.662 185.154C200.963 185.292 201.307 185.305 201.618 185.189C201.928 185.074 202.18 184.84 202.318 184.539C202.456 184.237 202.468 183.894 202.353 183.583C202.237 183.273 202.003 183.021 201.702 182.883L201.692 182.898Z" fill="#1E120D"/>
<path d="M157.381 224.527C163.899 231.917 171.03 238.933 180.187 240.683" stroke="#1E120D" stroke-width="0.910901" stroke-miterlimit="10"/>
<path d="M169.965 254.368C163.573 247.597 158.742 237.321 158.568 228.095" stroke="#1E120D" stroke-width="0.910901" stroke-miterlimit="10"/>
<path d="M189.283 195.934C196.231 191.88 207.445 194.499 214.662 197.676" stroke="#1E120D" stroke-width="0.910901" stroke-miterlimit="10"/>
<path d="M200.271 203.426C201.607 201.101 203.629 199.247 206.061 198.117C208.493 196.987 211.214 196.638 213.852 197.116" stroke="#1E120D" stroke-width="0.910901" stroke-miterlimit="10"/>
<path d="M91.6716 197.827C94.5475 205.71 102.812 212.912 111.506 210.465" stroke="#1E120D" stroke-width="0.910901" stroke-miterlimit="10"/>
<path d="M83.9455 200.413C87.9331 208.001 93.53 210.19 101.104 209.072" stroke="#1E120D" stroke-width="0.910901" stroke-miterlimit="10"/>
<path d="M122.901 204.37C120.315 208.238 118.753 212.699 118.361 217.335" stroke="#1E120D" stroke-width="0.910901" stroke-miterlimit="10"/>
<path d="M111.468 222.911C110.035 217.489 113.209 210.469 117.079 207.276" stroke="#1E120D" stroke-width="0.910901" stroke-miterlimit="10"/>
<path d="M201.939 183.534L200.638 181.571C200.123 180.766 199.55 180 198.924 179.278C198.156 178.435 197.351 177.325 196.317 176.322C193.891 173.828 191.329 171.47 188.641 169.261C185.574 166.651 181.972 163.915 178.179 160.848C176.295 159.345 174.365 157.588 172.378 155.881C170.391 154.174 168.458 152.261 166.471 150.266C162.516 146.377 158.3 142.065 153.799 137.843C149.254 133.386 144.285 129.383 138.961 125.893C133.396 122.268 127.18 119.758 120.658 118.502C114.115 117.317 107.392 117.572 100.957 119.249C94.7671 120.899 88.8988 123.579 83.5978 127.176C78.6833 130.561 74.1817 134.51 70.1848 138.942C66.496 142.822 63.2847 147.13 60.6193 151.774C58.2969 155.765 57.1234 160.32 57.2286 164.936C57.3176 166.853 57.6587 168.75 58.243 170.578C58.8553 172.286 59.4618 173.747 59.9899 175.065L63.412 183.503L64.6032 182.998L61.1638 174.681C60.6311 173.338 60.035 171.862 59.4758 170.301C58.9182 168.581 58.5972 166.794 58.5214 164.988C58.4493 160.613 59.5907 156.304 61.819 152.538C64.4296 147.995 67.5859 143.788 71.2175 140.011C75.1482 135.677 79.5681 131.814 84.3886 128.499C89.5551 124.993 95.2803 122.392 101.319 120.806C107.551 119.19 114.062 118.96 120.393 120.135C121.996 120.38 123.533 120.912 125.145 121.207C126.695 121.625 128.208 122.169 129.67 122.832L130.795 123.256L131.877 123.805L134.006 124.857C135.473 125.579 136.887 126.402 138.239 127.321C143.476 130.765 148.368 134.706 152.848 139.09C157.303 143.28 161.419 147.546 165.464 151.497C167.441 153.507 169.451 155.341 171.415 157.209C173.379 159.077 175.302 160.652 177.251 162.222C181.093 165.345 184.655 168.075 187.688 170.639C190.315 172.818 192.822 175.137 195.199 177.586C196.218 178.579 196.923 179.576 197.677 180.408C198.261 181.114 198.784 181.869 199.24 182.664L200.52 184.591L201.939 183.534Z" fill="#1E120D"/>
<path d="M58.0226 161.098C57.5013 167.583 54.0489 182.563 48.0538 185.881" stroke="#1E120D" stroke-width="0.910901" stroke-miterlimit="10"/>
<path d="M55.0699 175.228C56.7868 179.694 55.5645 184.631 53.4088 188.899" stroke="#1E120D" stroke-width="0.910901" stroke-miterlimit="10"/>
<path d="M123.042 119.731C117.645 118.748 112.567 116.471 108.243 113.093C103.92 109.716 100.481 105.34 98.2206 100.341" stroke="#1E120D" stroke-width="0.910901" stroke-miterlimit="10"/>
<path d="M108.394 113.206C104.228 110.102 106.275 106.247 106.311 101.552" stroke="#1E120D" stroke-width="0.910901" stroke-miterlimit="10"/>
<path d="M115.618 118.006C90.9893 111.754 71.3252 97.7496 49.1778 119.578C45.0698 123.559 41.5371 128.094 38.6815 133.051" stroke="#1E120D" stroke-width="1.29348" stroke-miterlimit="10"/>
<path d="M49.5694 119.428C45.4097 120.697 41.3806 122.36 37.5371 124.395" stroke="#1E120D" stroke-width="0.910901" stroke-miterlimit="10"/>
<path d="M47.7689 120.397C43.5295 122.713 39.8219 125.89 36.8843 129.725" stroke="#1E120D" stroke-width="0.910901" stroke-miterlimit="10"/>
<path d="M185.142 167.659C177.617 162.076 171.614 148.02 167.072 140.048C161.804 130.82 154.359 121.792 148.068 113.275C137.327 98.7323 125.677 90.0514 107.952 87.2692" stroke="#1E120D" stroke-width="1.29348" stroke-miterlimit="10"/>
<path d="M120.508 83.0186C112.509 78.5698 109.246 77.9071 101.083 78.2412" stroke="#1E120D" stroke-width="0.910901" stroke-miterlimit="10"/>
<path d="M126.84 93.5584C120.962 82.1371 113.603 71.7059 100.251 69.646" stroke="#1E120D" stroke-width="0.910901" stroke-miterlimit="10"/>
<path d="M148.562 178.615C153.824 180.616 158.789 180.131 164.159 178.773" stroke="#1E120D" stroke-width="0.910901" stroke-miterlimit="10"/>
<path d="M135.576 187.043C140.483 188.467 145.896 187.271 150.51 185.79" stroke="#1E120D" stroke-width="0.910901" stroke-miterlimit="10"/>
<path d="M144.355 197.791C144.707 193.501 146.624 189.49 149.739 186.519" stroke="#1E120D" stroke-width="0.910901" stroke-miterlimit="10"/>
<path d="M167.016 130.107C167.686 132.918 167.478 135.867 166.42 138.556" stroke="#1E120D" stroke-width="0.910901" stroke-miterlimit="10"/>
<path d="M143.59 122.051C148.522 126.194 147.676 128.954 148.192 133.587" stroke="#1E120D" stroke-width="0.910901" stroke-miterlimit="10"/>
<path d="M171.54 98.1456C169.878 107.208 161.884 116.52 153.719 120.22" stroke="#1E120D" stroke-width="0.910901" stroke-miterlimit="10"/>
<path d="M166.558 95.4519C166.649 102.493 166.71 107.431 163.45 113.04" stroke="#1E120D" stroke-width="0.910901" stroke-miterlimit="10"/>
<path d="M70.2271 150.247C69.9494 146.422 71.2699 138.43 72.3587 138.297" stroke="#1E120D" stroke-width="0.910901" stroke-miterlimit="10"/>
<path d="M64.6634 155.503C63.9931 152.469 66.8499 145.939 70.9334 142.118" stroke="#1E120D" stroke-width="0.910901" stroke-miterlimit="10"/>
<path d="M97.5962 71.2426C98.0246 71.3391 98.472 71.3066 98.8819 71.1491C99.2919 70.9917 99.646 70.7163 99.8995 70.3577C100.153 69.9992 100.295 69.5735 100.307 69.1345C100.319 68.6955 100.2 68.2629 99.9663 67.8911C99.7325 67.5194 99.3939 67.2252 98.993 67.0458C98.5922 66.8663 98.1472 66.8097 97.7142 66.8829C97.2812 66.9561 96.8796 67.156 96.5601 67.4573C96.2406 67.7586 96.0175 68.1477 95.919 68.5757C95.7913 69.1515 95.8958 69.7544 96.2098 70.2536C96.5238 70.7529 97.0219 71.1082 97.5962 71.2426Z" fill="#BF5050"/>
<path d="M96.9036 70.0988C97.0663 70.1329 97.2358 70.102 97.3761 70.0129C97.5164 69.9238 97.6164 69.7833 97.6547 69.6216C97.6935 69.4581 97.6662 69.286 97.5788 69.1425C97.4914 68.9991 97.3509 68.896 97.1878 68.8555C97.1087 68.8349 97.0263 68.8306 96.9455 68.843C96.8647 68.8553 96.7873 68.884 96.718 68.9272C96.6487 68.9705 96.5889 69.0274 96.5423 69.0946C96.4957 69.1617 96.4633 69.2377 96.4471 69.3177C96.4083 69.4816 96.4341 69.6542 96.5191 69.7996C96.6041 69.945 96.7418 70.0521 96.9036 70.0988Z" fill="white"/>
<path d="M99.0162 80.3331C99.443 80.4204 99.886 80.3803 100.29 80.2179C100.695 80.0554 101.042 79.7778 101.29 79.4194C101.538 79.061 101.674 78.6378 101.684 78.2022C101.693 77.7667 101.574 77.338 101.341 76.9696C101.109 76.6011 100.773 76.3091 100.376 76.1299C99.979 75.9506 99.538 75.892 99.1079 75.9613C98.6778 76.0306 98.2775 76.2248 97.9569 76.5197C97.6362 76.8147 97.4093 77.1973 97.3044 77.6202C97.2322 77.911 97.2195 78.2134 97.2672 78.5092C97.3149 78.8051 97.4219 79.0882 97.5818 79.3416C97.7417 79.595 97.9512 79.8135 98.1977 79.9839C98.4442 80.1543 98.7226 80.2731 99.0162 80.3331Z" fill="#BF5050"/>
<path d="M98.4085 79.2261C98.568 79.2625 98.7354 79.2343 98.8742 79.1477C99.0129 79.0611 99.1118 78.9231 99.1492 78.7639C99.188 78.6004 99.1607 78.4283 99.0733 78.2849C98.9859 78.1414 98.8454 78.0382 98.6824 77.9978C98.529 77.9568 98.3656 77.9782 98.2279 78.0572C98.0902 78.1363 97.9894 78.2666 97.9474 78.4197C97.9268 78.4988 97.9225 78.5812 97.9349 78.662C97.9472 78.7428 97.9759 78.8202 98.0191 78.8895C98.0624 78.9589 98.1193 79.0186 98.1865 79.0652C98.2536 79.1118 98.3295 79.1442 98.4096 79.1605L98.4085 79.2261Z" fill="white"/>
<path d="M97.6935 102.48C98.1219 102.577 98.5693 102.544 98.9793 102.387C99.3892 102.229 99.7433 101.954 99.9969 101.595C100.25 101.237 100.392 100.811 100.404 100.372C100.416 99.933 100.297 99.5003 100.064 99.1286C99.8299 98.7569 99.4912 98.4627 99.0904 98.2833C98.6896 98.1038 98.2446 98.0471 97.8116 98.1204C97.3785 98.1936 96.9769 98.3935 96.6574 98.6948C96.3379 98.996 96.1148 99.3852 96.0163 99.8132C95.9506 100.098 95.9419 100.394 95.9907 100.683C96.0396 100.971 96.1449 101.247 96.3008 101.495C96.4566 101.743 96.6599 101.957 96.8989 102.127C97.1379 102.296 97.4079 102.416 97.6935 102.48Z" fill="#BF5050"/>
<path d="M97.0216 101.306C97.1007 101.327 97.1831 101.331 97.2639 101.319C97.3447 101.306 97.4221 101.278 97.4914 101.234C97.5608 101.191 97.6205 101.134 97.6671 101.067C97.7137 101 97.7461 100.924 97.7623 100.844C97.8011 100.681 97.7739 100.508 97.6864 100.365C97.599 100.221 97.4585 100.118 97.2955 100.078C97.1296 100.046 96.9578 100.08 96.816 100.171C96.6741 100.263 96.5731 100.406 96.534 100.57C96.5046 100.732 96.5389 100.899 96.6298 101.036C96.7207 101.173 96.861 101.27 97.0216 101.306Z" fill="white"/>
<path d="M106.428 103.849C106.856 103.95 107.304 103.922 107.716 103.768C108.128 103.615 108.485 103.342 108.742 102.986C108.999 102.629 109.145 102.204 109.161 101.765C109.176 101.325 109.061 100.891 108.83 100.517C108.599 100.143 108.262 99.8459 107.861 99.6635C107.461 99.4811 107.016 99.4215 106.582 99.4921C106.148 99.5628 105.745 99.7607 105.423 100.061C105.102 100.361 104.876 100.749 104.776 101.177C104.643 101.747 104.743 102.345 105.051 102.841C105.36 103.338 105.854 103.691 106.423 103.823L106.428 103.849Z" fill="#BF5050"/>
<path d="M105.735 102.705C105.888 102.746 106.052 102.725 106.189 102.646C106.327 102.566 106.428 102.436 106.47 102.283C106.509 102.12 106.481 101.947 106.394 101.804C106.307 101.661 106.166 101.557 106.003 101.517C105.924 101.496 105.841 101.492 105.761 101.504C105.68 101.517 105.603 101.545 105.533 101.589C105.464 101.632 105.404 101.689 105.357 101.756C105.311 101.823 105.279 101.899 105.262 101.979C105.221 102.133 105.243 102.296 105.322 102.434C105.401 102.571 105.531 102.672 105.684 102.714L105.735 102.705Z" fill="white"/>
<path d="M170.376 97.6504C170.368 98.0901 170.49 98.5224 170.727 98.8926C170.964 99.2628 171.306 99.5543 171.709 99.7302C172.112 99.9061 172.558 99.9585 172.991 99.8808C173.424 99.803 173.824 99.5986 174.141 99.2935C174.457 98.9883 174.676 98.596 174.77 98.1664C174.863 97.7367 174.828 97.2889 174.667 96.8797C174.506 96.4705 174.227 96.1182 173.866 95.8674C173.504 95.6166 173.077 95.4787 172.637 95.471C172.049 95.4606 171.48 95.6843 171.056 96.0929C170.632 96.5016 170.387 97.0617 170.376 97.6504Z" fill="#BF5050"/>
<path d="M171.362 96.7375C171.338 96.8693 171.357 97.0051 171.415 97.1259C171.472 97.2466 171.567 97.3461 171.684 97.4102C171.802 97.4744 171.936 97.4999 172.069 97.4833C172.202 97.4666 172.326 97.4086 172.424 97.3174C172.522 97.2262 172.589 97.1065 172.615 96.9752C172.641 96.8439 172.625 96.7078 172.57 96.586C172.514 96.4642 172.422 96.363 172.306 96.2967C172.189 96.2304 172.055 96.2024 171.922 96.2166C171.784 96.2282 171.654 96.2859 171.552 96.3803C171.451 96.4748 171.384 96.6006 171.362 96.7375Z" fill="white"/>
<path d="M165.066 94.9509C165.058 95.3906 165.18 95.8229 165.417 96.1931C165.654 96.5634 165.996 96.8549 166.399 97.0308C166.802 97.2067 167.248 97.2591 167.681 97.1813C168.114 97.1036 168.514 96.8992 168.831 96.594C169.147 96.2888 169.366 95.8966 169.46 95.4669C169.553 95.0372 169.517 94.5895 169.357 94.1802C169.196 93.771 168.917 93.4187 168.556 93.1679C168.194 92.9172 167.767 92.7792 167.327 92.7715C166.738 92.7612 166.17 92.9849 165.746 93.3935C165.322 93.8021 165.077 94.3622 165.066 94.9509Z" fill="#BF5050"/>
<path d="M166.097 94.0692C166.094 94.2362 166.157 94.3976 166.272 94.5187C166.387 94.6397 166.545 94.7108 166.712 94.7166C166.865 94.6993 167.007 94.6273 167.111 94.5138C167.215 94.4003 167.274 94.253 167.278 94.0991C167.282 93.9451 167.23 93.795 167.132 93.6764C167.034 93.5578 166.896 93.4787 166.744 93.4538C166.577 93.4511 166.416 93.5141 166.295 93.6292C166.174 93.7443 166.103 93.9023 166.097 94.0692Z" fill="white"/>
<path d="M166.988 130.885C167.252 130.991 167.535 131.042 167.819 131.034C168.103 131.026 168.383 130.961 168.641 130.84C168.899 130.72 169.129 130.548 169.318 130.335C169.507 130.122 169.649 129.873 169.738 129.602C169.826 129.332 169.858 129.046 169.831 128.763C169.804 128.48 169.72 128.205 169.582 127.956C169.445 127.707 169.258 127.488 169.033 127.314C168.808 127.14 168.549 127.015 168.274 126.945C168.16 126.895 168.04 126.864 167.916 126.853C167.656 126.79 167.385 126.779 167.12 126.821C166.855 126.863 166.601 126.957 166.373 127.097C166.144 127.237 165.945 127.421 165.788 127.638C165.63 127.855 165.517 128.101 165.455 128.362C165.388 128.628 165.375 128.905 165.416 129.176C165.458 129.448 165.552 129.708 165.695 129.943C165.837 130.178 166.025 130.382 166.247 130.543C166.469 130.705 166.721 130.821 166.988 130.885Z" fill="#BF5050"/>
<path d="M166.349 129.822C166.501 129.854 166.659 129.825 166.79 129.743C166.922 129.66 167.016 129.53 167.054 129.38C167.073 129.306 167.077 129.229 167.066 129.154C167.055 129.078 167.028 129.006 166.988 128.941C166.948 128.876 166.896 128.82 166.833 128.776C166.771 128.732 166.701 128.701 166.626 128.685C166.552 128.666 166.475 128.662 166.4 128.673C166.325 128.684 166.252 128.711 166.187 128.751C166.123 128.791 166.066 128.843 166.022 128.905C165.978 128.968 165.947 129.038 165.931 129.113C165.898 129.262 165.922 129.418 166 129.55C166.077 129.682 166.202 129.779 166.349 129.822Z" fill="white"/>
<path d="M189.89 197.905C190.119 197.53 190.23 197.095 190.212 196.657C190.193 196.218 190.045 195.794 189.786 195.439C189.527 195.085 189.168 194.815 188.756 194.664C188.343 194.513 187.895 194.487 187.468 194.59C187.042 194.694 186.655 194.921 186.357 195.244C186.059 195.567 185.864 195.971 185.796 196.405C185.727 196.839 185.789 197.283 185.973 197.682C186.158 198.081 186.456 198.416 186.83 198.646C187.335 198.95 187.94 199.042 188.512 198.904C189.085 198.765 189.58 198.406 189.89 197.905Z" fill="#BF5050"/>
<path d="M188.582 198.196C188.668 198.054 188.696 197.884 188.659 197.722C188.623 197.56 188.524 197.419 188.384 197.328C188.239 197.245 188.067 197.22 187.903 197.259C187.74 197.299 187.598 197.4 187.507 197.541C187.443 197.677 187.43 197.832 187.469 197.977C187.508 198.122 187.598 198.249 187.722 198.334C187.845 198.42 187.996 198.459 188.145 198.445C188.295 198.43 188.435 198.364 188.54 198.256L188.582 198.196Z" fill="white"/>
<path d="M200.88 204.756C201.111 204.382 201.227 203.948 201.212 203.509C201.197 203.07 201.053 202.645 200.796 202.288C200.54 201.932 200.184 201.659 199.773 201.504C199.361 201.349 198.914 201.32 198.486 201.42C198.058 201.52 197.669 201.744 197.369 202.065C197.068 202.386 196.87 202.788 196.798 203.222C196.726 203.655 196.785 204.1 196.966 204.5C197.147 204.901 197.442 205.238 197.815 205.471C198.061 205.624 198.335 205.727 198.621 205.774C198.907 205.822 199.2 205.812 199.482 205.746C199.765 205.68 200.031 205.559 200.267 205.39C200.502 205.221 200.702 205.007 200.855 204.76L200.88 204.756Z" fill="#BF5050"/>
<path d="M199.631 205.088C199.675 205.016 199.704 204.937 199.717 204.854C199.73 204.771 199.727 204.686 199.707 204.605C199.687 204.523 199.651 204.446 199.602 204.379C199.552 204.311 199.49 204.253 199.418 204.21C199.266 204.137 199.091 204.128 198.932 204.184C198.773 204.24 198.643 204.357 198.569 204.509C198.514 204.63 198.497 204.766 198.521 204.897C198.545 205.028 198.609 205.149 198.703 205.244C198.769 205.295 198.845 205.333 198.926 205.356C199.007 205.378 199.091 205.385 199.174 205.374C199.258 205.364 199.338 205.337 199.411 205.296C199.484 205.254 199.548 205.199 199.6 205.133L199.631 205.088Z" fill="white"/>
<path d="M182.49 238.731C182.125 238.479 181.694 238.341 181.251 238.334C180.808 238.326 180.373 238.451 180 238.691C179.628 238.931 179.335 239.276 179.159 239.683C178.983 240.09 178.931 240.54 179.01 240.976C179.09 241.412 179.297 241.814 179.605 242.133C179.913 242.451 180.309 242.671 180.742 242.764C181.175 242.858 181.627 242.821 182.039 242.658C182.451 242.495 182.805 242.214 183.058 241.849C183.396 241.36 183.526 240.757 183.419 240.173C183.313 239.588 182.979 239.069 182.49 238.731Z" fill="#BF5050"/>
<path d="M182.735 240.075C182.595 239.984 182.426 239.952 182.264 239.984C182.101 240.016 181.957 240.11 181.862 240.247C181.769 240.382 181.733 240.549 181.762 240.71C181.792 240.872 181.884 241.015 182.019 241.109C182.083 241.155 182.155 241.189 182.232 241.208C182.308 241.227 182.388 241.231 182.466 241.219C182.544 241.208 182.619 241.18 182.687 241.14C182.755 241.099 182.814 241.045 182.86 240.982C182.954 240.846 182.99 240.68 182.96 240.518C182.931 240.357 182.839 240.213 182.703 240.12L182.735 240.075Z" fill="white"/>
<path d="M171.832 254.552C171.545 254.221 171.168 253.982 170.746 253.864C170.324 253.747 169.878 253.757 169.461 253.893C169.045 254.028 168.679 254.284 168.407 254.627C168.136 254.97 167.972 255.386 167.935 255.822C167.899 256.259 167.993 256.696 168.204 257.079C168.416 257.462 168.735 257.775 169.124 257.977C169.512 258.179 169.951 258.262 170.386 258.216C170.821 258.169 171.233 257.996 171.57 257.716C171.797 257.527 171.985 257.295 172.122 257.033C172.258 256.77 172.341 256.484 172.366 256.189C172.39 255.894 172.355 255.598 172.264 255.317C172.172 255.036 172.025 254.776 171.832 254.552Z" fill="#BF5050"/>
<path d="M171.697 255.899C171.645 255.832 171.579 255.776 171.505 255.735C171.43 255.694 171.348 255.668 171.264 255.659C171.179 255.65 171.094 255.658 171.012 255.683C170.931 255.707 170.855 255.748 170.789 255.802C170.724 255.856 170.669 255.921 170.628 255.996C170.588 256.07 170.562 256.152 170.553 256.236C170.544 256.321 170.552 256.406 170.576 256.487C170.6 256.569 170.64 256.644 170.693 256.71C170.746 256.776 170.812 256.831 170.886 256.872C170.961 256.912 171.043 256.938 171.127 256.947C171.211 256.956 171.296 256.948 171.378 256.924C171.459 256.9 171.535 256.86 171.601 256.807C171.664 256.755 171.716 256.69 171.754 256.618C171.792 256.545 171.815 256.465 171.822 256.384C171.829 256.302 171.82 256.22 171.795 256.142C171.77 256.064 171.73 255.991 171.677 255.929L171.697 255.899Z" fill="white"/>
<path d="M143.57 201.103C144.146 201.235 144.751 201.132 145.251 200.817C145.751 200.502 146.106 200.002 146.237 199.426C146.368 198.85 146.265 198.245 145.951 197.745C145.636 197.245 145.136 196.89 144.56 196.759C143.991 196.627 143.392 196.726 142.896 197.035C142.399 197.344 142.046 197.837 141.914 198.406C141.844 198.69 141.832 198.985 141.878 199.274C141.924 199.563 142.027 199.839 142.18 200.088C142.334 200.337 142.536 200.552 142.774 200.722C143.011 200.892 143.281 201.013 143.566 201.078L143.57 201.103Z" fill="#BF5050"/>
<path d="M142.873 199.934C143.03 199.977 143.198 199.957 143.341 199.877C143.483 199.797 143.588 199.664 143.633 199.507C143.667 199.345 143.637 199.175 143.547 199.035C143.458 198.894 143.318 198.794 143.156 198.756C142.993 198.717 142.82 198.745 142.677 198.832C142.534 198.919 142.43 199.06 142.39 199.223C142.369 199.302 142.365 199.385 142.377 199.465C142.39 199.546 142.418 199.624 142.462 199.693C142.505 199.762 142.562 199.822 142.629 199.869C142.696 199.915 142.772 199.948 142.852 199.964L142.873 199.934Z" fill="white"/>
<path d="M131.67 187.309C131.807 187.883 132.167 188.379 132.67 188.687C133.173 188.996 133.778 189.092 134.352 188.954C134.926 188.817 135.422 188.457 135.731 187.954C136.039 187.451 136.136 186.846 135.998 186.272C135.949 186.08 135.876 185.895 135.78 185.722C135.522 185.25 135.1 184.887 134.594 184.702C134.089 184.517 133.533 184.522 133.03 184.716C132.528 184.91 132.113 185.28 131.863 185.757C131.612 186.233 131.544 186.785 131.67 187.309Z" fill="#BF5050"/>
<path d="M132.199 186.191C132.287 186.336 132.428 186.442 132.592 186.485C132.757 186.528 132.931 186.506 133.08 186.424C133.198 186.353 133.29 186.246 133.343 186.118C133.395 185.99 133.404 185.849 133.37 185.716C133.282 185.571 133.141 185.465 132.976 185.422C132.812 185.379 132.638 185.401 132.489 185.483C132.371 185.554 132.279 185.661 132.226 185.789C132.174 185.916 132.165 186.058 132.199 186.191Z" fill="white"/>
<path d="M117.775 220.518C118.203 220.619 118.652 220.591 119.064 220.438C119.476 220.284 119.833 220.012 120.09 219.655C120.347 219.298 120.493 218.873 120.508 218.434C120.524 217.995 120.409 217.56 120.177 217.186C119.946 216.812 119.609 216.515 119.209 216.333C118.809 216.151 118.364 216.091 117.93 216.162C117.496 216.232 117.092 216.43 116.771 216.73C116.449 217.03 116.224 217.419 116.123 217.847C115.991 218.416 116.09 219.015 116.399 219.511C116.708 220.007 117.201 220.36 117.771 220.493L117.775 220.518Z" fill="#BF5050"/>
<path d="M117.114 219.329C117.194 219.346 117.277 219.346 117.357 219.33C117.438 219.315 117.514 219.283 117.583 219.238C117.651 219.193 117.71 219.134 117.756 219.066C117.801 218.999 117.833 218.922 117.85 218.842C117.866 218.761 117.866 218.679 117.851 218.598C117.835 218.518 117.804 218.441 117.758 218.373C117.713 218.304 117.655 218.246 117.587 218.2C117.519 218.154 117.442 218.122 117.362 218.106C117.2 218.073 117.031 218.106 116.893 218.197C116.755 218.288 116.659 218.431 116.626 218.593C116.593 218.756 116.626 218.924 116.717 219.062C116.809 219.2 116.951 219.296 117.114 219.329Z" fill="white"/>
<path d="M111.287 226.374C111.715 226.476 112.163 226.448 112.575 226.294C112.987 226.14 113.344 225.868 113.601 225.511C113.858 225.155 114.004 224.73 114.02 224.29C114.035 223.851 113.92 223.417 113.689 223.043C113.458 222.669 113.121 222.372 112.721 222.189C112.32 222.007 111.875 221.947 111.441 222.018C111.007 222.088 110.604 222.286 110.282 222.586C109.961 222.886 109.735 223.275 109.635 223.703C109.567 223.985 109.555 224.278 109.601 224.565C109.647 224.851 109.748 225.126 109.9 225.373C110.053 225.621 110.252 225.835 110.487 226.005C110.723 226.175 110.989 226.297 111.272 226.364L111.287 226.374Z" fill="#BF5050"/>
<path d="M110.565 225.144C110.724 225.149 110.881 225.098 111.006 224.998C111.131 224.899 111.217 224.759 111.248 224.602C111.279 224.446 111.254 224.283 111.176 224.143C111.099 224.004 110.974 223.896 110.825 223.84C110.746 223.819 110.663 223.815 110.582 223.827C110.501 223.838 110.423 223.866 110.353 223.908C110.283 223.95 110.221 224.006 110.173 224.071C110.124 224.137 110.089 224.212 110.069 224.292C110.04 224.371 110.027 224.455 110.031 224.539C110.035 224.623 110.055 224.706 110.091 224.782C110.126 224.858 110.177 224.927 110.239 224.983C110.302 225.04 110.375 225.084 110.454 225.112C110.488 225.131 110.526 225.142 110.565 225.144Z" fill="white"/>
<path d="M142.372 123.268C142.799 123.363 143.245 123.329 143.653 123.171C144.062 123.012 144.414 122.737 144.666 122.38C144.919 122.022 145.06 121.598 145.072 121.161C145.085 120.723 144.968 120.292 144.736 119.92C144.504 119.549 144.167 119.255 143.769 119.074C143.37 118.893 142.927 118.834 142.495 118.904C142.063 118.974 141.661 119.17 141.34 119.468C141.019 119.765 140.793 120.151 140.69 120.576C140.621 120.864 140.609 121.162 140.657 121.454C140.704 121.745 140.809 122.025 140.966 122.276C141.122 122.526 141.327 122.743 141.569 122.914C141.81 123.084 142.083 123.205 142.372 123.268Z" fill="#BF5050"/>
<path d="M141.679 122.125C141.761 122.143 141.846 122.144 141.929 122.129C142.012 122.114 142.092 122.083 142.162 122.037C142.233 121.992 142.294 121.932 142.342 121.863C142.39 121.793 142.423 121.715 142.44 121.632C142.474 121.47 142.444 121.3 142.354 121.16C142.265 121.019 142.125 120.919 141.963 120.881C141.801 120.852 141.633 120.884 141.494 120.973C141.355 121.061 141.254 121.199 141.212 121.358C141.173 121.522 141.201 121.694 141.288 121.837C141.375 121.981 141.516 122.084 141.679 122.125Z" fill="white"/>
<path d="M46.1038 188.475C46.5151 188.619 46.9598 188.64 47.3827 188.534C47.8056 188.428 48.1879 188.2 48.482 187.878C48.7762 187.556 48.9692 187.155 49.037 186.724C49.1049 186.293 49.0446 185.852 48.8636 185.456C48.6826 185.059 48.389 184.724 48.0192 184.493C47.6495 184.262 47.22 184.145 46.7841 184.156C46.3483 184.168 45.9254 184.307 45.568 184.557C45.2107 184.806 44.9347 185.156 44.7745 185.561C44.6645 185.836 44.611 186.13 44.6172 186.426C44.6233 186.722 44.689 187.013 44.8102 187.283C44.9315 187.553 45.1059 187.796 45.323 187.997C45.5401 188.198 45.7954 188.354 46.0738 188.454L46.1038 188.475Z" fill="#BF5050"/>
<path d="M45.564 187.238C45.7172 187.296 45.8873 187.292 46.0372 187.225C46.1871 187.159 46.3044 187.035 46.3636 186.882C46.4223 186.729 46.4179 186.559 46.3513 186.409C46.2847 186.259 46.1614 186.142 46.0085 186.083C45.8553 186.024 45.6852 186.029 45.5353 186.095C45.3854 186.162 45.268 186.285 45.2089 186.438C45.1502 186.591 45.1546 186.761 45.2212 186.911C45.2878 187.061 45.4111 187.178 45.564 187.238Z" fill="white"/>
<path d="M51.6881 191.962C52.0981 192.121 52.546 192.155 52.9753 192.059C53.4046 191.964 53.7958 191.743 54.0996 191.425C54.4033 191.107 54.6059 190.706 54.6816 190.273C54.7574 189.84 54.703 189.394 54.5252 188.991C54.3474 188.589 54.0543 188.249 53.6829 188.013C53.3116 187.778 52.8787 187.657 52.439 187.668C51.9994 187.679 51.5727 187.819 51.2131 188.072C50.8535 188.325 50.577 188.68 50.4187 189.09C50.2068 189.639 50.2214 190.25 50.4594 190.788C50.6974 191.327 51.1393 191.749 51.6881 191.962Z" fill="#BF5050"/>
<path d="M51.1636 190.735C51.3227 190.798 51.5003 190.795 51.6574 190.728C51.8144 190.66 51.9381 190.532 52.0012 190.373C52.0642 190.214 52.0615 190.036 51.9936 189.879C51.9257 189.722 51.7982 189.599 51.6391 189.536C51.482 189.474 51.307 189.478 51.1524 189.545C50.9978 189.612 50.8762 189.738 50.8143 189.895C50.7813 189.973 50.7642 190.057 50.7639 190.142C50.7637 190.226 50.7803 190.31 50.8128 190.388C50.8454 190.467 50.8931 190.538 50.9533 190.597C51.0136 190.657 51.0851 190.703 51.1636 190.735Z" fill="white"/>
<path d="M72.1101 152.104C72.3176 151.72 72.4075 151.283 72.3686 150.849C72.3297 150.414 72.1637 150 71.8913 149.659C71.6189 149.318 71.2522 149.065 70.8368 148.931C70.4215 148.797 69.9759 148.789 69.5556 148.906C69.1354 149.024 68.7591 149.263 68.4736 149.593C68.1882 149.923 68.0062 150.33 67.9505 150.763C67.8947 151.196 67.9676 151.635 68.1601 152.027C68.3525 152.419 68.656 152.745 69.0328 152.965C69.2914 153.111 69.5761 153.204 69.8708 153.239C70.1654 153.275 70.4641 153.252 70.7499 153.172C71.0357 153.092 71.3029 152.957 71.5363 152.773C71.7697 152.59 71.9646 152.362 72.1101 152.104Z" fill="#BF5050"/>
<path d="M70.8003 152.46C70.8374 152.384 70.8584 152.301 70.862 152.216C70.8656 152.131 70.8519 152.047 70.8215 151.968C70.7911 151.888 70.7448 151.816 70.6854 151.756C70.6261 151.695 70.5549 151.648 70.4763 151.616C70.4034 151.574 70.3229 151.547 70.2396 151.536C70.1562 151.526 70.0716 151.532 69.9905 151.554C69.9094 151.576 69.8334 151.613 69.7669 151.665C69.7005 151.716 69.6448 151.78 69.603 151.853C69.5613 151.926 69.5343 152.007 69.5237 152.09C69.513 152.173 69.5189 152.258 69.541 152.339C69.563 152.42 69.6008 152.496 69.6523 152.563C69.7037 152.629 69.7677 152.685 69.8406 152.727C69.9135 152.769 69.994 152.796 70.0774 152.807C70.1608 152.817 70.2456 152.812 70.3267 152.79C70.4079 152.767 70.4839 152.73 70.5504 152.678C70.6168 152.626 70.6724 152.562 70.7139 152.489L70.8003 152.46Z" fill="white"/>
<path d="M66.8748 157.653C67.1552 157.133 67.2175 156.523 67.0482 155.957C66.8788 155.391 66.4916 154.916 65.9717 154.636C65.4519 154.355 64.8419 154.293 64.276 154.462C63.7102 154.632 63.2347 155.019 62.9544 155.539C62.8155 155.796 62.7288 156.078 62.699 156.369C62.6693 156.66 62.6971 156.954 62.781 157.234C62.8648 157.515 63.003 157.776 63.1877 158.002C63.3724 158.229 63.6 158.417 63.8574 158.556C64.1148 158.695 64.3971 158.782 64.688 158.811C64.979 158.841 65.2729 158.813 65.5531 158.729C65.8333 158.646 66.0942 158.507 66.321 158.323C66.5478 158.138 66.7359 157.91 66.8748 157.653Z" fill="#BF5050"/>
<path d="M65.5502 157.999C65.6023 157.933 65.6402 157.856 65.6617 157.774C65.6831 157.693 65.6876 157.607 65.6748 157.524C65.662 157.44 65.6323 157.36 65.5875 157.289C65.5426 157.217 65.4836 157.155 65.414 157.107C65.3465 157.058 65.2699 157.022 65.1886 157.002C65.1072 156.982 65.0227 156.978 64.9399 156.991C64.8571 157.003 64.7776 157.032 64.7059 157.075C64.6343 157.119 64.5718 157.176 64.5223 157.243L64.429 157.378C64.3735 157.522 64.372 157.681 64.4247 157.826C64.4775 157.971 64.5809 158.092 64.7158 158.166C64.8508 158.241 65.0082 158.264 65.1588 158.231C65.3095 158.198 65.4432 158.112 65.5353 157.989L65.5502 157.999Z" fill="white"/>
<path d="M37.8828 136.575C38.3112 136.671 38.7586 136.639 39.1686 136.481C39.5785 136.324 39.9326 136.048 40.1862 135.69C40.4397 135.331 40.5814 134.906 40.5933 134.467C40.6052 134.028 40.4868 133.595 40.253 133.223C40.0192 132.851 39.6805 132.557 39.2797 132.378C38.8788 132.198 38.4339 132.142 38.0008 132.215C37.5678 132.288 37.1662 132.488 36.8467 132.789C36.5272 133.091 36.3041 133.48 36.2056 133.908C36.0779 134.484 36.1824 135.086 36.4964 135.586C36.8104 136.085 37.3085 136.44 37.8828 136.575Z" fill="#BF5050"/>
<path d="M37.175 135.42C37.3345 135.457 37.5019 135.428 37.6406 135.342C37.7794 135.255 37.8783 135.117 37.9157 134.958C37.9363 134.879 37.9406 134.797 37.9283 134.716C37.9159 134.635 37.8872 134.558 37.844 134.488C37.8007 134.419 37.7438 134.359 37.6766 134.313C37.6095 134.266 37.5336 134.234 37.4535 134.217C37.294 134.181 37.1266 134.209 36.9878 134.296C36.849 134.382 36.7502 134.52 36.7127 134.68C36.6764 134.839 36.7046 135.006 36.7912 135.145C36.8778 135.284 37.0157 135.383 37.175 135.42Z" fill="white"/>
<path d="M34.8529 132.661C35.1358 132.737 35.431 132.754 35.7209 132.713C36.0108 132.672 36.2895 132.574 36.5405 132.423C36.7915 132.272 37.0097 132.073 37.1821 131.836C37.3544 131.599 37.4775 131.33 37.544 131.045C37.6511 130.619 37.6292 130.17 37.481 129.756C37.3329 129.342 37.0652 128.981 36.7119 128.719C36.3586 128.457 35.9354 128.306 35.4961 128.284C35.0568 128.263 34.621 128.372 34.244 128.599C33.8669 128.825 33.5655 129.159 33.3779 129.556C33.1904 129.954 33.125 130.399 33.1902 130.834C33.2554 131.269 33.4482 131.675 33.7442 132C34.0402 132.325 34.426 132.555 34.8529 132.661Z" fill="#BF5050"/>
<path d="M34.19 131.538C34.3515 131.577 34.5216 131.549 34.6629 131.462C34.8042 131.375 34.9051 131.235 34.9434 131.074C34.9817 130.912 34.9543 130.742 34.8672 130.601C34.7801 130.46 34.6404 130.359 34.4789 130.32C34.3154 130.282 34.1433 130.309 33.9998 130.396C33.8564 130.484 33.7532 130.624 33.7128 130.787C33.6718 130.941 33.6932 131.104 33.7722 131.242C33.8513 131.379 33.9816 131.48 34.1347 131.522L34.19 131.538Z" fill="white"/>
<path d="M36.0665 126.169C36.4944 126.27 36.9427 126.242 37.3547 126.088C37.7667 125.935 38.1239 125.662 38.3811 125.306C38.6382 124.949 38.7838 124.524 38.7994 124.084C38.815 123.645 38.6999 123.211 38.4686 122.837C38.2374 122.463 37.9004 122.166 37.5003 121.983C37.1002 121.801 36.6549 121.741 36.2209 121.812C35.7869 121.883 35.3836 122.081 35.0621 122.38C34.7406 122.68 34.5152 123.069 34.4146 123.497C34.2798 124.07 34.3781 124.674 34.6878 125.175C34.9975 125.675 35.4934 126.033 36.0665 126.169Z" fill="#BF5050"/>
<path d="M35.332 125.084C35.4109 125.121 35.4966 125.142 35.5837 125.144C35.6709 125.147 35.7576 125.132 35.8386 125.099C35.9195 125.067 35.993 125.018 36.0545 124.957C36.116 124.895 36.1642 124.821 36.196 124.74C36.2279 124.659 36.2428 124.572 36.2398 124.485C36.2367 124.398 36.2159 124.312 36.1785 124.233C36.1412 124.155 36.088 124.085 36.0224 124.027C35.9568 123.97 35.8802 123.926 35.7972 123.9C35.7515 123.859 35.7012 123.825 35.6473 123.796C35.4964 123.787 35.3472 123.833 35.2265 123.924C35.1059 124.015 35.0216 124.146 34.9886 124.294C34.9557 124.442 34.9764 124.596 35.0469 124.73C35.1173 124.864 35.2331 124.968 35.3735 125.024L35.332 125.084Z" fill="white"/>
<path d="M63.5437 180.847C68.2348 186.618 70.4138 199.734 62.9454 204.381C61.6124 196.702 61.0832 191.351 62.9212 184.116L63.5437 180.847Z" fill="#1E120D"/>
<path d="M112.537 209.295C108.018 208.782 100.747 211.638 98.2765 215.689C95.8062 219.74 97.642 224.931 96.2882 229.289C101.583 223.493 107.251 218.664 111.152 211.616L112.537 209.295Z" fill="#1E120D"/>
<path d="M109.562 87.1203C99.9477 83.149 90.9107 82.3462 83.1079 90.5498C91.262 94.1977 102.28 93.5136 109.083 88.2289L109.562 87.1203Z" fill="#1E120D"/>
<path d="M80.6753 199.856C80.7557 200.44 81.065 200.969 81.535 201.325C82.0051 201.681 82.5975 201.837 83.1819 201.756C83.7663 201.676 84.2949 201.367 84.6513 200.896C85.0077 200.426 85.1628 199.834 85.0824 199.25C85.0426 198.96 84.9462 198.681 84.7987 198.429C84.6511 198.177 84.4554 197.957 84.2227 197.78C83.9899 197.604 83.7247 197.475 83.4421 197.401C83.1595 197.327 82.8651 197.309 82.5758 197.349C82.2864 197.389 82.0077 197.485 81.7556 197.633C81.5035 197.78 81.2829 197.976 81.1064 198.209C80.93 198.442 80.8011 198.707 80.7271 198.989C80.6531 199.272 80.6355 199.566 80.6753 199.856Z" fill="#BF5050"/>
<path d="M81.5174 198.799C81.5391 198.92 81.5962 199.031 81.6814 199.119C81.7665 199.207 81.8759 199.268 81.9957 199.294C82.1156 199.32 82.2404 199.31 82.3544 199.265C82.4685 199.22 82.5666 199.142 82.6363 199.041C82.7061 198.941 82.7443 198.821 82.7463 198.699C82.7482 198.576 82.7137 198.456 82.6472 198.353C82.5806 198.25 82.4851 198.169 82.3725 198.12C82.2599 198.072 82.1355 198.058 82.0149 198.08C81.8537 198.109 81.7108 198.202 81.6176 198.337C81.5243 198.471 81.4883 198.638 81.5174 198.799Z" fill="white"/>
<path d="M88.5293 196.893C88.6063 197.479 88.9126 198.009 89.3807 198.368C89.8488 198.727 90.4405 198.886 91.0255 198.809C91.6105 198.732 92.141 198.426 92.5002 197.957C92.8594 197.489 93.0179 196.898 92.9409 196.313C92.9029 196.022 92.8076 195.741 92.6607 195.488C92.5137 195.234 92.318 195.012 92.0848 194.834C91.8516 194.656 91.5855 194.526 91.3018 194.451C91.0181 194.377 90.7225 194.359 90.432 194.4C89.8495 194.479 89.3222 194.786 88.9656 195.254C88.609 195.721 88.4521 196.311 88.5293 196.893Z" fill="#BF5050"/>
<path d="M89.356 195.826C89.3813 195.994 89.472 196.144 89.6081 196.245C89.7443 196.345 89.9148 196.387 90.0821 196.362C90.2494 196.337 90.3998 196.246 90.5002 196.11C90.6007 195.974 90.6429 195.803 90.6176 195.636C90.6033 195.552 90.5724 195.472 90.5268 195.401C90.4812 195.329 90.4218 195.268 90.352 195.219C90.2822 195.171 90.2035 195.137 90.1205 195.12C90.0375 195.102 89.9519 195.102 89.8686 195.118C89.7067 195.144 89.5619 195.233 89.4658 195.366C89.3697 195.499 89.3303 195.665 89.356 195.826Z" fill="white"/>
<path d="M318.839 177.84L318.006 178.66C317.255 179.36 316.453 180.005 315.608 180.589C314.293 181.504 312.82 182.167 311.263 182.546C309.194 183.002 307.031 182.74 305.131 181.803C300.804 179.828 296.682 173.875 296.612 166.804C296.593 164.99 296.975 163.195 297.733 161.547C298.49 159.899 299.603 158.439 300.991 157.273C302.562 156.027 304.369 155.115 306.303 154.59C306.801 154.447 307.329 154.325 307.836 154.232L309.519 153.913C310.603 153.754 311.717 153.617 312.856 153.541C317.512 153.113 322.198 153.932 326.434 155.913C330.899 158.218 334.598 161.77 337.082 166.138C339.781 170.824 341.525 175.998 342.211 181.362C343.022 186.975 342.821 192.688 341.617 198.23C341.009 201.032 340.042 203.743 338.739 206.296C338.531 206.596 338.324 206.896 338.217 207.243L333.77 213.67C330.148 218.512 325.786 222.753 320.844 226.237C315.785 229.744 310.076 232.203 304.052 233.472C297.963 234.65 291.722 234.822 285.578 233.982C273.241 232.03 261.356 227.874 250.491 221.713C239.81 215.873 229.696 209.053 220.279 201.341C215.709 197.603 211.282 193.787 207.283 189.802C203.284 185.816 200.119 180.945 195.182 177.995C190.547 175.153 185.174 173.749 179.742 173.958C174.683 174.264 169.714 175.444 165.057 177.445C157.098 180.969 149.525 185.305 142.457 190.386C136.033 194.803 130.585 198.61 125.912 201.491C124.717 202.193 123.609 202.866 122.505 203.564L119.47 205.23C117.592 206.279 115.95 207.115 114.625 207.749L110.574 209.731C110.426 209.81 110.313 209.942 110.257 210.099C110.201 210.257 110.206 210.43 110.271 210.585C110.304 210.66 110.353 210.728 110.413 210.784C110.473 210.84 110.543 210.884 110.621 210.912C110.698 210.941 110.78 210.954 110.862 210.95C110.944 210.947 111.025 210.927 111.099 210.892L115.232 208.922C116.597 208.294 118.224 207.447 120.091 206.413L123.142 204.758L126.593 202.715C131.362 199.856 136.907 196.005 143.283 191.689C150.289 186.72 157.782 182.477 165.646 179.026C170.111 177.144 174.864 176.035 179.701 175.747C184.849 175.495 189.954 176.796 194.352 179.481C198.849 182.172 202.028 186.83 206.033 191.064C210.201 195.194 214.572 199.114 219.132 202.807C228.598 210.619 238.754 217.557 249.474 223.534C260.557 229.883 272.691 234.188 285.296 236.246C291.71 237.183 298.234 237.056 304.607 235.872C310.957 234.59 316.986 232.05 322.337 228.4C327.529 224.806 332.13 220.426 335.974 215.416L340.607 208.719C340.848 208.402 341.045 208.053 341.191 207.683C342.663 204.896 343.751 201.923 344.426 198.845C345.718 192.976 345.959 186.925 345.139 180.973C344.417 175.225 342.574 169.675 339.715 164.637C336.949 159.756 332.833 155.777 327.861 153.178C323.143 150.89 317.901 149.901 312.674 150.313C311.444 150.393 310.274 150.58 309.003 150.72C308.39 150.805 307.852 150.943 307.279 151.034C306.669 151.139 306.065 151.276 305.468 151.442C303.103 152.071 300.893 153.182 298.979 154.706C297.134 156.212 295.692 158.153 294.783 160.354C293.945 162.397 293.516 164.583 293.519 166.791C293.526 170.715 294.589 174.565 296.597 177.936C298.277 180.906 300.797 183.312 303.84 184.853C306.388 186.075 309.268 186.416 312.03 185.823C314.027 185.373 315.921 184.548 317.611 183.393C318.646 182.664 319.629 181.864 320.553 180.998L321.386 180.178C321.609 179.752 321.654 179.254 321.512 178.794C321.369 178.335 321.05 177.95 320.625 177.725C320.369 177.588 320.084 177.515 319.794 177.511C319.504 177.507 319.217 177.572 318.958 177.701L318.839 177.84Z" fill="#1E120D"/>
<path d="M152.488 214.341C149.896 213.142 147.656 211.295 145.986 208.978" stroke="#1E120D" stroke-width="0.309706" stroke-miterlimit="10"/>
<path d="M145.038 216.496C142.839 216.216 141.326 214.593 139.67 213.336" stroke="#1E120D" stroke-width="0.309706" stroke-miterlimit="10"/>
<path d="M145.013 216.789C144.974 217.322 144.818 217.84 144.557 218.306C144.296 218.772 143.935 219.175 143.5 219.487" stroke="#1E120D" stroke-width="0.309706" stroke-miterlimit="10"/>
<path d="M152.301 214.388C152.316 215.865 152.001 217.328 151.378 218.668" stroke="#1E120D" stroke-width="0.309706" stroke-miterlimit="10"/>
</g>
</g>
</g>
<defs>
<clipPath id="clip0_159_1440">
<rect width="207" height="302" fill="white" transform="translate(0 170.227) rotate(-55.321)"/>
</clipPath>
<clipPath id="clip1_159_1440">
<rect width="194.568" height="302" fill="white" transform="translate(3.53662 165.115) rotate(-55.321)"/>
</clipPath>
</defs>
</svg>
