<svg width="43" height="20" viewBox="0 0 43 20" fill="none" xmlns="http://www.w3.org/2000/svg">
<path d="M30.2763 12.8093C30.844 13.1193 31.4856 13.2686 32.1319 13.2411C32.7781 13.2136 33.4047 13.0104 33.944 12.6532C34.4753 12.252 34.8925 11.719 35.1545 11.107C35.4165 10.495 35.5142 9.82516 35.4379 9.16382C35.3771 8.50092 35.1581 7.8623 34.7992 7.30165C34.4403 6.741 33.952 6.2747 33.3755 5.94197C32.2498 5.27976 30.9125 5.07617 29.6408 5.3734C28.4372 5.70324 27.3566 6.37841 26.5324 7.31553C25.7082 8.25265 25.1766 9.41066 25.0031 10.6465C24.8122 11.8787 24.9077 13.1382 25.2823 14.3275C25.6569 15.5167 26.3004 16.6037 27.163 17.504C28.0256 18.4043 29.084 19.0938 30.2561 19.5189C31.4283 19.944 32.6826 20.0934 33.9217 19.9553C35.1831 19.8387 36.406 19.4589 37.5115 18.8405C38.6229 18.2343 39.5891 17.3936 40.3432 16.3767C41.0905 15.3663 41.616 14.2094 41.8849 12.9817C42.1539 11.754 42.1604 10.4834 41.9039 9.253C41.4229 6.83774 40.1664 4.64562 38.3253 3.00997C36.8112 1.67056 34.9812 0.73832 33.0076 0.30094C31.1036 -0.100313 29.1368 -0.100313 27.2328 0.30094C25.3548 0.660269 23.5524 1.339 21.9039 2.30763C20.3009 3.28915 18.8223 4.46078 17.5003 5.79704C14.8582 8.43918 12.6508 11.4604 9.88607 13.9799C8.52804 15.2636 7.00609 16.3619 5.35988 17.2463C4.54538 17.6803 3.6404 17.917 2.71774 17.9375C2.28124 17.9202 1.85768 17.7845 1.49241 17.5449C1.12714 17.3053 0.833919 16.9709 0.644157 16.5774C0.332006 15.8416 -0.0804802 15.7079 0.131337 16.3767C0.237669 16.7868 0.428438 17.1702 0.691435 17.5023C0.954432 17.8344 1.28386 18.1079 1.65865 18.3054C2.51411 18.6624 3.46562 18.7174 4.35653 18.4615C6.09289 17.9304 7.70958 17.0671 9.11684 15.9197C12.06 13.69 14.4346 10.7134 16.9206 8.0044C19.4067 5.29537 22.1938 2.85389 25.5717 1.79481C27.2127 1.24569 28.9365 0.985422 30.6665 1.02558C32.5918 1.06375 34.4699 1.62835 36.0971 2.65814C37.7244 3.68793 39.0386 5.1436 39.8972 6.86727C40.9065 8.84678 41.1525 11.1284 40.5884 13.2775C40.2595 14.3254 39.7132 15.292 38.9851 16.1143C38.257 16.9365 37.3636 17.5958 36.3632 18.049C35.3694 18.517 34.2845 18.7596 33.186 18.7596C32.0875 18.7596 31.0025 18.517 30.0087 18.049L29.2952 17.6477C29.0611 17.4916 28.8604 17.3021 28.6486 17.1348C28.2189 16.8001 27.843 16.4016 27.5338 15.9531C26.8899 15.0601 26.4624 14.0296 26.2852 12.9431C26.0717 11.8731 26.1681 10.7644 26.5631 9.74737C26.958 8.73031 27.6352 7.84715 28.5148 7.20172C28.9562 6.8926 29.4541 6.67344 29.9801 6.55675C30.5061 6.44007 31.05 6.42815 31.5806 6.52168C32.1164 6.60216 32.6247 6.81162 33.0617 7.13205C33.4986 7.45248 33.8512 7.87428 34.089 8.36114C34.3206 8.84769 34.4218 9.38606 34.3827 9.9235C34.3436 10.4609 34.1656 10.979 33.866 11.4269C33.5281 11.8523 33.0691 12.1653 32.5496 12.3245C32.0301 12.4838 31.4746 12.4818 30.9563 12.3188C30.2205 12.107 29.7857 11.7391 29.5739 11.7279C29.3621 11.7168 29.429 11.806 29.507 12.0066C29.6745 12.3471 29.9432 12.6275 30.2763 12.8093Z" fill="#BDBEC6"/>
</svg>
