<svg width="80" height="110" viewBox="0 0 80 110" fill="none" xmlns="http://www.w3.org/2000/svg">
<g opacity="0.1" clip-path="url(#clip0_159_5112)">
<g clip-path="url(#clip1_159_5112)">
<g clip-path="url(#clip2_159_5112)">
<path d="M45.6421 97.3945V97.7304C45.7717 98.165 46.0374 98.5464 46.4002 98.8185C46.763 99.0906 47.2037 99.239 47.6572 99.2416C56.1544 99.0673 64.5818 97.6646 72.6775 95.0772C73.203 94.9302 73.6486 94.5805 73.9163 94.105C74.184 93.6295 74.2518 93.0671 74.1048 92.5416C73.9578 92.0161 73.6081 91.5704 73.1326 91.3028C72.6571 91.0351 72.0947 90.9673 71.5692 91.1142C63.7267 93.1108 55.7262 94.4255 47.6572 95.0436C47.2035 95.0637 46.7669 95.2226 46.4065 95.4989C46.0461 95.7752 45.7793 96.1556 45.6421 96.5885C45.5936 96.855 45.5936 97.128 45.6421 97.3945Z" fill="#FF71A8"/>
<path d="M4.87064 95.4467C9.62695 97.6172 14.712 98.9793 19.9164 99.4768C25.0534 100.569 30.3625 100.569 35.4995 99.4768C37.1452 98.9394 37.4474 96.1183 35.4995 95.8497C30.9992 94.9429 26.1631 95.5474 21.562 95.0101C16.3901 94.4055 11.4868 92.9278 6.34835 92.0211C4.36687 91.6516 2.98992 94.4391 4.87064 95.3795V95.4467Z" fill="#FF71A8"/>
<path d="M49.1684 89.5358C47.9257 90.1403 47.6571 92.1218 47.2205 93.3308C46.5152 95.1108 49.2355 96.0511 50.1759 94.5734C50.9948 93.4169 51.5245 92.081 51.7208 90.6776C51.9559 88.4947 48.3623 87.9573 47.8586 90.1739C47.6893 91.2697 47.2117 92.2947 46.4816 93.1293C46.1824 93.4625 45.9929 93.8797 45.9388 94.3243C45.8848 94.7689 45.9687 95.2193 46.1794 95.6145C46.4156 95.9972 46.7675 96.2946 47.1842 96.4637C47.6009 96.6328 48.0606 96.6647 48.4967 96.5549C49.3141 96.2834 50.0681 95.8493 50.7132 95.2787C51.0171 94.9971 51.2875 94.6816 51.5193 94.3383C51.5193 94.3383 52.0902 93.4651 51.8551 93.7338L50.9483 94.2376H51.1834L49.605 94.0361C49.9235 94.2738 50.2264 94.5319 50.5117 94.8085C50.9195 95.1702 51.3577 95.4961 51.8215 95.7825C54.0381 97.2266 56.0867 93.7002 53.9038 92.2561C52.594 91.4165 51.6536 89.838 49.8401 90.3418C49.034 90.5769 48.6982 91.1814 48.2952 91.8531C48.1054 92.2191 47.7799 92.4964 47.3884 92.6255C48.0601 93.7674 48.7318 94.9093 49.3699 95.984C50.5822 94.6394 51.3759 92.9704 51.6536 91.1814L47.7914 90.6776C47.9224 91.4666 47.7676 92.2764 47.3548 92.9614L50.1759 94.607C50.814 93.23 51.7544 91.0471 50.4782 89.7373C50.3067 89.5725 50.0869 89.4672 49.851 89.4369C49.6151 89.4067 49.3758 89.4531 49.1684 89.5694V89.5358Z" fill="#FF71A8"/>
<path d="M58.8409 92.6592C58.8273 92.7103 58.8275 92.7641 58.8413 92.8152C58.855 92.8662 58.882 92.9127 58.9194 92.9501C58.9567 92.9875 59.0033 93.0145 59.0543 93.0282C59.1054 93.042 59.1592 93.0421 59.2103 93.0286C59.9491 93.0286 58.9752 91.8868 58.7737 92.592L58.8409 92.6592Z" fill="#FF71A8"/>
<path d="M59.0423 94.5062C59.7028 93.9062 60.2116 93.158 60.5269 92.3232C60.8421 91.4883 60.9549 90.5906 60.8558 89.7037V90.6776C60.8558 90.1739 61.1245 89.7037 61.2252 89.1999L57.2623 89.7373C58.2797 91.6537 59.8009 93.2561 61.6618 94.3719C62.1327 94.4963 62.6311 94.467 63.0841 94.2881C63.5371 94.1092 63.9211 93.7901 64.1799 93.3775C64.4387 92.9649 64.5589 92.4803 64.5227 91.9946C64.4866 91.5089 64.2961 91.0474 63.9791 90.6776C62.8418 89.8708 61.8435 88.8839 61.0237 87.7558C60.7696 87.3561 60.3958 87.0467 59.9556 86.8719C59.5154 86.697 59.0312 86.6655 58.5721 86.7818C58.1133 86.9061 57.7077 87.1767 57.4167 87.5525C57.1258 87.9283 56.9654 88.3888 56.96 88.8641C57.0443 89.1719 57.0443 89.4966 56.96 89.8044L57.4974 88.8977C56.5746 89.9465 55.918 91.2021 55.5831 92.5583C55.4817 93.0063 55.5264 93.4749 55.7108 93.8956C55.8951 94.3162 56.2093 94.6668 56.6074 94.8958C57.0054 95.1249 57.4664 95.2204 57.9227 95.1685C58.379 95.1165 58.8067 94.9197 59.143 94.607L59.0423 94.5062Z" fill="#FF71A8"/>
<path d="M42.4852 80.3337H42.2501C39.2275 80.1658 39.2275 85.2035 42.2501 85.0355C44.305 84.8647 46.3399 84.5049 48.3289 83.9608C51.6873 83.0877 50.176 78.4866 46.9519 78.9568C45.5159 79.1871 44.1086 79.5699 42.7539 80.0987C42.0894 80.3162 41.5342 80.7812 41.2035 81.3972C40.8728 82.0132 40.792 82.7328 40.9777 83.4068C41.1635 84.0808 41.6017 84.6574 42.2013 85.017C42.8009 85.3765 43.5159 85.4914 44.198 85.3378C45.7429 85.1027 47.2877 84.8005 48.799 84.431H47.3885H47.6572L46.0787 83.222V83.4907L45.81 81.5092C46.3138 80.8375 46.213 80.8375 45.5414 81.5092L44.6682 82.0801C44.0043 82.5266 43.2807 82.8771 42.5188 83.1212L44.8025 88.5283C45.8801 87.8948 46.8731 87.1275 47.7579 86.2446L43.5599 82.8862C42.8586 84.0224 42.0243 85.0709 41.0746 86.0095C40.8056 86.2785 40.5922 86.5979 40.4466 86.9494C40.301 87.3009 40.2261 87.6777 40.2261 88.0581C40.2261 88.4386 40.301 88.8153 40.4466 89.1669C40.5922 89.5184 40.8056 89.8377 41.0746 90.1068C41.618 90.6501 42.3549 90.9554 43.1233 90.9554C43.5038 90.9554 43.8805 90.8804 44.232 90.7348C44.5835 90.5892 44.9029 90.3758 45.1719 90.1068C46.1173 89.2395 46.8918 88.2029 47.4557 87.0506L42.1493 84.834C41.6792 86.4125 41.1418 87.9238 40.806 89.5358L46.5153 91.1143C46.7258 89.8908 47.2332 88.7377 47.993 87.7559L42.6195 85.4721C42.3467 86.728 41.8458 87.9233 41.1418 88.9985C39.1268 92.3569 44.2316 95.2452 46.3474 92.0211C47.1256 90.7058 47.8319 89.3492 48.4632 87.9574C49.9073 85.2035 46.1459 81.845 43.8957 84.599C42.4323 86.1376 41.5327 88.1262 41.3433 90.2411C41.3585 90.8193 41.5598 91.3772 41.9174 91.8318C42.275 92.2864 42.7698 92.6134 43.3281 92.7643C43.8865 92.9152 44.4787 92.8819 45.0166 92.6694C45.5545 92.4568 46.0094 92.0763 46.3138 91.5845C46.7675 90.5639 47.3305 89.5955 47.993 88.6962L43.6606 85.0691C42.8882 86.4125 41.9814 87.6551 41.3433 89.0321L46.5489 92.0547C47.3164 90.4466 47.9673 88.7855 48.4968 87.0842C48.6302 86.4761 48.5682 85.8414 48.3196 85.2707C48.0709 84.6999 47.6484 84.2222 47.1123 83.9058C46.5762 83.5893 45.9539 83.4502 45.334 83.5084C44.7142 83.5665 44.1286 83.8189 43.6606 84.2295C42.1094 85.9243 41.1645 88.0859 40.9739 90.3755C40.5373 93.7339 46.213 94.4392 46.784 91.1479C47.0162 89.5307 47.4215 87.9431 47.993 86.4125C49.2356 83.2892 44.3323 81.442 42.7203 84.1624C42.3221 84.8316 41.861 85.4613 41.3433 86.0431L45.9108 89.4015C46.469 88.1959 47.1802 87.0671 48.0266 86.0431C48.4355 85.6213 48.695 85.0771 48.7652 84.4939C48.8354 83.9106 48.7125 83.3204 48.4153 82.8136C48.1181 82.3069 47.663 81.9115 47.1197 81.688C46.5763 81.4646 45.9748 81.4253 45.407 81.5764C44.2187 81.9715 43.0891 82.5251 42.0486 83.222C38.3543 85.6065 42.7874 90.98 45.6421 87.8566C46.803 86.7084 48.0615 85.6633 49.4036 84.7333C50.0101 84.3823 50.4916 83.8503 50.7807 83.2119C51.0698 82.5736 51.1519 81.8607 51.0156 81.1733C50.1088 77.6134 45.2391 79.2926 42.8546 79.83C43.5599 81.4756 44.2652 83.1884 44.9368 84.8005C45.9805 84.2319 47.1182 83.8565 48.2953 83.6922C47.8587 82.013 47.3885 80.3337 46.9183 78.6881C44.9038 79.1265 42.9358 79.7562 41.0411 80.5688C41.9814 81.8115 42.9218 83.0541 43.8957 84.2631L43.6271 84.431C46.213 83.4907 45.2055 79.3934 42.4516 80.233L42.4852 80.3337Z" fill="#AF73EA"/>
<path d="M44.9368 84.8676C44.162 85.7589 43.4334 86.6893 42.7538 87.6551C42.1139 88.7224 41.5742 89.8466 41.1417 91.0135C40.9458 91.7482 41.0475 92.5305 41.4247 93.1907C41.802 93.8509 42.4244 94.3357 43.1568 94.5399C43.8907 94.7182 44.6651 94.6088 45.3209 94.234C45.9767 93.8593 46.4642 93.2477 46.6831 92.5248C47.1556 90.849 47.7506 89.2101 48.4631 87.6215C48.7239 87.1501 48.8097 86.6016 48.7052 86.0731C48.6007 85.5445 48.3127 85.07 47.8922 84.7332C47.4626 84.399 46.9264 84.2319 46.383 84.2628C45.8395 84.2937 45.3257 84.5205 44.9368 84.9012V84.8676Z" fill="#AF73EA"/>
<path d="M45.4742 85.4049C44.9245 85.5813 44.4171 85.8692 43.9837 86.2506C43.5503 86.632 43.2002 87.0987 42.9554 87.6215C42.3777 88.4897 41.936 89.441 41.6456 90.4426C41.4407 91.1818 41.5379 91.9722 41.9158 92.6399C42.2937 93.3075 42.9213 93.7976 43.6606 94.0025C44.3999 94.2074 45.1903 94.1101 45.8579 93.7323C46.5256 93.3544 47.0157 92.7267 47.2206 91.9874C47.3208 91.4547 47.3881 90.9164 47.4221 90.3754C47.4221 90.3754 47.4221 89.9052 47.4221 89.6701C47.8082 88.78 47.8792 87.7849 47.6236 86.849C47.4686 86.3731 47.142 85.972 46.7074 85.7237C46.2728 85.4753 45.7614 85.3976 45.2727 85.5057L45.4742 85.4049Z" fill="#AF73EA"/>
<path d="M45.7429 86.0094C45.5414 86.5804 44.8697 86.8826 44.4667 87.3528C44.0245 87.8104 43.541 88.2264 43.0226 88.5954C42.6773 88.9334 42.4296 89.3582 42.3055 89.8251C42.1814 90.292 42.1855 90.7838 42.3173 91.2486V91.4837C42.4981 92.1249 42.9225 92.6701 43.4998 93.0027C44.0772 93.3353 44.7616 93.4289 45.4071 93.2636H45.6086C46.1773 93.0944 46.6781 92.7501 47.0399 92.2798C47.4016 91.8095 47.6059 91.2371 47.6236 90.6441C47.5881 89.4844 47.8298 88.333 48.3289 87.2856C49.4708 85.7072 46.4482 83.9272 45.6758 86.1774L45.7429 86.0094Z" fill="#AF73EA"/>
<path d="M47.0191 81.7779C46.6526 82.3135 46.4083 82.9231 46.3033 83.5635C46.1983 84.204 46.2352 84.8596 46.4113 85.4842C46.5875 86.1089 46.8987 86.6872 47.3229 87.1784C47.747 87.6695 48.2739 88.0616 48.8662 88.3268L49.5379 83.0877H49.2692H50.8141C51.1499 83.4235 51.4858 83.7929 51.8552 84.1288L51.7545 83.9609L49.3028 88.1925C49.8401 88.1925 49.8401 88.1925 49.3028 88.1925L49.7058 88.4947C50.0417 88.9313 50.579 89.2672 50.982 89.7038C51.385 90.1404 51.6537 90.409 52.0231 90.7449C52.2319 90.9421 52.4566 91.1218 52.6948 91.2822C53.3329 91.5173 53.4337 91.5845 53.0307 91.4502C53.3322 91.7263 53.7143 91.8986 54.1209 91.9419C54.5275 91.9851 54.9372 91.8971 55.2902 91.6906C55.6431 91.4841 55.9206 91.17 56.0821 90.7944C56.2436 90.4187 56.2806 90.0012 56.1876 89.603V89.8717C56.2719 89.5639 56.2719 89.2391 56.1876 88.9313C56.1294 88.5988 56.0394 88.2727 55.9189 87.9574C55.5677 87.089 55.0287 86.3091 54.3404 85.6737C53.2878 84.6078 52.0754 83.7127 50.7469 83.0205C50.2114 82.7813 49.6152 82.7129 49.0393 82.8245C48.4635 82.9361 47.9361 83.2224 47.5288 83.6445C47.1214 84.0665 46.854 84.6037 46.7628 85.1831C46.6716 85.7625 46.7611 86.356 47.0191 86.8827C47.3714 87.6317 47.9879 88.2242 48.7503 88.5465C49.5126 88.8688 50.3672 88.8982 51.1499 88.6291C51.6861 88.4695 52.1644 88.1577 52.5267 87.7315C52.889 87.3052 53.1197 86.783 53.1909 86.2281C53.262 85.6732 53.1705 85.1097 52.9274 84.6058C52.6843 84.102 52.3002 83.6796 51.8216 83.3899C51.609 83.2955 51.4254 83.1462 51.2897 82.9573C51.1539 82.7684 51.0709 82.5468 51.0492 82.3152C50.7469 80.2666 48.0266 80.4345 47.0862 81.7779H47.0191Z" fill="#AF73EA"/>
<path d="M53.4002 91.4501V90.9463C53.3503 91.1334 53.3503 91.3302 53.4002 91.5173C53.3703 91.6386 53.3703 91.7654 53.4002 91.8867C53.4002 92.0882 53.4002 92.1218 53.4002 91.8867C53.476 92.1728 53.6342 92.4304 53.8551 92.6274C54.076 92.8244 54.3499 92.9522 54.6428 92.995C54.9392 93.031 55.2396 92.9804 55.5078 92.8493C55.7761 92.7182 56.0005 92.5121 56.1541 92.2561C56.2893 91.9947 56.347 91.7002 56.3205 91.4071C56.2939 91.1141 56.1843 90.8347 56.0043 90.6018C55.8244 90.369 55.5817 90.1923 55.3048 90.0927C55.0279 89.9931 54.7283 89.9747 54.4413 90.0395H55.5496L55.1466 89.838C54.6428 89.838 54.6764 89.838 55.1466 89.838L55.7175 90.1739C55.5184 89.9744 55.2589 89.8465 54.9794 89.81C54.6999 89.7736 54.4162 89.8307 54.1726 89.9724C53.9397 90.1244 53.7596 90.3449 53.6574 90.6036C53.5551 90.8623 53.5356 91.1463 53.6017 91.4165L53.4002 91.4501Z" fill="#AF73EA"/>
<path d="M54.5419 83.9608H54.1725L55.4151 86.1438C55.751 85.0355 57.4974 83.9944 58.3705 83.5243C58.8691 83.2712 59.2645 82.8533 59.4896 82.3415C59.7147 81.8297 59.7555 81.2557 59.605 80.7173C59.4546 80.1788 59.1222 79.7091 58.6644 79.3882C58.2067 79.0672 57.6518 78.9147 57.0943 78.9568C54.2435 79.1938 51.4276 79.7457 48.6983 80.6024L51.6201 85.5729C53.4858 84.1659 55.5444 83.0348 57.7324 82.2145C60.8894 80.8039 58.6056 75.867 55.4151 76.7402C53.0306 77.3783 50.7469 78.1843 48.4296 79.0575C49.202 80.9047 50.0081 82.7854 50.7805 84.6661C53.9512 83.5422 57.1799 82.5893 60.4528 81.8115C61.0592 81.6383 61.5827 81.2522 61.9273 80.724C62.2719 80.1959 62.4144 79.5611 62.3286 78.9364C62.2429 78.3116 61.9346 77.7388 61.4605 77.323C60.9863 76.9072 60.3781 76.6764 59.7475 76.673H59.3781L60.4528 81.5092C61.0909 81.1062 63.8112 78.8896 64.5165 79.1583C63.5761 78.8224 65.7927 82.7854 65.927 83.1548C66.5651 85.0691 69.9571 84.9012 69.6549 82.6511C69.3526 80.4009 67.4719 78.4194 66.8002 75.9342C66.6437 75.4013 66.3219 74.9319 65.8812 74.5939C65.4405 74.2558 64.9038 74.0666 64.3486 74.0535C62.0312 73.8184 59.7475 75.9678 57.8332 77.0425C57.3652 77.3486 57.0059 77.7948 56.8065 78.3173C56.6072 78.8398 56.5781 79.4119 56.7234 79.952C56.8686 80.492 57.1808 80.9724 57.6154 81.3244C58.0499 81.6764 58.5846 81.8822 59.143 81.9122H59.5124V76.673C55.6597 76.6156 51.8452 77.4429 48.3624 79.0911C47.9538 79.2158 47.5758 79.4248 47.2529 79.7046C46.93 79.9845 46.6694 80.3289 46.4878 80.7157C46.3063 81.1024 46.2079 81.523 46.1989 81.9501C46.19 82.3773 46.2707 82.8016 46.4358 83.1957C46.601 83.5897 46.847 83.9447 47.1578 84.2379C47.4687 84.531 47.8376 84.7556 48.2407 84.8974C48.6437 85.0391 49.072 85.0947 49.4979 85.0607C49.9238 85.0266 50.3379 84.9037 50.7133 84.6997C52.7721 83.7948 54.9076 83.0754 57.0943 82.5503L54.6763 77.244C52.0378 78.3465 49.5808 79.8411 47.3885 81.6771C46.9941 82.16 46.7607 82.7542 46.7208 83.3764C46.6809 83.9986 46.8366 84.6177 47.166 85.147C47.4955 85.6763 47.9822 86.0894 48.558 86.3283C49.1339 86.5673 49.7701 86.6202 50.3775 86.4797C53.1718 85.7558 55.8756 84.7193 58.4377 83.3899L55.5495 79.662C53.7359 81.4084 49.202 83.0205 51.4522 86.3789C51.6313 86.6436 51.8641 86.8678 52.1353 87.0369C52.4066 87.206 52.7103 87.3163 53.0269 87.3606C53.3434 87.4049 53.6658 87.3823 53.973 87.2942C54.2803 87.2061 54.5656 87.0544 54.8106 86.8491C55.0082 86.6286 55.1878 86.3928 55.348 86.1438C55.4581 85.9472 55.523 85.7284 55.5376 85.5034C55.5523 85.2785 55.5165 85.0531 55.4327 84.8438C55.349 84.6345 55.2195 84.4466 55.0538 84.2938C54.888 84.141 54.6902 84.0273 54.4748 83.9608H54.5419Z" fill="#AF73EA"/>
<path d="M60.8222 86.043C61.3313 85.9154 61.7886 85.634 62.132 85.237C63.2403 84.0951 62.9716 81.5092 61.0909 81.2741C60.4339 81.074 59.7286 81.101 59.0888 81.3508C58.4491 81.6006 57.9121 82.0587 57.5645 82.651L58.337 81.8786C57.3556 82.3057 56.4832 82.9485 55.7845 83.7593C55.3169 84.6596 54.8012 85.534 54.2397 86.3789C53.0978 87.5208 54.2397 90.0732 55.9525 89.3343C56.4505 89.1343 56.9 88.83 57.2708 88.4419C57.6415 88.0538 57.9249 87.5909 58.1019 87.0842C58.3705 86.3789 58.6392 86.0095 59.4452 85.9423L58.337 85.64C58.8323 85.9764 59.4174 86.1563 60.0162 86.1563C60.615 86.1563 61.2 85.9764 61.6954 85.64L58.337 84.2295C58.74 85.3714 59.6467 86.4461 60.9901 86.0766L60.8222 86.043Z" fill="#AF73EA"/>
<path d="M55.1129 90.6777C55.674 90.6777 56.2122 90.4548 56.609 90.058C57.0058 89.6612 57.2287 89.123 57.2287 88.5619C57.2287 88.0007 57.0058 87.4625 56.609 87.0658C56.2122 86.669 55.674 86.446 55.1129 86.446C54.5544 86.4547 54.0213 86.6804 53.6264 87.0753C53.2314 87.4703 53.0057 88.0034 52.9971 88.5619C53.0139 89.1177 53.2423 89.6461 53.6354 90.0393C54.0286 90.4325 54.5571 90.6608 55.1129 90.6777Z" fill="#AF73EA"/>
<path d="M30.2268 87.9237C30.8662 89.4653 31.6773 90.9299 32.6449 92.2897C33.4237 93.7911 34.3701 95.1994 35.466 96.4877C36.3728 97.3945 38.2535 96.4877 37.7497 95.1444C37.0263 93.6254 36.1485 92.1848 35.1301 90.8456C34.3029 89.3829 33.3114 88.0195 32.1747 86.7819C31.3687 86.0094 29.7902 86.7819 30.2268 87.9237Z" fill="#AF73EA"/>
<path d="M35.9026 82.1808C35.3988 84.0616 34.9958 85.9759 34.3913 87.8566C33.7461 89.5766 33.2626 91.3531 32.9472 93.1629C32.7457 94.6406 35.1638 95.2452 35.7683 93.9354C37.1371 90.2556 37.974 86.3993 38.2535 82.4831C38.2535 81.1397 36.2385 80.9046 35.9026 82.1808Z" fill="#AF73EA"/>
<path d="M12.0578 80.1322C16.1887 81.2069 20.5211 81.6099 24.6855 82.4159C28.85 83.2219 32.6786 84.263 36.7423 84.6325C38.3879 84.6325 38.5558 82.3151 37.1117 81.8785C32.8723 80.6846 28.566 79.7426 24.2153 79.0575C20.3478 78.1157 16.3731 77.6866 12.3937 77.7813C12.1128 77.7946 11.8455 77.9055 11.6375 78.0947C11.4296 78.2839 11.2941 78.5396 11.2543 78.8179C11.2146 79.0962 11.2731 79.3797 11.4197 79.6196C11.5663 79.8594 11.792 80.0407 12.0578 80.1322Z" fill="#AF73EA"/>
<path d="M12.2593 82.0801C16.3193 83.3635 20.4909 84.2631 24.7191 84.7668C28.5477 85.4721 32.4099 86.4124 36.3057 86.7483C38.1528 86.9162 38.4215 84.0951 36.7422 83.6249C32.6204 82.5533 28.437 81.7345 24.2153 81.1733C20.4078 80.2516 16.5117 79.7449 12.5951 79.662C12.3063 79.6765 12.0316 79.7914 11.8183 79.9867C11.6051 80.1821 11.4666 80.4457 11.4269 80.7321C11.3871 81.0185 11.4484 81.3099 11.6004 81.5559C11.7523 81.802 11.9853 81.9873 12.2593 82.0801Z" fill="#AF73EA"/>
<path d="M20.1517 86.4125C20.8906 89.0321 23.5102 90.9464 23.9803 93.566C24.1818 94.6407 25.9618 94.1705 25.5924 93.1294C24.9579 90.3102 23.6565 87.6844 21.7974 85.4722C21.6476 85.312 21.4482 85.2071 21.2314 85.1744C21.0146 85.1416 20.7931 85.183 20.6028 85.2918C20.4124 85.4006 20.2644 85.5704 20.1825 85.7738C20.1006 85.9771 20.0898 86.2022 20.1517 86.4125Z" fill="#AF73EA"/>
<path d="M25.5586 94.0361C26.7676 92.6592 28.0103 91.3158 29.1521 89.8717C30.294 88.4275 31.4359 87.5208 31.503 86.043C31.5018 85.9207 31.4728 85.8002 31.4181 85.6908C31.3634 85.5814 31.2846 85.4858 31.1875 85.4114C31.0904 85.3369 30.9776 85.2856 30.8577 85.2612C30.7378 85.2368 30.614 85.24 30.4955 85.2706C29.085 85.7408 28.2789 87.3528 27.3722 88.629C26.4654 89.9052 25.2899 91.4501 24.2152 92.8271C23.1405 94.204 24.719 95.1108 25.5586 94.1705V94.0361Z" fill="#AF73EA"/>
<path d="M30.8986 85.9759C30.5831 86.2488 30.2462 86.4959 29.8911 86.7148C28.6149 87.4536 29.4545 89.8381 30.9658 89.2336C31.5277 89.0309 32.0678 88.7721 32.5778 88.4612C33.0899 88.1353 33.6293 87.8544 34.1899 87.6216L32.9473 85.4722C32.2618 86.0349 31.7496 86.7801 31.4696 87.6216C31.3869 87.8964 31.3807 88.1887 31.4517 88.4668C31.5227 88.7449 31.6682 88.9984 31.8726 89.2C32.292 89.5776 32.8363 89.7866 33.4007 89.7866C33.965 89.7866 34.5093 89.5776 34.9287 89.2C35.612 88.568 36.0716 87.7312 36.2385 86.8155C36.294 86.5854 36.2969 86.3457 36.2472 86.1142C36.1974 85.8827 36.0962 85.6654 35.9511 85.4783C35.8059 85.2913 35.6206 85.1393 35.4087 85.0336C35.1969 84.9278 34.964 84.8711 34.7272 84.8677C34.3621 84.8434 33.9971 84.9175 33.6702 85.0821C33.3434 85.2467 33.0666 85.4958 32.8686 85.8036C32.6706 86.1114 32.5587 86.4666 32.5445 86.8323C32.5303 87.198 32.6144 87.5608 32.7879 87.8831C32.9614 88.2053 33.218 88.4751 33.5311 88.6646C33.8443 88.854 34.2024 88.9562 34.5684 88.9603C34.9343 88.9645 35.2947 88.8705 35.612 88.6883C35.9294 88.506 36.1921 88.242 36.3729 87.9238L33.8205 86.4461C33.5518 87.017 33.0816 87.3193 33.1824 88.0582C33.1909 88.346 33.2894 88.624 33.4641 88.8529C33.6388 89.0818 33.8809 89.2502 34.1563 89.3344H34.3242C34.6609 89.4251 35.0181 89.4018 35.3401 89.2681C35.6621 89.1345 35.9308 88.8979 36.1042 88.5955C36.3372 88.2794 36.4873 87.9099 36.5408 87.5208C36.6074 87.2379 36.5909 86.9417 36.4934 86.6679C36.3959 86.394 36.2215 86.1541 35.9911 85.9769C35.7607 85.7996 35.4841 85.6926 35.1944 85.6686C34.9047 85.6446 34.6142 85.7047 34.3578 85.8416H34.1899L34.9623 85.6401L35.8019 86.3454V87.3193V87.5208L35.0967 87.9574H35.2646L33.3839 86.8827V87.1178V86.3454C33.3839 86.3454 33.3839 86.5469 33.3839 86.5805C32.9808 86.5805 33.3839 86.614 33.3839 86.5805L34.1899 86.8155L34.9959 88.1925C35.092 87.7257 35.2501 87.2739 35.4661 86.8491C35.5245 86.6017 35.5097 86.3426 35.4234 86.1035C35.3372 85.8643 35.1831 85.6555 34.9802 85.5024C34.7772 85.3493 34.5341 85.2585 34.2805 85.2412C34.0268 85.224 33.7736 85.2809 33.5518 85.405C32.5107 86.0095 31.3352 86.2782 30.1933 86.8491L32.0741 88.7298C32.2201 88.2477 32.3997 87.7764 32.6114 87.3193C33.3839 86.2782 31.7718 85.2707 30.8986 86.0095V85.9759Z" fill="#AF73EA"/>
<path d="M27.1707 84.4646C26.2825 85.2168 25.5422 86.1279 24.9877 87.1513C24.8369 87.4426 24.7827 87.7743 24.833 88.0984C24.8832 88.4225 25.0353 88.7222 25.2672 88.9541C25.4991 89.186 25.7988 89.3381 26.1229 89.3883C26.447 89.4386 26.7787 89.3844 27.07 89.2336C28.4548 88.5416 29.5151 87.3367 30.0254 85.8751C30.5291 84.6325 28.8163 83.4235 27.7416 84.1287C26.2454 85.1603 24.9292 86.4311 23.8459 87.8902C23.7052 88.1339 23.6307 88.4101 23.6298 88.6915C23.629 88.9728 23.7018 89.2495 23.841 89.494C23.9803 89.7385 24.1811 89.9423 24.4235 90.0852C24.6659 90.228 24.9415 90.3049 25.2228 90.3083C27.0028 90.3083 29.656 88.4611 28.5813 86.3453C28.3922 85.9933 28.0922 85.7136 27.7278 85.5496C27.3634 85.3856 26.955 85.3466 26.5662 85.4385C25.4915 85.7072 24.9206 86.9834 24.3496 87.8566L27.2379 89.0656C27.7561 87.4678 27.6233 85.7301 26.8685 84.2295C26.6711 83.9145 26.412 83.6427 26.1068 83.4305C25.8017 83.2183 25.4567 83.0701 25.0926 82.9947C24.7286 82.9194 24.3532 82.9186 23.9888 82.9923C23.6245 83.066 23.2788 83.2126 22.9727 83.4235L25.4579 85.3378C25.6072 84.8472 25.587 84.3206 25.4006 83.8428C25.2141 83.3651 24.8723 82.964 24.4302 82.7041C23.9881 82.4443 23.4714 82.3408 22.9633 82.4104C22.4552 82.48 21.9853 82.7185 21.6293 83.0876C21.2827 83.4522 21.0455 83.9068 20.9445 84.3996C20.8436 84.8924 20.883 85.4036 21.0584 85.8751C21.2056 86.4078 21.4695 86.9011 21.8308 87.3193C22.2674 87.7223 22.8383 87.9238 22.9391 88.5283L26.2975 87.6551C26.0288 86.8827 25.7938 86.1102 25.5251 85.3378C25.4147 85.0018 25.201 84.7093 24.9145 84.5019C24.6281 84.2945 24.2835 84.1829 23.9298 84.1829C23.5762 84.1829 23.2316 84.2945 22.9451 84.5019C22.6587 84.7093 22.445 85.0018 22.3346 85.3378C22.0653 86.3263 22.1731 87.3796 22.6368 88.2932C23.0734 89.2 24.4504 90.2747 24.1817 91.3494L26.8685 90.9464C26.651 90.4459 26.2728 90.0322 25.7938 89.7709C25.6486 89.6812 25.4841 89.6273 25.314 89.6138C25.1438 89.6002 24.9729 89.6274 24.8154 89.693C24.6578 89.7587 24.5182 89.8609 24.408 89.9913C24.2978 90.1216 24.2202 90.2763 24.1817 90.4426C24.033 90.855 24.033 91.3064 24.1817 91.7188C24.1925 92.0852 24.3332 92.4358 24.5787 92.708C24.8241 92.9803 25.1584 93.1563 25.5217 93.2048C25.8851 93.2532 26.2538 93.1709 26.562 92.9725C26.8703 92.7741 27.0979 92.4726 27.2043 92.1218C27.3428 91.6422 27.3844 91.1398 27.3267 90.6439C27.2691 90.1481 27.1133 89.6686 26.8685 89.2336C26.499 88.3268 25.1557 87.1849 25.4243 86.1774H22.2002C22.4353 86.9498 22.704 87.7223 22.9391 88.4947C23.0549 88.9401 23.3428 89.3212 23.7396 89.5542C24.1364 89.7873 24.6095 89.8531 25.0549 89.7373C25.5003 89.6215 25.8814 89.3336 26.1144 88.9368C26.3474 88.54 26.4133 88.0669 26.2975 87.6215C26.1986 86.9851 25.9188 86.3906 25.4915 85.9087C25.2949 85.7011 25.0815 85.5101 24.8534 85.3378L24.5176 85.0691C24.2825 84.7668 24.1145 85.0691 24.0474 85.5057L22.7376 85.6736L22.4017 85.4385V84.1287V84.431C22.1331 85.7072 23.6108 87.2857 24.887 86.3117C24.484 86.614 24.4168 85.9423 24.5511 86.8491C24.6182 87.3056 24.6182 87.7695 24.5511 88.226C24.2825 89.8717 26.4654 91.1143 27.4394 89.4351C27.6168 88.9868 27.842 88.5589 28.1111 88.1589L26.9356 88.3268H27.1371L25.7266 87.3193C25.7266 86.8827 25.7266 86.7819 25.2228 87.1178L26.6334 89.5022C27.3346 88.4314 28.2492 87.5167 29.3201 86.8155L27.0364 85.0691C26.7252 85.7313 26.2064 86.2737 25.5587 86.614L27.7752 88.3268C28.0639 87.5894 28.5111 86.9244 29.085 86.3789C30.2941 85.1027 28.4805 83.3899 27.1707 84.4646Z" fill="#AF73EA"/>
<path d="M31.6374 33.2485C28.3867 39.9273 25.4724 46.7647 22.9055 53.735L18.4724 64.7171C16.738 68.2411 15.3652 71.9318 14.3751 75.7327C14.327 75.9212 14.3487 76.1206 14.4362 76.2943C14.5236 76.468 14.6709 76.6043 14.8509 76.6779C15.0309 76.7515 15.2315 76.7576 15.4156 76.695C15.5997 76.6324 15.755 76.5053 15.8528 76.3372C17.6149 73.2933 19.0556 70.0742 20.1516 66.7321L24.6855 55.8508C27.6745 48.6637 31.1337 41.4431 33.4174 34.021C33.4865 33.7833 33.4656 33.5286 33.3589 33.3053C33.2521 33.082 33.0669 32.9058 32.8386 32.8103C32.6103 32.7148 32.3548 32.7067 32.1209 32.7875C31.8869 32.8684 31.6909 33.0325 31.5703 33.2485H31.6374Z" fill="#AF73EA"/>
<path d="M14.3079 76.9081C21.7586 79.4782 29.6006 80.7284 37.4811 80.6023C38.6901 80.6023 38.6565 78.8224 37.4811 78.7216C33.2396 78.4823 29.0135 78.0227 24.8198 77.3447C21.4614 76.7065 18.1029 75.7662 14.543 75.3296C13.569 75.3296 13.6026 76.5386 14.3079 76.8409V76.9081Z" fill="#AF73EA"/>
<path d="M41.2425 79.2926C49.4035 80.7031 58.0347 77.1096 64.7515 72.7772C65.5911 72.2399 64.7515 70.8629 63.9455 71.4003C56.7249 75.9006 49.3363 76.8745 41.1753 78.453C41.0841 78.479 41.0038 78.5341 40.9467 78.6099C40.8896 78.6856 40.8586 78.7779 40.8586 78.8728C40.8586 78.9677 40.8896 79.06 40.9467 79.1357C41.0038 79.2115 41.0841 79.2665 41.1753 79.2926H41.2425Z" fill="#AF73EA"/>
<path d="M46.5825 34.2225C49.3028 41.611 52.6948 48.6302 54.9785 56.2202C56.7249 61.9631 58.1019 68.7808 62.6694 73.0124C63.341 73.6169 64.5837 72.8109 63.9791 72.0048C59.7811 66.1948 58.4377 59.6794 56.2883 52.9289C54.3461 46.1847 51.6183 39.692 48.1609 33.5844C47.6572 32.7783 46.213 33.2821 46.5825 34.2561V34.2225Z" fill="#AF73EA"/>
<path d="M57.0945 59.1756C57.6681 61.3418 58.4556 63.4455 59.4454 65.4559C60.3204 67.7796 61.3875 70.0264 62.6359 72.1728C62.7519 72.3469 62.9245 72.4756 63.1245 72.537C63.3245 72.5984 63.5396 72.5888 63.7333 72.5097C63.9271 72.4307 64.0875 72.287 64.1874 72.1032C64.2873 71.9194 64.3205 71.7066 64.2815 71.5011C63.5596 69.3592 62.6609 67.281 61.5948 65.288C60.7087 62.9397 59.5833 60.6889 58.2364 58.5711C58.1577 58.4751 58.0498 58.4074 57.9292 58.3782C57.8086 58.349 57.6817 58.3599 57.5679 58.4093C57.454 58.4586 57.3593 58.5437 57.2981 58.6517C57.2369 58.7597 57.2126 58.8847 57.2288 59.0077L57.0945 59.1756Z" fill="#AF73EA"/>
<path d="M47.7915 12.6949C46.2663 14.9092 44.8864 17.2201 43.6606 19.6132C42.2571 21.6144 41.1276 23.7943 40.3022 26.095C40.1007 26.9346 41.209 27.7406 41.8471 27.0018C43.3506 24.9292 44.5809 22.6717 45.5078 20.2849C46.727 18.0191 47.7929 15.6742 48.6983 13.2658C48.8998 12.6277 48.0266 12.359 47.6572 12.8292L47.7915 12.6949Z" fill="#AF73EA"/>
<path d="M49.9072 14.5756C48.7318 16.1877 47.4556 17.6989 46.1458 19.2102C44.8631 20.3963 43.7347 21.739 42.7873 23.2068C42.6899 23.3982 42.6562 23.6158 42.6912 23.8278C42.7261 24.0397 42.8279 24.2349 42.9817 24.385C43.1354 24.535 43.3331 24.6319 43.5459 24.6616C43.7586 24.6913 43.9753 24.6523 44.1643 24.5502C45.6386 23.448 46.8823 22.0674 47.825 20.4864C49.0676 18.8408 50.1423 17.128 51.1834 15.3816C51.6872 14.5084 50.411 13.8032 49.8401 14.5756H49.9072Z" fill="#AF73EA"/>
<path d="M48.631 14.3069C46.9574 16.1349 45.5034 18.1525 44.2987 20.3185C42.8989 22.2555 41.9886 24.5024 41.6455 26.8674C41.6519 27.0552 41.7124 27.2371 41.8198 27.3912C41.9272 27.5454 42.0769 27.6651 42.2508 27.7361C42.4248 27.8071 42.6155 27.8263 42.8001 27.7913C42.9847 27.7564 43.1552 27.6688 43.2911 27.5391C44.546 25.7241 45.5724 23.7615 46.3473 21.6955C47.4892 19.5796 48.8326 17.5982 50.0752 15.5831C50.2221 15.3916 50.287 15.1496 50.2555 14.9102C50.224 14.6709 50.0988 14.4539 49.9073 14.3069C49.7157 14.1599 49.4737 14.0951 49.2344 14.1266C48.995 14.158 48.778 14.2833 48.631 14.4748V14.3069Z" fill="#AF73EA"/>
<path d="M38.9253 1.91436C38.5842 5.45219 38.4608 9.00764 38.5558 12.5606C38.2535 16.1029 38.2535 19.6645 38.5558 23.2068C38.5558 24.2144 40.2686 24.1136 40.4701 23.2068C41.0859 19.6938 41.3 16.1221 41.1082 12.5606C41.304 9.01039 41.2142 5.45018 40.8396 1.91436C40.7733 1.71279 40.6451 1.53728 40.4732 1.41285C40.3014 1.28842 40.0946 1.22144 39.8824 1.22144C39.6702 1.22144 39.4635 1.28842 39.2916 1.41285C39.1197 1.53728 38.9915 1.71279 38.9253 1.91436Z" fill="#AF73EA"/>
<path d="M28.4132 7.69075C29.2529 10.7469 30.1596 13.7359 31.0328 16.7585C31.5887 19.5297 32.5031 22.2167 33.7532 24.7516C33.8452 24.9267 33.9939 25.0654 34.175 25.1449C34.3561 25.2244 34.5589 25.2401 34.75 25.1894C34.9412 25.1387 35.1095 25.0245 35.2274 24.8657C35.3452 24.7068 35.4057 24.5127 35.3988 24.315C35.2446 21.4812 34.6322 18.6911 33.5852 16.0533C32.6785 13.0307 31.7045 10.0417 30.5626 7.11982C30.0589 5.81003 28.0102 6.28021 28.4132 7.69075Z" fill="#AF73EA"/>
<path d="M39.9664 62.5676C38.1992 67.875 36.9507 73.3412 36.2385 78.8895C36.2385 79.9642 37.6827 80.468 37.9513 79.3597C39.4675 73.8717 40.435 68.2467 40.8396 62.5676C40.8396 62.0302 40.1343 61.9966 39.9664 62.5676Z" fill="#AF73EA"/>
<path d="M76.064 94.204C75.202 91.6012 74.2043 89.0453 73.075 86.5468C69.4815 78.9568 65.7536 71.3667 62.6639 63.5751C59.5741 55.7836 56.6859 48.0592 53.5625 40.3012C52.5935 37.4176 51.2499 34.6737 49.566 32.1402C48.4225 30.59 47.2007 29.0992 45.9053 27.6735L44.8306 26.8675L46.6441 25.0539C48.7935 22.7366 50.2041 19.6804 52.1856 17.1952C52.9244 16.2884 54.7715 15.0122 53.9319 13.6017C53.0923 12.1911 49.8682 11.1164 48.3569 9.57153C48.242 9.46249 48.1044 9.3802 47.9539 9.33057C47.8035 9.28094 47.6439 9.26519 47.4866 9.28444C47.3294 9.3037 47.1783 9.35749 47.0443 9.44196C46.9102 9.52642 46.7965 9.63948 46.7113 9.77304C45.2866 12.2868 44.1595 14.958 43.3529 17.7325C43.1514 18.3035 42.0431 21.9977 41.3378 24.4494C41.808 22.4343 42.4461 20.4529 42.8491 18.4714C43.5551 14.3015 43.8253 10.0695 43.6551 5.84367C43.4872 2.11581 42.7819 0 38.3488 0C38.125 0.00689033 37.9094 0.0857624 37.7339 0.224911C37.5585 0.364059 37.4325 0.556067 37.3749 0.77244C36.6596 4.08046 36.467 7.4801 36.8039 10.8477C36.8039 15.5495 37.1398 20.2849 37.2741 24.9867C36.2268 21.5083 35.3636 17.977 34.6881 14.4077C33.9157 11.3515 32.8074 8.22816 32.1693 5.17199C32.1167 4.95286 31.9922 4.75769 31.8156 4.61766C31.6391 4.47764 31.4207 4.40084 31.1953 4.39955C26.3256 4.60105 26.292 7.2878 27.4339 11.1164C28.5032 14.0537 29.7943 16.9054 31.2961 19.6468C32.5051 22.2328 32.9753 25.1547 34.0164 27.7407C32.9417 28.8154 31.2961 31.0991 30.3557 32.2074C28.6419 34.7095 27.2749 37.4321 26.292 40.3012C23.1351 47.9248 20.2469 55.7836 17.1907 63.4408C14.1345 71.098 10.4738 78.8224 6.77954 86.4125C5.63767 88.8305 4.66373 91.5509 3.75695 94.0697C2.31218 97.3384 1.06726 100.692 0.02909 104.111C-0.00512711 104.253 -0.00920819 104.4 0.0171109 104.544C0.04343 104.687 0.0995626 104.823 0.181875 104.944C0.264188 105.064 0.370845 105.166 0.494944 105.242C0.619043 105.319 0.757817 105.368 0.902283 105.388C1.0396 105.641 1.26753 105.833 1.54038 105.925C6.48925 107.368 11.5262 108.49 16.6197 109.283C21.3695 109.821 26.1585 109.922 30.9267 109.586C31.0815 109.62 31.2421 109.62 31.3969 109.586C31.5953 109.635 31.8029 109.635 32.0014 109.586C32.1585 109.576 32.3101 109.524 32.4402 109.436C32.5702 109.347 32.6739 109.225 32.7402 109.082C34.0573 105.818 35.0911 102.447 35.83 99.0066C37.2291 94.5352 38.2955 89.9665 39.0205 85.3378C39.2892 83.5914 39.5578 81.7778 39.8601 79.9979C40.1288 81.039 40.4646 82.1137 40.6997 83.1548C41.4722 86.5132 42.3453 89.8717 43.2521 93.2301C44.1589 96.5885 45.4015 99.6447 46.1068 103.104C46.3419 104.212 47.1815 105.791 47.6181 107.134C47.6899 107.365 47.746 107.601 47.786 107.839C47.8152 108.085 47.8152 108.333 47.786 108.578C47.7859 108.755 47.8324 108.929 47.9207 109.082C48.0091 109.235 48.1363 109.363 48.2895 109.451C48.4427 109.54 48.6165 109.586 48.7934 109.586C48.9703 109.586 49.1441 109.54 49.2973 109.451H49.7003C54.4797 109.788 59.2798 109.686 64.0408 109.149C69.1344 108.356 74.1713 107.234 79.1202 105.791C79.333 105.721 79.5186 105.586 79.6511 105.405C79.7835 105.225 79.8563 105.007 79.859 104.783V104.514C79.8657 104.382 79.8419 104.249 79.7895 104.127C79.7371 104.005 79.6575 103.896 79.5568 103.809C78.5852 100.541 77.4188 97.3332 76.064 94.204ZM33.0761 18.6057C32.2701 16.7922 26.5943 7.62364 29.8856 6.71687C30.9267 6.41461 32.2365 13.4337 32.6731 15.0122C33.1097 16.5907 33.5798 18.8072 33.9828 20.6879C33.6134 19.9491 33.3447 19.2774 33.0761 18.6057ZM71.7316 88.6626C71.7184 88.7966 71.7184 88.9316 71.7316 89.0656C69.5678 89.9584 67.3167 90.6225 65.0148 91.0471C65.1827 90.5098 65.3842 90.006 65.5185 89.4686C65.671 88.4686 65.8955 87.4809 66.1902 86.5132C66.4253 85.8751 66.5261 85.2706 66.694 84.6325L66.8619 84.8004C67.9389 85.5545 68.9603 86.385 69.9181 87.2857C70.4218 87.7894 71.0935 88.0917 71.5637 88.629L71.7316 88.6626ZM43.4536 23.9456C44.5702 19.7921 46.0537 15.7461 47.8868 11.8553C49.1966 12.8292 50.6743 13.4337 51.9841 14.5084C50.2387 16.2151 48.6846 18.107 47.3494 20.1506C46.319 22.1653 44.9436 23.9839 43.2857 25.5241H43.1178C43.2521 24.7852 43.3529 24.2815 43.4536 23.9456ZM39.0877 3.02259C39.0877 2.04864 41.0356 3.02259 41.4386 3.02259C41.8416 3.02259 41.1699 15.1465 40.9684 16.7922C40.5308 19.0569 39.9816 21.2985 39.3228 23.509C39.3228 18.6393 38.8526 13.736 38.8526 8.83268C38.8526 6.95196 39.1884 4.9369 39.0877 3.02259ZM31.3969 107.134H31.0946V107.537C26.0411 107.84 20.9703 107.672 15.9481 107.033C14.9069 106.832 3.0181 103.44 3.0181 104.582C3.02734 104.39 2.97312 104.2 2.86385 104.043C2.75457 103.885 2.59632 103.767 2.41358 103.708C3.00531 101.415 3.76871 99.1701 4.69731 96.9915C9.73496 98.5028 15.2092 98.6372 20.3476 99.779C24.5706 100.973 28.9909 101.304 33.3447 100.753C32.8748 102.909 32.2232 105.021 31.3969 107.067V107.134ZM33.8149 98.6036H33.6134C29.2139 99.8462 22.9672 98.2677 18.6012 97.2938C14.2353 96.3198 9.73496 96.2863 5.5705 95.1108L6.51087 92.8942C6.61528 92.9987 6.74141 93.079 6.88029 93.1293C15.7149 96.0794 25.0121 97.3995 34.3187 97.0251C34.0164 97.3945 33.9157 97.9991 33.8149 98.5364V98.6036ZM7.75349 91.2486C8.23251 90.742 8.73693 90.26 9.26478 89.8045C10.1409 88.8217 11.0956 87.9119 12.1194 87.0842V86.9162C12.321 87.5208 12.4889 88.1253 12.7576 88.7298C13.1453 89.6636 13.4488 90.6302 13.6643 91.618C13.8658 92.189 14.1009 92.7263 14.336 93.2637C12.1088 92.7049 9.91178 92.0324 7.75349 91.2486ZM16.1832 93.4652C17.8624 91.8531 18.9707 89.8045 20.5155 88.0917C20.8062 88.7023 21.1669 89.2771 21.5902 89.8045C22.472 91.3722 23.268 92.9866 23.9747 94.6406C21.357 94.3994 18.7555 94.0069 16.1832 93.4652ZM25.4524 94.7414C26.8722 93.1893 28.1957 91.5518 29.4154 89.8381C30.1207 88.8641 30.9267 91.1479 31.0946 91.4501C31.7663 92.6592 32.6059 93.7674 33.2776 94.8086C30.6698 94.9208 28.0579 94.8984 25.4524 94.7414ZM37.3749 83.3899C36.636 87.2185 35.5613 90.9128 34.6545 94.7078H34.453L34.2515 94.5399C33.5463 93.2973 32.6731 92.1554 31.9678 90.8792C31.5777 89.8099 30.9974 88.82 30.255 87.9574C30.1552 87.8629 30.023 87.8102 29.8856 87.8102C29.7481 87.8102 29.6159 87.8629 29.5161 87.9574C27.9041 89.9724 26.3928 92.0211 24.7136 93.9689C24.0419 92.7263 23.5045 91.4165 22.9672 90.1403C22.4298 88.8641 21.2208 88.1589 21.2208 87.0842C21.2265 86.9806 21.2001 86.8778 21.1452 86.7898C21.0903 86.7018 21.0096 86.6329 20.9141 86.5924C20.8186 86.552 20.7129 86.5421 20.6115 86.564C20.5101 86.5859 20.418 86.6385 20.3476 86.7147C18.4669 88.5283 17.325 90.812 15.5115 92.6256C14.8734 90.7784 14.1681 88.9649 13.4964 87.1177C13.2949 86.5468 13.4964 85.1699 12.2874 85.6736C11.0783 86.1774 10.0708 87.6887 8.92894 88.5955C8.62668 88.8305 8.08933 89.2336 7.61915 89.6702C7.78707 89.3007 7.92141 88.9313 8.05575 88.5955C9.4327 85.0691 11.0112 81.6435 12.6568 78.2179C17.7952 79.2254 23.1687 80.065 28.2063 81.3748C31.2431 82.2116 34.4055 82.496 37.5428 82.2144C37.5428 82.5839 37.4756 82.9869 37.3749 83.3899ZM41.1027 74.9266C41.0925 74.7104 41.0228 74.5012 40.9012 74.3221C40.9012 73.9863 40.9012 73.6504 41.0691 73.3482C41.808 69.8218 41.0691 65.8924 41.8752 62.4333C41.9099 62.2785 41.9099 62.1179 41.8752 61.9631V61.7952C41.8549 61.5591 41.7547 61.3369 41.5911 61.1655C41.4275 60.994 41.2104 60.8835 40.9755 60.8522C40.7406 60.8208 40.502 60.8706 40.2992 60.9932C40.0964 61.1158 39.9415 61.3039 39.8601 61.5265C39.3604 64.6021 39.1133 67.7134 39.1213 70.8293C38.897 73.8379 38.5046 76.8316 37.9458 79.7964C37.8376 79.8517 37.7362 79.9193 37.6435 79.9979C35.3951 80.1564 33.1356 80.0095 30.9267 79.5613C29.1467 79.1918 27.2996 79.0575 25.5196 78.7888C21.4895 78.1507 17.5601 77.1432 13.5636 76.3036C14.9741 73.4489 16.3847 70.5607 17.6944 67.706C20.4819 61.5937 23.0008 55.3134 25.4524 49.0667C26.7286 45.7083 27.7362 42.6185 28.9788 39.3944C29.5786 37.8877 30.3326 36.4471 31.2289 35.0956C31.3334 34.9911 31.4595 34.9109 31.5984 34.8605L32.2029 34.6926H32.3708C34.8896 34.9613 37.5764 34.4575 40.0952 34.4911C41.2706 34.4911 42.4125 34.4911 43.4536 34.4911C44.6917 34.34 45.9435 34.34 47.1815 34.4911H47.383C47.5383 34.521 47.6979 34.521 47.8532 34.4911H48.0883C49.0693 35.9198 49.8914 37.4514 50.5399 39.0586C51.7825 42.417 52.7901 45.5068 53.8984 48.7309C56.35 54.9775 58.8688 61.2578 61.6563 67.3702L63.9065 72.1056C63.8684 72.2826 63.8684 72.4658 63.9065 72.6429C63.9065 71.4674 62.8654 72.6429 61.8914 73.3818C59.2966 74.8586 56.5189 75.9877 53.6297 76.7402C49.6321 77.7693 45.5707 78.5322 41.4722 79.0239C41.2055 77.6749 41.0816 76.3016 41.1027 74.9266ZM45.771 94.0361C44.7634 91.1143 44.0917 88.0917 43.2857 85.1027C42.9835 83.9608 42.614 82.7182 42.2446 81.4084C45.918 80.9743 49.5627 80.3239 53.1595 79.4605C55.7496 78.7501 58.2953 77.8866 60.7831 76.8745C62.3616 76.27 63.6378 75.0274 65.1827 74.3557C67.1642 78.4194 69.1456 82.4831 70.8584 86.614L70.5562 86.211C69.3471 85.4049 68.3396 84.028 66.9627 83.5242C65.5857 83.0205 66.0223 84.4982 65.8544 85.0691C65.3506 86.9834 64.7797 88.8306 64.3095 90.7449C62.3616 89.0656 60.9511 86.8491 59.0032 85.237C58.929 85.1704 58.8366 85.1273 58.7379 85.1131C58.6392 85.099 58.5385 85.1145 58.4485 85.1576C58.3586 85.2008 58.2835 85.2697 58.2328 85.3556C58.1821 85.4414 58.158 85.5405 58.1636 85.64C58.1636 86.7147 56.9545 87.8566 56.6523 88.8306C56.35 89.8045 55.7791 91.4837 55.2417 92.7599C53.3946 90.9799 51.7154 89.0321 49.969 87.1849C49.8692 87.0904 49.737 87.0378 49.5996 87.0378C49.4621 87.0378 49.3299 87.0904 49.2301 87.1849C48.5599 88.1112 48.0805 89.1615 47.8196 90.2747C47.0472 91.5845 46.3419 92.6927 45.771 94.0361ZM63.4027 91.5509C62.8654 91.5509 62.328 91.786 61.7907 91.9539C59.9435 92.4576 57.9956 92.8942 56.0142 93.2637C56.5474 91.6339 57.1869 90.0408 57.9285 88.4947C58.2886 87.9272 58.603 87.332 58.8688 86.7147C60.4809 88.1253 61.6899 89.9724 63.4027 91.4501V91.5509ZM54.3014 93.5659C51.8242 93.9684 49.3213 94.1928 46.8121 94.2376C47.3494 93.0958 48.0211 92.0211 48.5584 90.8792C48.7264 90.5433 49.3309 88.1924 50.1033 89.1328C51.4187 90.656 52.8204 92.1025 54.3014 93.4652V93.5659ZM47.2822 98.2342L46.577 96.2863C51.3196 96.1181 56.0336 95.4768 60.6488 94.372C64.7576 93.6522 68.785 92.5272 72.672 91.0135C73.075 91.9875 73.5116 92.9614 73.9482 93.9354C69.7166 95.581 65.1491 95.984 60.8167 97.2938C58.1985 97.8211 55.5239 98.013 52.8572 97.8647C51.0098 98.1112 49.1448 98.2011 47.2822 98.1334V98.2342ZM65.0484 107.067C60.0149 107.705 54.9329 107.874 49.8682 107.571V107.168H49.7003C49.4035 106.593 49.178 105.984 49.0286 105.354C48.76 103.776 48.4241 101.996 48.0211 100.451C51.8781 100.47 55.7304 100.178 59.5405 99.5775C64.6679 99.1184 69.7018 97.9193 74.4855 96.0176L74.8214 95.7825C76.0963 98.5704 77.1082 101.471 77.844 104.447C73.5147 104.92 69.2339 105.763 65.0484 106.966V107.067Z" fill="#513A47"/>
<path d="M25.6258 83.457C24.995 83.5293 24.4128 83.831 23.9902 84.3048C23.5676 84.7786 23.334 85.3913 23.334 86.0262C23.334 86.6611 23.5676 87.2738 23.9902 87.7476C24.4128 88.2214 24.995 88.5232 25.6258 88.5954C26.2565 88.5232 26.8387 88.2214 27.2613 87.7476C27.684 87.2738 27.9175 86.6611 27.9175 86.0262C27.9175 85.3913 27.684 84.7786 27.2613 84.3048C26.8387 83.831 26.2565 83.5293 25.6258 83.457Z" fill="#513A47"/>
<path d="M54.2734 86.6475C54.858 86.2975 55.2831 85.7334 55.4587 85.075C55.6343 84.4167 55.5464 83.7158 55.2138 83.1212C54.867 82.5795 54.3331 82.1843 53.7138 82.0108C53.0944 81.8374 52.4329 81.8979 51.8553 82.1808L51.4187 82.5166C51.1431 82.7085 50.9079 82.9527 50.7267 83.2355C50.5454 83.5182 50.4216 83.8339 50.3624 84.1644C50.3031 84.495 50.3096 84.834 50.3813 85.1621C50.4531 85.4902 50.5888 85.8009 50.7806 86.0766C51.1681 86.6333 51.7608 87.0132 52.4284 87.1329C52.759 87.1922 53.098 87.1857 53.4261 87.114C53.7542 87.0422 54.0649 86.9065 54.3406 86.7147L54.2734 86.6475Z" fill="#513A47"/>
<path d="M31.8055 65.7917C31.3421 66.9364 30.4843 67.8775 29.3874 68.4449C29.8493 67.2155 30.1321 65.9261 30.227 64.6162C30.227 63.7095 28.8501 63.7095 28.7829 64.6162C28.7829 64.7842 28.7829 64.9185 28.7829 65.0528C28.3342 64.5251 27.9818 63.9226 27.7418 63.2729C27.7418 63.0042 26.3984 58.8062 25.5924 59.7465C25.5924 59.7465 25.5924 59.7465 25.5924 59.948C25.5778 60.1381 25.5778 60.3289 25.5924 60.519C26.0859 62.625 26.9502 64.6265 28.1448 66.4298C28.1448 66.6649 28.4135 66.8328 28.615 66.9C28.1151 68.2557 27.5318 69.5792 26.8686 70.8629C26.532 70.107 26.0532 69.4228 25.458 68.8479C25.441 68.6846 25.3617 68.5341 25.2366 68.4278C25.1115 68.3214 24.9503 68.2674 24.7863 68.2769H24.5848C24.4324 68.2878 24.2871 68.3457 24.169 68.4426C24.0508 68.5395 23.9656 68.6707 23.9251 68.818C23.8846 68.9653 23.8908 69.1216 23.9428 69.2653C23.9947 69.409 24.09 69.533 24.2154 69.6203C24.8855 70.177 25.4051 70.8929 25.7267 71.7025C25.7728 71.8486 25.8612 71.9777 25.9808 72.0734C26.1004 72.169 26.2458 72.227 26.3984 72.2399C26.0909 72.9833 25.8329 73.7462 25.626 74.5236C25.577 74.7062 25.6025 74.9008 25.697 75.0646C25.7915 75.2283 25.9471 75.3478 26.1297 75.3968C26.3123 75.4458 26.5069 75.4203 26.6707 75.3258C26.8344 75.2313 26.9539 75.0756 27.0029 74.893C27.3666 73.5736 27.8268 72.2827 28.3799 71.0309C28.8501 70.8293 29.0851 70.4263 29.5217 70.1241C30.0304 69.8041 30.5133 69.4447 30.9659 69.0494C31.9887 68.3716 32.7659 67.3824 33.1824 66.2283C33.5854 65.2879 32.007 64.9185 31.8055 65.7917Z" fill="#513A47"/>
<path d="M53.1649 71.6354C53.2532 71.5969 53.3302 71.5366 53.389 71.4603C53.4477 71.384 53.4861 71.294 53.5007 71.1988C53.6834 70.5487 53.9309 69.9187 54.2396 69.3181C54.5786 68.6798 54.8705 68.0175 55.1128 67.3366C55.1393 67.2462 55.1476 67.1515 55.1375 67.0578C55.1273 66.9642 55.0988 66.8734 55.0536 66.7908C55.0084 66.7081 54.9474 66.6352 54.8739 66.5762C54.8005 66.5171 54.7162 66.4731 54.6258 66.4466C54.5354 66.4202 54.4407 66.4118 54.347 66.4219C54.2534 66.4321 54.1626 66.4606 54.08 66.5058C53.9973 66.551 53.9244 66.6121 53.8654 66.6855C53.8063 66.7589 53.7623 66.8432 53.7358 66.9336C53.5048 67.592 53.2241 68.232 52.8962 68.8479C52.8093 69.0669 52.7083 69.28 52.594 69.486C52.2917 68.7136 51.7879 67.9411 51.4521 67.2359C51.1163 66.5306 51.1834 66.5978 51.0491 66.2619C51.1159 66.1966 51.1683 66.118 51.203 66.0313C51.2377 65.9445 51.2539 65.8515 51.2506 65.7582C51.407 65.5845 51.5423 65.3928 51.6536 65.1872C51.9016 64.6901 52.0715 64.1577 52.1574 63.6088C52.3265 62.8941 52.5626 62.1969 52.8626 61.5265C53.0309 60.7067 53.0309 59.8612 52.8626 59.0413C52.8626 58.1345 51.2842 58.1345 51.4185 59.0413C51.5868 59.8838 51.5868 60.7512 51.4185 61.5937C51.1721 62.1708 50.97 62.7659 50.814 63.3737C50.7695 63.6813 50.6669 63.9776 50.5117 64.2469L50.3774 63.8103C50.0252 62.9496 49.7881 62.0462 49.6721 61.1235C49.6721 60.9365 49.5978 60.7571 49.4656 60.6248C49.3333 60.4926 49.1539 60.4182 48.9669 60.4182C48.7798 60.4182 48.6004 60.4926 48.4682 60.6248C48.3359 60.7571 48.2616 60.9365 48.2616 61.1235C48.5164 63.1998 49.0473 65.2328 49.8401 67.1687C49.9652 67.5239 50.111 67.8716 50.2766 68.2098L49.8065 67.9411C49.2931 67.6302 48.8476 67.219 48.4967 66.7321C48.5015 66.6382 48.4866 66.5444 48.4528 66.4566C48.4191 66.3688 48.3673 66.2892 48.3008 66.2227C48.2344 66.1562 48.1547 66.1044 48.0669 66.0707C47.9792 66.0369 47.8853 66.022 47.7914 66.0268H47.5563C47.4253 66.0299 47.2977 66.0694 47.1879 66.1409C47.0781 66.2124 46.9904 66.313 46.9346 66.4316C46.8788 66.5502 46.8571 66.682 46.872 66.8121C46.8869 66.9423 46.9378 67.0658 47.019 67.1687C47.4699 67.9274 48.0831 68.5768 48.8148 69.0704C49.5464 69.564 50.3783 69.8894 51.2506 70.0234C51.3938 70.3858 51.5171 70.7558 51.62 71.1316C51.699 71.828 51.9661 72.4898 52.3925 73.046C53.0306 73.7176 54.0381 72.6765 53.4 72.0384C53.3052 71.9144 53.2262 71.779 53.1649 71.6354Z" fill="#513A47"/>
<path d="M29.6895 109.552C34.2569 109.854 38.052 109.552 40.9738 109.72C43.8956 109.888 49.5714 109.518 50.5117 109.518C51.4521 109.518 48.5638 107.571 48.5638 107.571L45.6756 99.376L40.3021 76.8409L39.4289 78.2179L34.2233 99.779L31.6038 107.47L29.6895 109.552Z" fill="#513A47"/>
</g>
</g>
</g>
<defs>
<clipPath id="clip0_159_5112">
<rect width="80" height="109.72" fill="white"/>
</clipPath>
<clipPath id="clip1_159_5112">
<rect width="80" height="109.72" fill="white"/>
</clipPath>
<clipPath id="clip2_159_5112">
<rect width="79.9979" height="109.72" fill="white" transform="translate(0.000976562)"/>
</clipPath>
</defs>
</svg>
