<svg width="33" height="28" viewBox="0 0 33 28" fill="none" xmlns="http://www.w3.org/2000/svg">
<g clip-path="url(#clip0_159_5055)">
<g clip-path="url(#clip1_159_5055)">
<path d="M6.11455 18.0099C6.11455 21.1158 7.98024 23.2942 10.0724 25.3864C11.121 26.109 12.2689 26.6757 13.4802 27.0687C17.5136 28.654 23.391 26.2168 25.4293 22.5717C27.4675 18.9266 27.5861 13.6854 24.4695 10.4501C23.4881 8.45499 21.7302 7.4844 19.4871 6.85891C18.4087 6.55695 17.1577 6.85891 16.0253 6.55695C15.0324 6.40618 14.017 6.56036 13.1136 6.99911C10.9072 7.70367 9.00576 9.13732 7.72141 11.0648C6.17926 13.2324 6.07141 15.454 6.11455 18.0099Z" fill="#513A47"/>
<path d="M23.1433 5.56478C23.3252 5.6549 23.5017 5.75573 23.6717 5.86674C23.8498 5.9694 24.0225 6.08098 24.1894 6.20106C24.3599 6.31123 24.5404 6.40511 24.7286 6.48145C24.8599 6.5436 24.9772 6.63164 25.0737 6.74027C25.2094 6.85408 25.3165 6.99814 25.3864 7.16086C25.4704 7.32678 25.539 7.50006 25.5913 7.67851C25.6411 7.84995 25.6593 8.02899 25.6452 8.20694C25.6504 8.30033 25.6504 8.39394 25.6452 8.48733C25.8394 8.17459 26.0443 7.84027 26.2384 7.49518C26.4325 7.15008 26.5727 6.78341 26.7345 6.41674C26.89 6.02559 27.0232 5.62593 27.1335 5.21969C27.2253 4.80689 27.2937 4.38923 27.3384 3.9687C27.5217 3.42949 26.5727 2.82557 26.1629 3.31086C25.9349 3.45664 25.6768 3.54882 25.408 3.58047C25.1171 3.63904 24.8346 3.73321 24.5668 3.86086C24.1139 4.14125 23.6825 4.43243 23.2511 4.74518C22.9721 4.94769 22.7089 5.17121 22.4639 5.4138H22.5286C22.7392 5.43683 22.9459 5.48759 23.1433 5.56478ZM26.0335 4.5942V4.68047C25.9449 4.65897 25.8525 4.65897 25.7639 4.68047L26.0335 4.5942Z" fill="#513A47"/>
<path d="M11.6362 4.70201H11.7225H11.8735H12.0352L12.1754 4.6373H12.2401C12.4612 4.50397 12.6962 4.39547 12.9411 4.31377C13.424 4.21738 13.8997 4.08766 14.3646 3.92554C14.5258 3.85957 14.6974 3.82304 14.8715 3.81769H15.098L15.3568 3.87161C15.4224 3.87993 15.4833 3.91036 15.5293 3.95789H15.5833H15.648H15.7882C16.1333 4.07652 16.4891 4.23828 16.7695 4.34613L17.3087 4.51867C16.6349 3.89881 16.1333 3.1148 15.8529 2.24318C15.6492 1.85242 15.3954 1.48989 15.098 1.16475C14.7653 0.806011 14.4047 0.47425 14.0195 0.172596C13.8856 0.0721428 13.7301 0.00425365 13.5654 -0.0256956C13.4007 -0.0556448 13.2312 -0.0468314 13.0705 4.64953e-05C12.6931 0.0971053 12.3911 0.33436 12.4558 0.647105C12.5205 0.95985 12.2833 1.11083 12.0891 1.41279C11.9069 1.66008 11.7616 1.93253 11.6578 2.22161C11.6042 2.48462 11.5717 2.75148 11.5607 3.01965V3.41867C11.5607 3.41867 11.5607 3.55887 11.4744 3.63436C11.443 3.6719 11.4142 3.71153 11.3882 3.75299V3.85005C11.3198 4.20577 11.2801 4.5664 11.2695 4.92848H11.3342L11.6362 4.70201ZM13.5882 1.66083L13.6529 1.71475C13.571 1.7717 13.4982 1.84079 13.4372 1.91965L13.5882 1.66083Z" fill="#513A47"/>
<path d="M2.35076 9.44708C2.44632 9.728 2.56913 9.99889 2.71743 10.2559C3.04096 10.6873 3.3537 11.0755 3.72037 11.4853C3.95232 11.7388 4.20091 11.9766 4.46449 12.1971V12.1324C4.46706 11.9265 4.5035 11.7225 4.57233 11.5285C4.64782 11.3343 4.74488 11.151 4.83115 10.9569L4.97135 10.6657L5.12233 10.3961C5.23468 10.2056 5.32512 10.003 5.39194 9.79218C5.39194 9.7059 5.39194 9.7059 5.39194 9.57649L5.54292 9.36081C5.66436 9.19677 5.80162 9.04506 5.95272 8.90787L6.18998 8.70296L6.47037 8.53041C6.64235 8.42884 6.82276 8.34225 7.00958 8.27159C7.10145 8.21761 7.19913 8.1742 7.30076 8.14218C6.54586 8.00198 5.74782 7.851 4.92821 7.73238C4.11652 7.62313 3.29908 7.56191 2.48017 7.54904C1.97331 7.45198 1.47723 8.401 2.00566 8.75688C2.16781 8.96021 2.28539 9.19537 2.35076 9.44708ZM3.42919 8.7461C3.41737 8.83197 3.41737 8.91905 3.42919 9.00492L3.33213 8.72453L3.42919 8.7461Z" fill="#513A47"/>
<path d="M0.765614 22.2481C1.03475 22.2556 1.29783 22.3297 1.5313 22.4638C1.79859 22.5879 2.0816 22.675 2.37248 22.7226C2.90091 22.7765 3.45091 22.7873 3.96855 22.7981C4.30764 22.8034 4.64662 22.7817 4.98228 22.7334C4.67104 22.403 4.44199 22.004 4.31365 21.5687C4.23816 21.3745 4.17346 21.1696 4.08718 20.9755C3.99834 20.8043 3.89363 20.6419 3.77444 20.4902C3.69679 20.3536 3.64557 20.2036 3.62346 20.0481C3.59547 19.8658 3.59547 19.6803 3.62346 19.4981C3.64989 19.1205 3.75651 18.7528 3.9362 18.4196C3.9362 18.301 4.02248 18.1932 4.05483 18.0853L3.5264 18.3334L3.03032 18.6461C2.70679 18.8618 2.34012 19.0883 2.02738 19.3363C1.71463 19.5843 1.38032 19.8432 1.06757 20.1236C0.756716 20.4094 0.461516 20.7118 0.183261 21.0294C-0.248112 21.3961 0.129339 22.4206 0.765614 22.2481ZM1.69306 21.1696C1.75495 21.2329 1.82809 21.2841 1.90875 21.3206L1.62836 21.2128L1.69306 21.1696Z" fill="#513A47"/>
<path d="M32.0509 23.1432C32.1831 23.1134 32.3029 23.0434 32.3939 22.9429C32.4849 22.8424 32.5426 22.7162 32.5591 22.5816C32.5757 22.447 32.5502 22.3107 32.4863 22.1911C32.4223 22.0716 32.323 21.9747 32.2018 21.9138C31.8891 21.7843 31.4685 20.8353 31.1234 20.6196C30.7783 20.404 30.293 19.9402 29.8832 19.6059C29.6149 19.3899 29.33 19.1951 29.0313 19.0236V19.0883C28.9708 19.9749 28.8373 20.855 28.6322 21.7196C28.6229 21.8852 28.5903 22.0486 28.5352 22.2049C28.4586 22.3861 28.3647 22.5595 28.2548 22.7226C28.0367 23.0715 27.7462 23.3694 27.4028 23.5961C27.3251 23.6702 27.2422 23.7386 27.1548 23.801C28.8043 23.7411 30.4441 23.5208 32.0509 23.1432ZM30.7783 21.9461L30.9401 22.1941H30.8646C30.8454 22.1103 30.8126 22.0301 30.7675 21.9569L30.7783 21.9461Z" fill="#513A47"/>
<path d="M28.1685 11.1726V11.2589L28.2547 11.3883C28.3115 11.4744 28.3619 11.5645 28.4057 11.6579C28.4589 11.748 28.5057 11.8417 28.5459 11.9383L28.643 12.251C28.6983 12.4565 28.7668 12.6582 28.8479 12.855C28.91 13.0606 28.9932 13.2594 29.0959 13.4481C29.2328 13.7971 29.2883 14.1727 29.2584 14.5464C29.2285 14.9201 29.114 15.2821 28.9234 15.605C28.8951 15.7028 28.8553 15.7969 28.8047 15.8854C29.4518 15.5079 30.142 15.0873 30.8214 14.6128C31.5032 14.134 32.1387 13.5925 32.7195 12.9952C33.1293 12.704 32.8489 11.6795 32.2018 11.8089C31.8675 11.8089 31.0047 11.2912 30.6273 11.2481C30.0881 11.1726 29.5489 11.1403 29.0312 11.0971C28.8588 11.0864 28.686 11.0864 28.5136 11.0971H28.3734L28.2224 11.0324L28.0391 10.8599C28.0391 10.8599 28.093 10.9569 28.1146 11.0001L28.1685 11.1726ZM31.3498 12.7579L31.2851 12.8118C31.2332 12.7469 31.1667 12.6952 31.091 12.6608L31.3498 12.7579Z" fill="#513A47"/>
</g>
</g>
<defs>
<clipPath id="clip0_159_5055">
<rect width="33" height="28" fill="white"/>
</clipPath>
<clipPath id="clip1_159_5055">
<rect width="33" height="27.5647" fill="white"/>
</clipPath>
</defs>
</svg>
